STARTFONT 2.1
FONT -ChangBanDianSong 12-ChangBanDianSong 12-R-Regular--12-12-75-75-c-80-ISO10646-1
SIZE 12 75 75
FONTBOUNDINGBOX 14 13 -1 -3
COMMENT "Generated by fontforge, http://fontforge.sourceforge.net"
STARTPROPERTIES 8
FAMILY_NAME "ChangBanDianSong 12"
WEIGHT_NAME "Regular"
COPYRIGHT "Copyright (c) yzdnn 2025, Copyright (c) Keitarou Hiraki, Font Silo. 1990-2015"
FONT_ASCENT 10
FONT_DESCENT 2
POINT_SIZE 12
X_HEIGHT 6
CAP_HEIGHT 8
ENDPROPERTIES
CHARS 13096
STARTCHAR U+0020
ENCODING 32
SWIDTH 417 0
DWIDTH 6 0
BBX 1 1 3 -1
BITMAP
00
ENDCHAR
STARTCHAR U+0021
ENCODING 33
SWIDTH 417 0
DWIDTH 6 0
BBX 2 9 2 -1
BITMAP
C0
C0
C0
C0
C0
00
00
C0
C0
ENDCHAR
STARTCHAR U+0022
ENCODING 34
SWIDTH 417 0
DWIDTH 6 0
BBX 5 4 0 5
BITMAP
D8
D8
48
90
ENDCHAR
STARTCHAR U+0023
ENCODING 35
SWIDTH 417 0
DWIDTH 6 0
BBX 5 10 0 -1
BITMAP
10
58
78
F0
D0
58
78
F0
D0
40
ENDCHAR
STARTCHAR U+0024
ENCODING 36
SWIDTH 417 0
DWIDTH 6 0
BBX 5 11 0 -2
BITMAP
20
70
A8
B8
E0
70
38
E8
A8
70
20
ENDCHAR
STARTCHAR U+0025
ENCODING 37
SWIDTH 417 0
DWIDTH 6 0
BBX 5 9 0 -1
BITMAP
E0
A8
E8
10
20
40
B8
A8
38
ENDCHAR
STARTCHAR U+0026
ENCODING 38
SWIDTH 417 0
DWIDTH 6 0
BBX 5 9 0 -1
BITMAP
60
D0
D0
60
58
F8
D0
D8
68
ENDCHAR
STARTCHAR U+0027
ENCODING 39
SWIDTH 417 0
DWIDTH 6 0
BBX 2 4 2 5
BITMAP
C0
C0
40
80
ENDCHAR
STARTCHAR U+0028
ENCODING 40
SWIDTH 417 0
DWIDTH 6 0
BBX 3 10 2 -1
BITMAP
20
40
40
C0
C0
C0
C0
40
40
20
ENDCHAR
STARTCHAR U+0029
ENCODING 41
SWIDTH 417 0
DWIDTH 6 0
BBX 3 10 1 -1
BITMAP
80
40
40
60
60
60
60
40
40
80
ENDCHAR
STARTCHAR U+002A
ENCODING 42
SWIDTH 417 0
DWIDTH 6 0
BBX 5 6 0 1
BITMAP
20
A8
70
70
A8
20
ENDCHAR
STARTCHAR U+002B
ENCODING 43
SWIDTH 417 0
DWIDTH 6 0
BBX 5 5 0 2
BITMAP
20
20
F8
20
20
ENDCHAR
STARTCHAR U+002C
ENCODING 44
SWIDTH 417 0
DWIDTH 6 0
BBX 2 4 2 -2
BITMAP
C0
C0
40
80
ENDCHAR
STARTCHAR U+002D
ENCODING 45
SWIDTH 417 0
DWIDTH 6 0
BBX 5 1 0 4
BITMAP
F8
ENDCHAR
STARTCHAR U+002E
ENCODING 46
SWIDTH 417 0
DWIDTH 6 0
BBX 2 3 2 -1
BITMAP
C0
C0
C0
ENDCHAR
STARTCHAR U+002F
ENCODING 47
SWIDTH 417 0
DWIDTH 6 0
BBX 5 10 0 -1
BITMAP
08
08
10
10
20
20
40
40
80
80
ENDCHAR
STARTCHAR U+0030
ENCODING 48
SWIDTH 417 0
DWIDTH 6 0
BBX 5 9 0 -1
BITMAP
70
50
D8
D8
D8
D8
D8
50
70
ENDCHAR
STARTCHAR U+0031
ENCODING 49
SWIDTH 417 0
DWIDTH 6 0
BBX 4 9 1 -1
BITMAP
60
E0
60
60
60
60
60
60
F0
ENDCHAR
STARTCHAR U+0032
ENCODING 50
SWIDTH 417 0
DWIDTH 6 0
BBX 5 9 0 -1
BITMAP
70
D8
D8
18
30
40
88
F8
F8
ENDCHAR
STARTCHAR U+0033
ENCODING 51
SWIDTH 417 0
DWIDTH 6 0
BBX 5 9 0 -1
BITMAP
70
D8
D8
18
70
18
D8
D8
70
ENDCHAR
STARTCHAR U+0034
ENCODING 52
SWIDTH 417 0
DWIDTH 6 0
BBX 5 9 0 -1
BITMAP
18
38
38
78
58
D8
F8
18
38
ENDCHAR
STARTCHAR U+0035
ENCODING 53
SWIDTH 417 0
DWIDTH 6 0
BBX 5 9 0 -1
BITMAP
F8
C0
C0
F0
D8
18
D8
F8
70
ENDCHAR
STARTCHAR U+0036
ENCODING 54
SWIDTH 417 0
DWIDTH 6 0
BBX 5 9 0 -1
BITMAP
70
D8
D8
C0
F0
D8
D8
D8
70
ENDCHAR
STARTCHAR U+0037
ENCODING 55
SWIDTH 417 0
DWIDTH 6 0
BBX 5 9 0 -1
BITMAP
F8
F8
90
10
30
20
60
60
60
ENDCHAR
STARTCHAR U+0038
ENCODING 56
SWIDTH 417 0
DWIDTH 6 0
BBX 5 9 0 -1
BITMAP
70
D8
D8
D8
70
D8
D8
D8
70
ENDCHAR
STARTCHAR U+0039
ENCODING 57
SWIDTH 417 0
DWIDTH 6 0
BBX 5 9 0 -1
BITMAP
70
D8
D8
D8
78
18
D8
D8
70
ENDCHAR
STARTCHAR U+003A
ENCODING 58
SWIDTH 417 0
DWIDTH 6 0
BBX 2 8 2 -1
BITMAP
C0
C0
C0
00
00
C0
C0
C0
ENDCHAR
STARTCHAR U+003B
ENCODING 59
SWIDTH 417 0
DWIDTH 6 0
BBX 2 9 2 -2
BITMAP
C0
C0
C0
00
00
C0
C0
40
80
ENDCHAR
STARTCHAR U+003C
ENCODING 60
SWIDTH 417 0
DWIDTH 6 0
BBX 4 8 1 0
BITMAP
10
30
60
C0
C0
60
30
10
ENDCHAR
STARTCHAR U+003D
ENCODING 61
SWIDTH 417 0
DWIDTH 6 0
BBX 5 3 0 3
BITMAP
F8
00
F8
ENDCHAR
STARTCHAR U+003E
ENCODING 62
SWIDTH 417 0
DWIDTH 6 0
BBX 4 8 1 0
BITMAP
80
C0
60
30
30
60
C0
80
ENDCHAR
STARTCHAR U+003F
ENCODING 63
SWIDTH 417 0
DWIDTH 6 0
BBX 5 9 0 -1
BITMAP
70
D8
D8
18
30
60
00
60
60
ENDCHAR
STARTCHAR U+0040
ENCODING 64
SWIDTH 417 0
DWIDTH 6 0
BBX 5 9 0 -1
BITMAP
70
D8
F8
D8
D8
D8
F0
C8
70
ENDCHAR
STARTCHAR U+0041
ENCODING 65
SWIDTH 417 0
DWIDTH 6 0
BBX 5 9 0 -1
BITMAP
70
98
98
98
98
F8
98
98
D8
ENDCHAR
STARTCHAR U+0042
ENCODING 66
SWIDTH 417 0
DWIDTH 6 0
BBX 5 9 0 -1
BITMAP
F0
D8
D8
D8
F0
D8
D8
D8
F0
ENDCHAR
STARTCHAR U+0043
ENCODING 67
SWIDTH 417 0
DWIDTH 6 0
BBX 5 9 0 -1
BITMAP
68
D8
C8
C0
C0
C8
C8
C8
70
ENDCHAR
STARTCHAR U+0044
ENCODING 68
SWIDTH 417 0
DWIDTH 6 0
BBX 5 9 0 -1
BITMAP
E0
D0
D8
D8
D8
D8
D8
D0
E0
ENDCHAR
STARTCHAR U+0045
ENCODING 69
SWIDTH 417 0
DWIDTH 6 0
BBX 5 9 0 -1
BITMAP
F8
D8
C8
D0
F0
D0
C8
D8
F8
ENDCHAR
STARTCHAR U+0046
ENCODING 70
SWIDTH 417 0
DWIDTH 6 0
BBX 5 9 0 -1
BITMAP
F8
D8
C8
D0
F0
D0
C0
C0
E0
ENDCHAR
STARTCHAR U+0047
ENCODING 71
SWIDTH 417 0
DWIDTH 6 0
BBX 5 9 0 -1
BITMAP
68
D8
C8
C0
F8
D8
D8
D8
68
ENDCHAR
STARTCHAR U+0048
ENCODING 72
SWIDTH 417 0
DWIDTH 6 0
BBX 5 9 0 -1
BITMAP
D8
D8
D8
D8
F8
D8
D8
D8
D8
ENDCHAR
STARTCHAR U+0049
ENCODING 73
SWIDTH 417 0
DWIDTH 6 0
BBX 4 9 1 -1
BITMAP
F0
60
60
60
60
60
60
60
F0
ENDCHAR
STARTCHAR U+004A
ENCODING 74
SWIDTH 417 0
DWIDTH 6 0
BBX 5 9 0 -1
BITMAP
38
18
18
18
18
D8
D8
98
70
ENDCHAR
STARTCHAR U+004B
ENCODING 75
SWIDTH 417 0
DWIDTH 6 0
BBX 5 9 0 -1
BITMAP
D8
D8
D8
D0
E0
D0
D8
D8
D8
ENDCHAR
STARTCHAR U+004C
ENCODING 76
SWIDTH 417 0
DWIDTH 6 0
BBX 5 9 0 -1
BITMAP
E0
C0
C0
C0
C0
C0
C8
D8
F8
ENDCHAR
STARTCHAR U+004D
ENCODING 77
SWIDTH 417 0
DWIDTH 6 0
BBX 5 9 0 -1
BITMAP
88
D8
F8
B8
98
98
98
98
D8
ENDCHAR
STARTCHAR U+004E
ENCODING 78
SWIDTH 417 0
DWIDTH 6 0
BBX 5 9 0 -1
BITMAP
98
C8
C8
E8
A8
B8
98
98
C8
ENDCHAR
STARTCHAR U+004F
ENCODING 79
SWIDTH 417 0
DWIDTH 6 0
BBX 5 9 0 -1
BITMAP
70
D8
D8
D8
D8
D8
D8
D8
70
ENDCHAR
STARTCHAR U+0050
ENCODING 80
SWIDTH 417 0
DWIDTH 6 0
BBX 5 9 0 -1
BITMAP
F0
D8
D8
D8
F0
C0
C0
C0
E0
ENDCHAR
STARTCHAR U+0051
ENCODING 81
SWIDTH 417 0
DWIDTH 6 0
BBX 5 10 0 -2
BITMAP
70
D8
D8
D8
D8
F8
D8
D8
70
18
ENDCHAR
STARTCHAR U+0052
ENCODING 82
SWIDTH 417 0
DWIDTH 6 0
BBX 5 9 0 -1
BITMAP
F0
D8
D8
D8
F0
D8
D8
D8
D8
ENDCHAR
STARTCHAR U+0053
ENCODING 83
SWIDTH 417 0
DWIDTH 6 0
BBX 5 9 0 -1
BITMAP
68
D8
C8
C0
70
18
98
D8
B0
ENDCHAR
STARTCHAR U+0054
ENCODING 84
SWIDTH 417 0
DWIDTH 6 0
BBX 6 9 0 -1
BITMAP
FC
B4
30
30
30
30
30
30
78
ENDCHAR
STARTCHAR U+0055
ENCODING 85
SWIDTH 417 0
DWIDTH 6 0
BBX 5 9 0 -1
BITMAP
D8
C8
C8
C8
C8
C8
C8
C8
70
ENDCHAR
STARTCHAR U+0056
ENCODING 86
SWIDTH 417 0
DWIDTH 6 0
BBX 5 9 0 -1
BITMAP
D8
C8
C8
C8
C8
C8
50
70
20
ENDCHAR
STARTCHAR U+0057
ENCODING 87
SWIDTH 417 0
DWIDTH 6 0
BBX 5 9 0 -1
BITMAP
D8
C8
C8
C8
E8
E8
D8
C8
88
ENDCHAR
STARTCHAR U+0058
ENCODING 88
SWIDTH 417 0
DWIDTH 6 0
BBX 5 9 0 -1
BITMAP
D8
C8
D0
70
20
70
58
98
D8
ENDCHAR
STARTCHAR U+0059
ENCODING 89
SWIDTH 417 0
DWIDTH 6 0
BBX 6 9 0 -1
BITMAP
EC
C8
68
70
30
30
30
30
78
ENDCHAR
STARTCHAR U+005A
ENCODING 90
SWIDTH 417 0
DWIDTH 6 0
BBX 5 9 0 -1
BITMAP
F8
98
B0
30
60
60
C8
D8
F8
ENDCHAR
STARTCHAR U+005B
ENCODING 91
SWIDTH 417 0
DWIDTH 6 0
BBX 4 10 1 -1
BITMAP
F0
C0
C0
C0
C0
C0
C0
C0
C0
F0
ENDCHAR
STARTCHAR U+005C
ENCODING 92
SWIDTH 417 0
DWIDTH 6 0
BBX 5 10 0 -1
BITMAP
80
80
40
40
20
20
10
10
08
08
ENDCHAR
STARTCHAR U+005D
ENCODING 93
SWIDTH 417 0
DWIDTH 6 0
BBX 4 10 1 -1
BITMAP
F0
30
30
30
30
30
30
30
30
F0
ENDCHAR
STARTCHAR U+005E
ENCODING 94
SWIDTH 417 0
DWIDTH 6 0
BBX 5 3 0 6
BITMAP
20
70
88
ENDCHAR
STARTCHAR U+005F
ENCODING 95
SWIDTH 417 0
DWIDTH 6 0
BBX 5 1 0 -1
BITMAP
F8
ENDCHAR
STARTCHAR U+0060
ENCODING 96
SWIDTH 417 0
DWIDTH 6 0
BBX 2 4 2 5
BITMAP
C0
C0
80
40
ENDCHAR
STARTCHAR U+0061
ENCODING 97
SWIDTH 417 0
DWIDTH 6 0
BBX 5 7 0 -1
BITMAP
70
D8
18
78
D8
D8
78
ENDCHAR
STARTCHAR U+0062
ENCODING 98
SWIDTH 417 0
DWIDTH 6 0
BBX 5 10 0 -1
BITMAP
C0
C0
C0
F0
D8
D8
D8
D8
D8
F0
ENDCHAR
STARTCHAR U+0063
ENCODING 99
SWIDTH 417 0
DWIDTH 6 0
BBX 5 7 0 -1
BITMAP
70
D8
C0
C0
C8
C8
70
ENDCHAR
STARTCHAR U+0064
ENCODING 100
SWIDTH 417 0
DWIDTH 6 0
BBX 6 10 0 -1
BITMAP
38
18
18
78
D8
D8
D8
D8
D8
7C
ENDCHAR
STARTCHAR U+0065
ENCODING 101
SWIDTH 417 0
DWIDTH 6 0
BBX 5 7 0 -1
BITMAP
70
D8
D8
F8
C0
C8
70
ENDCHAR
STARTCHAR U+0066
ENCODING 102
SWIDTH 417 0
DWIDTH 6 0
BBX 5 10 0 -1
BITMAP
38
58
60
F8
60
60
60
60
60
F0
ENDCHAR
STARTCHAR U+0067
ENCODING 103
SWIDTH 417 0
DWIDTH 6 0
BBX 5 9 0 -2
BITMAP
08
70
D8
D8
70
40
F8
D8
70
ENDCHAR
STARTCHAR U+0068
ENCODING 104
SWIDTH 417 0
DWIDTH 6 0
BBX 5 10 0 -1
BITMAP
C0
C0
C0
F0
D8
D8
D8
D8
D8
D8
ENDCHAR
STARTCHAR U+0069
ENCODING 105
SWIDTH 417 0
DWIDTH 6 0
BBX 4 10 1 -1
BITMAP
60
60
00
E0
60
60
60
60
60
F0
ENDCHAR
STARTCHAR U+006A
ENCODING 106
SWIDTH 417 0
DWIDTH 6 0
BBX 5 11 0 -2
BITMAP
18
18
00
38
18
18
18
D8
D8
D8
70
ENDCHAR
STARTCHAR U+006B
ENCODING 107
SWIDTH 417 0
DWIDTH 6 0
BBX 5 10 0 -1
BITMAP
C0
C0
C0
D8
D8
D0
F0
D8
D8
D8
ENDCHAR
STARTCHAR U+006C
ENCODING 108
SWIDTH 417 0
DWIDTH 6 0
BBX 4 10 1 -1
BITMAP
E0
60
60
60
60
60
60
60
60
F0
ENDCHAR
STARTCHAR U+006D
ENCODING 109
SWIDTH 417 0
DWIDTH 6 0
BBX 5 7 0 -1
BITMAP
F0
F8
F8
F8
F8
F8
A8
ENDCHAR
STARTCHAR U+006E
ENCODING 110
SWIDTH 417 0
DWIDTH 6 0
BBX 5 7 0 -1
BITMAP
F0
D8
D8
D8
D8
D8
D8
ENDCHAR
STARTCHAR U+006F
ENCODING 111
SWIDTH 417 0
DWIDTH 6 0
BBX 5 7 0 -1
BITMAP
70
D8
D8
D8
D8
D8
70
ENDCHAR
STARTCHAR U+0070
ENCODING 112
SWIDTH 417 0
DWIDTH 6 0
BBX 5 8 0 -2
BITMAP
F0
D8
D8
D8
D8
F0
C0
E0
ENDCHAR
STARTCHAR U+0071
ENCODING 113
SWIDTH 417 0
DWIDTH 6 0
BBX 5 8 0 -2
BITMAP
78
D8
D8
D8
D8
78
18
38
ENDCHAR
STARTCHAR U+0072
ENCODING 114
SWIDTH 417 0
DWIDTH 6 0
BBX 5 7 0 -1
BITMAP
F8
58
60
60
60
60
E0
ENDCHAR
STARTCHAR U+0073
ENCODING 115
SWIDTH 417 0
DWIDTH 6 0
BBX 5 7 0 -1
BITMAP
68
D8
C0
70
18
D8
B0
ENDCHAR
STARTCHAR U+0074
ENCODING 116
SWIDTH 417 0
DWIDTH 6 0
BBX 5 9 0 -1
BITMAP
60
60
F8
60
60
60
60
58
38
ENDCHAR
STARTCHAR U+0075
ENCODING 117
SWIDTH 417 0
DWIDTH 6 0
BBX 5 7 0 -1
BITMAP
D8
D8
D8
D8
D8
D8
78
ENDCHAR
STARTCHAR U+0076
ENCODING 118
SWIDTH 417 0
DWIDTH 6 0
BBX 5 7 0 -1
BITMAP
D8
C8
C8
50
70
20
20
ENDCHAR
STARTCHAR U+0077
ENCODING 119
SWIDTH 417 0
DWIDTH 6 0
BBX 5 7 0 -1
BITMAP
D8
C8
C8
C8
E8
D8
88
ENDCHAR
STARTCHAR U+0078
ENCODING 120
SWIDTH 417 0
DWIDTH 6 0
BBX 5 7 0 -1
BITMAP
D8
C8
70
20
70
98
D8
ENDCHAR
STARTCHAR U+0079
ENCODING 121
SWIDTH 417 0
DWIDTH 6 0
BBX 5 8 0 -2
BITMAP
D8
C8
48
70
30
20
E0
C0
ENDCHAR
STARTCHAR U+007A
ENCODING 122
SWIDTH 417 0
DWIDTH 6 0
BBX 5 7 0 -1
BITMAP
F8
B0
30
60
68
C8
F8
ENDCHAR
STARTCHAR U+007B
ENCODING 123
SWIDTH 417 0
DWIDTH 6 0
BBX 5 10 0 -1
BITMAP
18
30
30
30
E0
30
30
30
30
18
ENDCHAR
STARTCHAR U+007C
ENCODING 124
SWIDTH 417 0
DWIDTH 6 0
BBX 2 10 2 -1
BITMAP
C0
C0
C0
C0
C0
C0
C0
C0
C0
C0
ENDCHAR
STARTCHAR U+007D
ENCODING 125
SWIDTH 417 0
DWIDTH 6 0
BBX 5 10 0 -1
BITMAP
C0
60
60
60
38
60
60
60
60
C0
ENDCHAR
STARTCHAR U+007E
ENCODING 126
SWIDTH 417 0
DWIDTH 6 0
BBX 5 3 0 6
BITMAP
40
A8
10
ENDCHAR
STARTCHAR U+00A1
ENCODING 161
SWIDTH 417 0
DWIDTH 6 0
BBX 2 9 2 -1
BITMAP
C0
C0
00
00
C0
C0
C0
C0
C0
ENDCHAR
STARTCHAR U+00A2
ENCODING 162
SWIDTH 836 0
DWIDTH 12 0
BBX 7 10 2 -2
BITMAP
08
08
3C
4A
D6
D0
D0
54
38
20
ENDCHAR
STARTCHAR U+00A3
ENCODING 163
SWIDTH 836 0
DWIDTH 12 0
BBX 11 11 0 -2
BITMAP
0F80
10C0
30C0
3000
FF80
1800
0C00
3C00
4C20
5BE0
31C0
ENDCHAR
STARTCHAR U+00A4
ENCODING 164
SWIDTH 417 0
DWIDTH 6 0
BBX 5 6 0 0
BITMAP
D8
70
D8
D8
70
D8
ENDCHAR
STARTCHAR U+00A5
ENCODING 165
SWIDTH 417 0
DWIDTH 6 0
BBX 6 9 0 -1
BITMAP
DC
C8
70
FC
30
FC
30
30
78
ENDCHAR
STARTCHAR U+00A6
ENCODING 166
SWIDTH 417 0
DWIDTH 6 0
BBX 2 11 2 -2
BITMAP
C0
C0
C0
C0
C0
00
C0
C0
C0
C0
C0
ENDCHAR
STARTCHAR U+00A7
ENCODING 167
SWIDTH 836 0
DWIDTH 12 0
BBX 6 12 3 -2
BITMAP
78
8C
CC
70
58
8C
C4
78
18
CC
CC
78
ENDCHAR
STARTCHAR U+00A8
ENCODING 168
SWIDTH 836 0
DWIDTH 12 0
BBX 5 2 3 8
BITMAP
D8
D8
ENDCHAR
STARTCHAR U+00A9
ENCODING 169
SWIDTH 836 0
DWIDTH 12 0
BBX 8 9 2 -1
BITMAP
3C
42
99
A5
A1
A5
99
42
3C
ENDCHAR
STARTCHAR U+00AA
ENCODING 170
SWIDTH 417 0
DWIDTH 6 0
BBX 4 4 1 5
BITMAP
E0
70
B0
F0
ENDCHAR
STARTCHAR U+00AB
ENCODING 171
SWIDTH 417 0
DWIDTH 6 0
BBX 6 8 0 0
BITMAP
24
24
6C
D8
D8
6C
24
24
ENDCHAR
STARTCHAR U+00AC
ENCODING 172
SWIDTH 836 0
DWIDTH 12 0
BBX 8 4 2 1
BITMAP
FF
01
01
01
ENDCHAR
STARTCHAR U+00AD
ENCODING 173
SWIDTH 417 0
DWIDTH 6 0
BBX 5 1 0 4
BITMAP
F8
ENDCHAR
STARTCHAR U+00AE
ENCODING 174
SWIDTH 836 0
DWIDTH 12 0
BBX 8 9 2 -1
BITMAP
3C
42
B9
A5
B9
A5
A5
42
3C
ENDCHAR
STARTCHAR U+00AF
ENCODING 175
SWIDTH 417 0
DWIDTH 6 0
BBX 5 1 0 8
BITMAP
F8
ENDCHAR
STARTCHAR U+00B0
ENCODING 176
SWIDTH 836 0
DWIDTH 12 0
BBX 4 4 0 6
BITMAP
60
90
90
60
ENDCHAR
STARTCHAR U+00B1
ENCODING 177
SWIDTH 836 0
DWIDTH 12 0
BBX 9 9 1 0
BITMAP
0800
0800
0800
FF80
0800
0800
0800
0000
FF80
ENDCHAR
STARTCHAR U+00B2
ENCODING 178
SWIDTH 417 0
DWIDTH 6 0
BBX 4 5 1 5
BITMAP
60
B0
60
D0
F0
ENDCHAR
STARTCHAR U+00B3
ENCODING 179
SWIDTH 417 0
DWIDTH 6 0
BBX 4 5 1 5
BITMAP
E0
30
60
30
E0
ENDCHAR
STARTCHAR U+00B4
ENCODING 180
SWIDTH 836 0
DWIDTH 12 0
BBX 3 2 4 8
BITMAP
20
E0
ENDCHAR
STARTCHAR U+00B5
ENCODING 181
SWIDTH 417 0
DWIDTH 6 0
BBX 6 8 0 -2
BITMAP
D8
D8
D8
D8
D8
F4
C0
C0
ENDCHAR
STARTCHAR U+00B6
ENCODING 182
SWIDTH 836 0
DWIDTH 12 0
BBX 7 11 2 -2
BITMAP
7E
F2
F2
F2
72
12
12
12
12
12
12
ENDCHAR
STARTCHAR U+00B7
ENCODING 183
SWIDTH 417 0
DWIDTH 6 0
BBX 2 2 2 3
BITMAP
C0
C0
ENDCHAR
STARTCHAR U+00B8
ENCODING 184
SWIDTH 417 0
DWIDTH 6 0
BBX 3 4 1 -2
BITMAP
40
60
20
E0
ENDCHAR
STARTCHAR U+00B9
ENCODING 185
SWIDTH 417 0
DWIDTH 6 0
BBX 4 5 1 5
BITMAP
60
E0
60
60
F0
ENDCHAR
STARTCHAR U+00BA
ENCODING 186
SWIDTH 417 0
DWIDTH 6 0
BBX 4 5 1 5
BITMAP
60
B0
F0
D0
60
ENDCHAR
STARTCHAR U+00BB
ENCODING 187
SWIDTH 417 0
DWIDTH 6 0
BBX 6 8 0 0
BITMAP
90
90
D8
6C
6C
D8
90
90
ENDCHAR
STARTCHAR U+00BC
ENCODING 188
SWIDTH 417 0
DWIDTH 6 0
BBX 6 12 0 -2
BITMAP
40
C0
40
44
E8
10
20
54
94
1C
04
04
ENDCHAR
STARTCHAR U+00BD
ENCODING 189
SWIDTH 417 0
DWIDTH 6 0
BBX 6 12 0 -2
BITMAP
40
C0
40
44
E8
10
20
48
94
04
08
1C
ENDCHAR
STARTCHAR U+00BE
ENCODING 190
SWIDTH 417 0
DWIDTH 6 0
BBX 6 12 0 -2
BITMAP
C0
20
C0
24
C8
10
20
54
94
1C
04
04
ENDCHAR
STARTCHAR U+00BF
ENCODING 191
SWIDTH 417 0
DWIDTH 6 0
BBX 5 9 0 -1
BITMAP
30
30
00
30
60
C0
D8
D8
70
ENDCHAR
STARTCHAR U+00D7
ENCODING 215
SWIDTH 836 0
DWIDTH 12 0
BBX 7 7 2 1
BITMAP
82
44
28
10
28
44
82
ENDCHAR
STARTCHAR U+00E0
ENCODING 224
SWIDTH 417 0
DWIDTH 6 0
BBX 5 10 0 -1
BITMAP
E0
38
00
70
D8
18
78
D8
D8
78
ENDCHAR
STARTCHAR U+00E1
ENCODING 225
SWIDTH 417 0
DWIDTH 6 0
BBX 5 10 0 -1
BITMAP
38
E0
00
70
D8
18
78
D8
D8
78
ENDCHAR
STARTCHAR U+00E8
ENCODING 232
SWIDTH 417 0
DWIDTH 6 0
BBX 5 10 0 -1
BITMAP
E0
38
00
70
D8
D8
F8
C0
C8
70
ENDCHAR
STARTCHAR U+00E9
ENCODING 233
SWIDTH 417 0
DWIDTH 6 0
BBX 5 10 0 -1
BITMAP
38
E0
00
70
D8
D8
F8
C0
C8
70
ENDCHAR
STARTCHAR U+00EA
ENCODING 234
SWIDTH 417 0
DWIDTH 6 0
BBX 5 10 0 -1
BITMAP
70
D8
00
70
D8
D8
F8
C0
C8
70
ENDCHAR
STARTCHAR U+00EC
ENCODING 236
SWIDTH 417 0
DWIDTH 6 0
BBX 5 10 1 -1
BITMAP
E0
38
00
E0
60
60
60
60
60
F0
ENDCHAR
STARTCHAR U+00ED
ENCODING 237
SWIDTH 417 0
DWIDTH 6 0
BBX 5 10 1 -1
BITMAP
38
E0
00
E0
60
60
60
60
60
F0
ENDCHAR
STARTCHAR U+00F2
ENCODING 242
SWIDTH 417 0
DWIDTH 6 0
BBX 5 10 0 -1
BITMAP
E0
38
00
70
D8
D8
D8
D8
D8
70
ENDCHAR
STARTCHAR U+00F3
ENCODING 243
SWIDTH 417 0
DWIDTH 6 0
BBX 5 10 0 -1
BITMAP
38
E0
00
70
D8
D8
D8
D8
D8
70
ENDCHAR
STARTCHAR U+00F7
ENCODING 247
SWIDTH 836 0
DWIDTH 12 0
BBX 8 9 2 0
BITMAP
18
18
00
00
FF
00
00
18
18
ENDCHAR
STARTCHAR U+00F9
ENCODING 249
SWIDTH 417 0
DWIDTH 6 0
BBX 5 10 0 -1
BITMAP
E0
38
00
D8
D8
D8
D8
D8
D8
78
ENDCHAR
STARTCHAR U+00FA
ENCODING 250
SWIDTH 417 0
DWIDTH 6 0
BBX 5 10 0 -1
BITMAP
38
E0
00
D8
D8
D8
D8
D8
D8
78
ENDCHAR
STARTCHAR U+00FC
ENCODING 252
SWIDTH 417 0
DWIDTH 6 0
BBX 5 10 0 -1
BITMAP
D8
D8
00
D8
D8
D8
D8
D8
D8
78
ENDCHAR
STARTCHAR U+0101
ENCODING 257
SWIDTH 417 0
DWIDTH 6 0
BBX 5 9 0 -1
BITMAP
F8
00
70
D8
18
78
D8
D8
78
ENDCHAR
STARTCHAR U+0113
ENCODING 275
SWIDTH 417 0
DWIDTH 6 0
BBX 5 9 0 -1
BITMAP
F8
00
70
D8
D8
F8
C0
C8
70
ENDCHAR
STARTCHAR U+011B
ENCODING 283
SWIDTH 417 0
DWIDTH 6 0
BBX 5 10 0 -1
BITMAP
D8
70
00
70
D8
D8
F8
C0
C8
70
ENDCHAR
STARTCHAR U+012B
ENCODING 299
SWIDTH 417 0
DWIDTH 6 0
BBX 5 9 1 -1
BITMAP
F8
00
E0
60
60
60
60
60
F0
ENDCHAR
STARTCHAR U+0131
ENCODING 305
SWIDTH 417 0
DWIDTH 6 0
BBX 4 7 1 -1
BITMAP
E0
60
60
60
60
60
F0
ENDCHAR
STARTCHAR U+014D
ENCODING 333
SWIDTH 417 0
DWIDTH 6 0
BBX 5 9 0 -1
BITMAP
F8
00
70
D8
D8
D8
D8
D8
70
ENDCHAR
STARTCHAR U+016B
ENCODING 363
SWIDTH 417 0
DWIDTH 6 0
BBX 5 9 0 -1
BITMAP
F8
00
D8
D8
D8
D8
D8
D8
78
ENDCHAR
STARTCHAR U+017F
ENCODING 383
SWIDTH 417 0
DWIDTH 6 0
BBX 5 10 0 -1
BITMAP
38
58
60
E0
60
60
60
60
60
F0
ENDCHAR
STARTCHAR U+01CE
ENCODING 462
SWIDTH 417 0
DWIDTH 6 0
BBX 5 10 0 -1
BITMAP
D8
70
00
70
D8
18
78
D8
D8
78
ENDCHAR
STARTCHAR U+01D0
ENCODING 464
SWIDTH 417 0
DWIDTH 6 0
BBX 5 10 1 -1
BITMAP
D8
70
00
E0
60
60
60
60
60
F0
ENDCHAR
STARTCHAR U+01D2
ENCODING 466
SWIDTH 417 0
DWIDTH 6 0
BBX 5 10 0 -1
BITMAP
D8
70
00
70
D8
D8
D8
D8
D8
70
ENDCHAR
STARTCHAR U+01D4
ENCODING 468
SWIDTH 417 0
DWIDTH 6 0
BBX 5 10 0 -1
BITMAP
D8
70
00
D8
D8
D8
D8
D8
D8
78
ENDCHAR
STARTCHAR U+01D6
ENCODING 470
SWIDTH 417 0
DWIDTH 6 0
BBX 5 10 0 -1
BITMAP
F8
00
D8
D8
00
D8
D8
D8
D8
78
ENDCHAR
STARTCHAR U+01D8
ENCODING 472
SWIDTH 417 0
DWIDTH 6 0
BBX 5 11 0 -1
BITMAP
38
E0
00
D8
D8
00
D8
D8
D8
D8
78
ENDCHAR
STARTCHAR U+01DA
ENCODING 474
SWIDTH 417 0
DWIDTH 6 0
BBX 5 11 0 -1
BITMAP
D8
70
00
D8
D8
00
D8
D8
D8
D8
78
ENDCHAR
STARTCHAR U+01DC
ENCODING 476
SWIDTH 417 0
DWIDTH 6 0
BBX 5 11 0 -1
BITMAP
E0
38
00
D8
D8
00
D8
D8
D8
D8
78
ENDCHAR
STARTCHAR U+0237
ENCODING 567
SWIDTH 417 0
DWIDTH 6 0
BBX 5 8 0 -2
BITMAP
38
18
18
18
D8
D8
D8
70
ENDCHAR
STARTCHAR U+02C7
ENCODING 711
SWIDTH 417 0
DWIDTH 6 0
BBX 5 3 0 6
BITMAP
88
70
20
ENDCHAR
STARTCHAR U+02C9
ENCODING 713
SWIDTH 417 0
DWIDTH 6 0
BBX 6 1 0 8
BITMAP
FC
ENDCHAR
STARTCHAR U+02CA
ENCODING 714
SWIDTH 417 0
DWIDTH 6 0
BBX 4 3 1 7
BITMAP
10
60
C0
ENDCHAR
STARTCHAR U+02CB
ENCODING 715
SWIDTH 417 0
DWIDTH 6 0
BBX 4 3 1 7
BITMAP
C0
60
10
ENDCHAR
STARTCHAR U+02D9
ENCODING 729
SWIDTH 417 0
DWIDTH 6 0
BBX 2 2 2 8
BITMAP
C0
C0
ENDCHAR
STARTCHAR U+0391
ENCODING 913
SWIDTH 836 0
DWIDTH 12 0
BBX 9 9 1 -1
BITMAP
0800
0800
1C00
1400
2600
3E00
4300
4300
E780
ENDCHAR
STARTCHAR U+0392
ENCODING 914
SWIDTH 836 0
DWIDTH 12 0
BBX 8 9 2 -1
BITMAP
FC
66
66
7C
62
63
63
62
FC
ENDCHAR
STARTCHAR U+0393
ENCODING 915
SWIDTH 836 0
DWIDTH 12 0
BBX 8 9 2 -1
BITMAP
FF
61
61
60
60
60
60
60
F0
ENDCHAR
STARTCHAR U+0394
ENCODING 916
SWIDTH 836 0
DWIDTH 12 0
BBX 9 9 1 -1
BITMAP
0800
0800
1C00
1400
2600
2200
4300
7F00
FF80
ENDCHAR
STARTCHAR U+0395
ENCODING 917
SWIDTH 836 0
DWIDTH 12 0
BBX 8 9 2 -1
BITMAP
FF
61
64
7C
64
64
61
61
FF
ENDCHAR
STARTCHAR U+0396
ENCODING 918
SWIDTH 836 0
DWIDTH 12 0
BBX 8 9 2 -1
BITMAP
FE
86
8C
18
18
30
61
C1
FF
ENDCHAR
STARTCHAR U+0397
ENCODING 919
SWIDTH 836 0
DWIDTH 12 0
BBX 9 9 1 -1
BITMAP
F780
6300
6300
7F00
6300
6300
6300
6300
F780
ENDCHAR
STARTCHAR U+0398
ENCODING 920
SWIDTH 836 0
DWIDTH 12 0
BBX 8 9 2 -1
BITMAP
3C
42
C3
C3
FF
C3
C3
42
3C
ENDCHAR
STARTCHAR U+0399
ENCODING 921
SWIDTH 836 0
DWIDTH 12 0
BBX 4 9 4 -1
BITMAP
F0
60
60
60
60
60
60
60
F0
ENDCHAR
STARTCHAR U+039A
ENCODING 922
SWIDTH 836 0
DWIDTH 12 0
BBX 9 9 2 -1
BITMAP
F700
6400
6800
7000
6800
6C00
6600
6300
F780
ENDCHAR
STARTCHAR U+039B
ENCODING 923
SWIDTH 836 0
DWIDTH 12 0
BBX 9 9 1 -1
BITMAP
0800
0800
1C00
1400
2600
2600
4300
4300
E780
ENDCHAR
STARTCHAR U+039C
ENCODING 924
SWIDTH 836 0
DWIDTH 12 0
BBX 10 9 1 -1
BITMAP
C1C0
6380
6380
7580
5D80
5980
4980
4180
E3C0
ENDCHAR
STARTCHAR U+039D
ENCODING 925
SWIDTH 836 0
DWIDTH 12 0
BBX 9 9 1 -1
BITMAP
E780
6100
7100
5900
4900
4D00
4700
4300
E100
ENDCHAR
STARTCHAR U+039E
ENCODING 926
SWIDTH 836 0
DWIDTH 12 0
BBX 10 9 1 -1
BITMAP
3FC0
7F80
4080
2100
3F00
2100
4080
7F80
FF00
ENDCHAR
STARTCHAR U+039F
ENCODING 927
SWIDTH 836 0
DWIDTH 12 0
BBX 8 9 2 -1
BITMAP
3C
42
C3
C3
C3
C3
C3
42
3C
ENDCHAR
STARTCHAR U+03A0
ENCODING 928
SWIDTH 836 0
DWIDTH 12 0
BBX 9 9 1 -1
BITMAP
FF80
6300
6300
6300
6300
6300
6300
6300
F780
ENDCHAR
STARTCHAR U+03A1
ENCODING 929
SWIDTH 836 0
DWIDTH 12 0
BBX 8 9 2 -1
BITMAP
FE
63
63
63
7E
60
60
60
F0
ENDCHAR
STARTCHAR U+03A3
ENCODING 931
SWIDTH 836 0
DWIDTH 12 0
BBX 8 9 2 -1
BITMAP
FF
61
30
18
0C
10
21
7F
FF
ENDCHAR
STARTCHAR U+03A4
ENCODING 932
SWIDTH 836 0
DWIDTH 12 0
BBX 10 9 1 -1
BITMAP
FFC0
8C40
8C40
0C00
0C00
0C00
0C00
0C00
1E00
ENDCHAR
STARTCHAR U+03A5
ENCODING 933
SWIDTH 836 0
DWIDTH 12 0
BBX 10 9 1 -1
BITMAP
7380
9E40
0C00
0C00
0C00
0C00
0C00
0C00
1E00
ENDCHAR
STARTCHAR U+03A6
ENCODING 934
SWIDTH 836 0
DWIDTH 12 0
BBX 8 9 2 -1
BITMAP
3C
18
7E
DB
DB
DB
7E
18
3C
ENDCHAR
STARTCHAR U+03A7
ENCODING 935
SWIDTH 836 0
DWIDTH 12 0
BBX 9 9 1 -1
BITMAP
F380
6100
3200
1C00
0800
1C00
2600
4300
E780
ENDCHAR
STARTCHAR U+03A8
ENCODING 936
SWIDTH 836 0
DWIDTH 12 0
BBX 10 9 1 -1
BITMAP
1E00
CCC0
EDC0
2D00
2D00
1E00
0C00
0C00
1E00
ENDCHAR
STARTCHAR U+03A9
ENCODING 937
SWIDTH 836 0
DWIDTH 12 0
BBX 8 9 2 -1
BITMAP
3C
42
C3
C3
C3
66
A5
E7
E7
ENDCHAR
STARTCHAR U+03B1
ENCODING 945
SWIDTH 836 0
DWIDTH 12 0
BBX 8 6 2 -1
BITMAP
19
2D
4E
C8
DA
66
ENDCHAR
STARTCHAR U+03B2
ENCODING 946
SWIDTH 836 0
DWIDTH 12 0
BBX 8 10 2 -2
BITMAP
0E
13
32
2C
26
66
64
58
C0
C0
ENDCHAR
STARTCHAR U+03B3
ENCODING 947
SWIDTH 836 0
DWIDTH 12 0
BBX 7 7 3 -2
BITMAP
66
BA
10
30
20
60
60
ENDCHAR
STARTCHAR U+03B4
ENCODING 948
SWIDTH 836 0
DWIDTH 12 0
BBX 7 9 3 -1
BITMAP
18
2E
16
38
4C
C4
8C
C8
70
ENDCHAR
STARTCHAR U+03B5
ENCODING 949
SWIDTH 836 0
DWIDTH 12 0
BBX 7 6 3 -1
BITMAP
3C
62
38
40
E4
78
ENDCHAR
STARTCHAR U+03B6
ENCODING 950
SWIDTH 836 0
DWIDTH 12 0
BBX 6 10 3 -2
BITMAP
30
4C
38
20
40
C0
F0
78
48
70
ENDCHAR
STARTCHAR U+03B7
ENCODING 951
SWIDTH 836 0
DWIDTH 12 0
BBX 6 7 3 -2
BITMAP
D8
24
44
CC
C8
98
18
ENDCHAR
STARTCHAR U+03B8
ENCODING 952
SWIDTH 836 0
DWIDTH 12 0
BBX 6 9 3 -1
BITMAP
18
24
44
7C
CC
88
98
D0
60
ENDCHAR
STARTCHAR U+03B9
ENCODING 953
SWIDTH 836 0
DWIDTH 12 0
BBX 5 6 4 -1
BITMAP
60
60
C0
88
B0
60
ENDCHAR
STARTCHAR U+03BA
ENCODING 954
SWIDTH 836 0
DWIDTH 12 0
BBX 6 6 3 -1
BITMAP
6C
54
70
D0
D4
98
ENDCHAR
STARTCHAR U+03BB
ENCODING 955
SWIDTH 836 0
DWIDTH 12 0
BBX 7 9 3 -1
BITMAP
60
70
10
10
10
28
48
CC
86
ENDCHAR
STARTCHAR U+03BC
ENCODING 956
SWIDTH 836 0
DWIDTH 12 0
BBX 9 7 1 -2
BITMAP
1100
3300
2200
2200
2680
5900
C000
ENDCHAR
STARTCHAR U+03BD
ENCODING 957
SWIDTH 836 0
DWIDTH 12 0
BBX 7 6 3 -1
BITMAP
82
C4
48
70
E0
80
ENDCHAR
STARTCHAR U+03BE
ENCODING 958
SWIDTH 836 0
DWIDTH 12 0
BBX 6 10 3 -2
BITMAP
38
40
3C
40
7C
88
F0
78
48
70
ENDCHAR
STARTCHAR U+03BF
ENCODING 959
SWIDTH 836 0
DWIDTH 12 0
BBX 6 6 3 -1
BITMAP
38
4C
CC
88
C8
70
ENDCHAR
STARTCHAR U+03C0
ENCODING 960
SWIDTH 836 0
DWIDTH 12 0
BBX 9 7 1 -1
BITMAP
0080
7F80
FF00
3400
2C00
6900
4600
ENDCHAR
STARTCHAR U+03C1
ENCODING 961
SWIDTH 836 0
DWIDTH 12 0
BBX 7 7 2 -2
BITMAP
1C
26
26
64
58
40
C0
ENDCHAR
STARTCHAR U+03C2
ENCODING 962
SWIDTH 836 0
DWIDTH 12 0
BBX 6 7 3 -2
BITMAP
74
CC
80
C0
30
10
60
ENDCHAR
STARTCHAR U+03C3
ENCODING 963
SWIDTH 836 0
DWIDTH 12 0
BBX 7 7 3 -1
BITMAP
02
3E
7C
D0
98
D0
60
ENDCHAR
STARTCHAR U+03C4
ENCODING 964
SWIDTH 836 0
DWIDTH 12 0
BBX 8 7 2 -1
BITMAP
01
7F
FE
98
30
34
18
ENDCHAR
STARTCHAR U+03C5
ENCODING 965
SWIDTH 836 0
DWIDTH 12 0
BBX 6 6 3 -1
BITMAP
68
64
4C
C8
90
60
ENDCHAR
STARTCHAR U+03C6
ENCODING 966
SWIDTH 836 0
DWIDTH 12 0
BBX 7 10 3 -2
BITMAP
08
18
10
7C
D6
96
A4
78
20
60
ENDCHAR
STARTCHAR U+03C7
ENCODING 967
SWIDTH 836 0
DWIDTH 12 0
BBX 7 7 3 -2
BITMAP
66
B4
18
30
50
DA
8C
ENDCHAR
STARTCHAR U+03C8
ENCODING 968
SWIDTH 836 0
DWIDTH 12 0
BBX 7 10 3 -2
BITMAP
08
18
10
D6
52
A2
AC
70
60
40
ENDCHAR
STARTCHAR U+03C9
ENCODING 969
SWIDTH 836 0
DWIDTH 12 0
BBX 8 6 2 -1
BITMAP
22
43
D9
93
D2
6C
ENDCHAR
STARTCHAR U+0401
ENCODING 1025
SWIDTH 836 0
DWIDTH 12 0
BBX 8 11 2 -1
BITMAP
36
36
FF
61
62
7E
62
60
61
61
FF
ENDCHAR
STARTCHAR U+0410
ENCODING 1040
SWIDTH 836 0
DWIDTH 12 0
BBX 9 9 1 -1
BITMAP
0800
0800
1C00
1400
2600
3E00
4300
4300
E780
ENDCHAR
STARTCHAR U+0411
ENCODING 1041
SWIDTH 836 0
DWIDTH 12 0
BBX 8 9 2 -1
BITMAP
FE
62
60
7C
62
63
63
62
FC
ENDCHAR
STARTCHAR U+0412
ENCODING 1042
SWIDTH 836 0
DWIDTH 12 0
BBX 8 9 2 -1
BITMAP
FC
66
66
7C
62
63
63
62
FC
ENDCHAR
STARTCHAR U+0413
ENCODING 1043
SWIDTH 836 0
DWIDTH 12 0
BBX 7 9 2 -1
BITMAP
FE
62
62
60
60
60
60
60
F8
ENDCHAR
STARTCHAR U+0414
ENCODING 1044
SWIDTH 836 0
DWIDTH 12 0
BBX 8 10 2 -2
BITMAP
7F
26
26
26
26
26
26
46
FF
81
ENDCHAR
STARTCHAR U+0415
ENCODING 1045
SWIDTH 836 0
DWIDTH 12 0
BBX 8 9 2 -1
BITMAP
FF
61
62
7E
62
60
61
61
FF
ENDCHAR
STARTCHAR U+0416
ENCODING 1046
SWIDTH 836 0
DWIDTH 12 0
BBX 10 9 1 -1
BITMAP
DEC0
CCC0
2D00
3F00
2D80
4D80
4CC0
4CC0
DEC0
ENDCHAR
STARTCHAR U+0417
ENCODING 1047
SWIDTH 836 0
DWIDTH 12 0
BBX 7 9 2 -1
BITMAP
7C
C6
86
3C
04
06
86
C4
78
ENDCHAR
STARTCHAR U+0418
ENCODING 1048
SWIDTH 836 0
DWIDTH 12 0
BBX 9 9 1 -1
BITMAP
F780
6300
6700
6B00
6B00
7300
6300
6300
F780
ENDCHAR
STARTCHAR U+0419
ENCODING 1049
SWIDTH 836 0
DWIDTH 12 0
BBX 9 11 1 -1
BITMAP
3600
1C00
F780
6300
6700
6B00
6B00
7300
6300
6300
F780
ENDCHAR
STARTCHAR U+041A
ENCODING 1050
SWIDTH 836 0
DWIDTH 12 0
BBX 9 9 2 -1
BITMAP
F600
6B00
6800
7000
6C00
6600
6600
6300
F780
ENDCHAR
STARTCHAR U+041B
ENCODING 1051
SWIDTH 836 0
DWIDTH 12 0
BBX 9 9 1 -1
BITMAP
1F80
0B00
0B00
0B00
0B00
0B00
D300
D300
6780
ENDCHAR
STARTCHAR U+041C
ENCODING 1052
SWIDTH 836 0
DWIDTH 12 0
BBX 11 9 0 -1
BITMAP
61C0
3180
3180
3B80
2B80
4CC0
4CC0
40C0
E1E0
ENDCHAR
STARTCHAR U+041D
ENCODING 1053
SWIDTH 836 0
DWIDTH 12 0
BBX 9 9 1 -1
BITMAP
F780
6300
6300
7F00
6300
6300
6300
6300
F780
ENDCHAR
STARTCHAR U+041E
ENCODING 1054
SWIDTH 836 0
DWIDTH 12 0
BBX 8 9 2 -1
BITMAP
3C
42
C3
C3
C3
C3
C3
42
3C
ENDCHAR
STARTCHAR U+041F
ENCODING 1055
SWIDTH 836 0
DWIDTH 12 0
BBX 9 9 1 -1
BITMAP
FF80
6300
6300
6300
6300
6300
6300
6300
F780
ENDCHAR
STARTCHAR U+0420
ENCODING 1056
SWIDTH 836 0
DWIDTH 12 0
BBX 8 9 2 -1
BITMAP
FE
63
63
63
7E
60
60
60
F0
ENDCHAR
STARTCHAR U+0421
ENCODING 1057
SWIDTH 836 0
DWIDTH 12 0
BBX 8 9 2 -1
BITMAP
3E
63
C1
C0
C0
C0
C1
43
3C
ENDCHAR
STARTCHAR U+0422
ENCODING 1058
SWIDTH 836 0
DWIDTH 12 0
BBX 10 9 1 -1
BITMAP
FFC0
8C40
8C40
0C00
0C00
0C00
0C00
0C00
1E00
ENDCHAR
STARTCHAR U+0423
ENCODING 1059
SWIDTH 836 0
DWIDTH 12 0
BBX 8 9 2 -1
BITMAP
F7
62
32
34
14
18
08
70
60
ENDCHAR
STARTCHAR U+0424
ENCODING 1060
SWIDTH 836 0
DWIDTH 12 0
BBX 8 9 2 -1
BITMAP
3C
18
7E
DB
DB
DB
7E
18
3C
ENDCHAR
STARTCHAR U+0425
ENCODING 1061
SWIDTH 836 0
DWIDTH 12 0
BBX 9 9 1 -1
BITMAP
F380
6100
3200
1C00
0800
1C00
2600
4300
E780
ENDCHAR
STARTCHAR U+0426
ENCODING 1062
SWIDTH 836 0
DWIDTH 12 0
BBX 9 10 1 -2
BITMAP
F780
6300
6300
6300
6300
6300
6300
6300
FF80
0080
ENDCHAR
STARTCHAR U+0427
ENCODING 1063
SWIDTH 836 0
DWIDTH 12 0
BBX 9 9 1 -1
BITMAP
F780
6300
6300
6300
6700
3B00
0300
0300
0780
ENDCHAR
STARTCHAR U+0428
ENCODING 1064
SWIDTH 836 0
DWIDTH 12 0
BBX 10 9 1 -1
BITMAP
FFC0
6D80
6D80
6D80
6D80
6D80
6D80
6D80
FFC0
ENDCHAR
STARTCHAR U+0429
ENCODING 1065
SWIDTH 836 0
DWIDTH 12 0
BBX 10 10 1 -2
BITMAP
FFC0
6D80
6D80
6D80
6D80
6D80
6D80
6D80
FFC0
0040
ENDCHAR
STARTCHAR U+042A
ENCODING 1066
SWIDTH 836 0
DWIDTH 12 0
BBX 8 9 2 -1
BITMAP
F0
B0
30
3E
33
33
33
33
7E
ENDCHAR
STARTCHAR U+042B
ENCODING 1067
SWIDTH 836 0
DWIDTH 12 0
BBX 10 9 1 -1
BITMAP
F3C0
6180
6180
7980
6D80
6D80
6D80
6D80
FBC0
ENDCHAR
STARTCHAR U+042C
ENCODING 1068
SWIDTH 836 0
DWIDTH 12 0
BBX 8 9 2 -1
BITMAP
F0
60
60
7C
62
63
63
62
FC
ENDCHAR
STARTCHAR U+042D
ENCODING 1069
SWIDTH 836 0
DWIDTH 12 0
BBX 7 9 3 -1
BITMAP
78
C4
06
6E
B6
06
86
C4
78
ENDCHAR
STARTCHAR U+042E
ENCODING 1070
SWIDTH 836 0
DWIDTH 12 0
BBX 10 9 1 -1
BITMAP
F300
6480
6CC0
7CC0
6CC0
6CC0
6CC0
6480
F300
ENDCHAR
STARTCHAR U+042F
ENCODING 1071
SWIDTH 836 0
DWIDTH 12 0
BBX 9 9 1 -1
BITMAP
1F80
3300
3300
3300
1F00
1B00
1B00
3300
C780
ENDCHAR
STARTCHAR U+0430
ENCODING 1072
SWIDTH 836 0
DWIDTH 12 0
BBX 6 6 3 -1
BITMAP
70
18
78
D8
D8
7C
ENDCHAR
STARTCHAR U+0431
ENCODING 1073
SWIDTH 836 0
DWIDTH 12 0
BBX 6 10 3 -1
BITMAP
04
3C
78
80
B0
C8
8C
CC
48
30
ENDCHAR
STARTCHAR U+0432
ENCODING 1074
SWIDTH 836 0
DWIDTH 12 0
BBX 7 6 2 -1
BITMAP
FC
66
7C
66
66
FC
ENDCHAR
STARTCHAR U+0433
ENCODING 1075
SWIDTH 836 0
DWIDTH 12 0
BBX 7 6 2 -1
BITMAP
FE
62
60
60
60
F8
ENDCHAR
STARTCHAR U+0434
ENCODING 1076
SWIDTH 836 0
DWIDTH 12 0
BBX 7 7 2 -2
BITMAP
7E
2C
2C
2C
4C
FE
82
ENDCHAR
STARTCHAR U+0435
ENCODING 1077
SWIDTH 836 0
DWIDTH 12 0
BBX 6 6 3 -1
BITMAP
78
CC
FC
C0
C4
78
ENDCHAR
STARTCHAR U+0436
ENCODING 1078
SWIDTH 836 0
DWIDTH 12 0
BBX 10 6 1 -1
BITMAP
DEC0
4C80
3F00
4C80
4C80
DEC0
ENDCHAR
STARTCHAR U+0437
ENCODING 1079
SWIDTH 836 0
DWIDTH 12 0
BBX 6 6 3 -1
BITMAP
78
CC
38
8C
CC
78
ENDCHAR
STARTCHAR U+0438
ENCODING 1080
SWIDTH 836 0
DWIDTH 12 0
BBX 8 6 2 -1
BITMAP
F7
66
6E
76
66
EF
ENDCHAR
STARTCHAR U+0439
ENCODING 1081
SWIDTH 836 0
DWIDTH 12 0
BBX 8 9 2 -1
BITMAP
36
1C
00
F7
66
6E
76
66
EF
ENDCHAR
STARTCHAR U+043A
ENCODING 1082
SWIDTH 836 0
DWIDTH 12 0
BBX 8 6 2 -1
BITMAP
F6
6B
70
6C
66
F7
ENDCHAR
STARTCHAR U+043B
ENCODING 1083
SWIDTH 836 0
DWIDTH 12 0
BBX 8 6 2 -1
BITMAP
3F
16
16
D6
D6
6F
ENDCHAR
STARTCHAR U+043C
ENCODING 1084
SWIDTH 836 0
DWIDTH 12 0
BBX 8 6 2 -1
BITMAP
C7
6E
76
56
46
EF
ENDCHAR
STARTCHAR U+043D
ENCODING 1085
SWIDTH 836 0
DWIDTH 12 0
BBX 9 6 1 -1
BITMAP
F780
6300
7F00
6300
6300
F780
ENDCHAR
STARTCHAR U+043E
ENCODING 1086
SWIDTH 836 0
DWIDTH 12 0
BBX 6 6 3 -1
BITMAP
78
CC
CC
CC
CC
78
ENDCHAR
STARTCHAR U+043F
ENCODING 1087
SWIDTH 836 0
DWIDTH 12 0
BBX 8 6 2 -1
BITMAP
FF
66
66
66
66
EF
ENDCHAR
STARTCHAR U+0440
ENCODING 1088
SWIDTH 836 0
DWIDTH 12 0
BBX 7 7 2 -2
BITMAP
FC
66
66
66
7C
60
F0
ENDCHAR
STARTCHAR U+0441
ENCODING 1089
SWIDTH 836 0
DWIDTH 12 0
BBX 6 6 3 -1
BITMAP
78
CC
C0
C4
C4
78
ENDCHAR
STARTCHAR U+0442
ENCODING 1090
SWIDTH 836 0
DWIDTH 12 0
BBX 8 6 2 -1
BITMAP
FF
99
18
18
18
3C
ENDCHAR
STARTCHAR U+0443
ENCODING 1091
SWIDTH 836 0
DWIDTH 12 0
BBX 8 7 2 -2
BITMAP
F7
62
34
18
08
70
60
ENDCHAR
STARTCHAR U+0444
ENCODING 1092
SWIDTH 836 0
DWIDTH 12 0
BBX 10 11 1 -2
BITMAP
0C00
1C00
0C00
0C00
6D80
DEC0
CCC0
DEC0
6D80
0C00
1E00
ENDCHAR
STARTCHAR U+0445
ENCODING 1093
SWIDTH 836 0
DWIDTH 12 0
BBX 7 6 2 -1
BITMAP
EE
64
38
38
4C
EE
ENDCHAR
STARTCHAR U+0446
ENCODING 1094
SWIDTH 836 0
DWIDTH 12 0
BBX 8 7 2 -2
BITMAP
EF
66
66
66
66
FF
01
ENDCHAR
STARTCHAR U+0447
ENCODING 1095
SWIDTH 836 0
DWIDTH 12 0
BBX 8 6 2 -1
BITMAP
EF
66
66
3E
06
0F
ENDCHAR
STARTCHAR U+0448
ENCODING 1096
SWIDTH 836 0
DWIDTH 12 0
BBX 10 6 1 -1
BITMAP
FFC0
6D80
6D80
6D80
6D80
FFC0
ENDCHAR
STARTCHAR U+0449
ENCODING 1097
SWIDTH 836 0
DWIDTH 12 0
BBX 10 7 1 -2
BITMAP
FFC0
6D80
6D80
6D80
6D80
FFC0
0040
ENDCHAR
STARTCHAR U+044A
ENCODING 1098
SWIDTH 836 0
DWIDTH 12 0
BBX 8 6 2 -1
BITMAP
F0
B0
3E
33
33
7E
ENDCHAR
STARTCHAR U+044B
ENCODING 1099
SWIDTH 836 0
DWIDTH 12 0
BBX 10 6 1 -1
BITMAP
F3C0
6180
7980
6D80
6D80
FBC0
ENDCHAR
STARTCHAR U+044C
ENCODING 1100
SWIDTH 836 0
DWIDTH 12 0
BBX 7 6 2 -1
BITMAP
F0
60
7C
66
66
FC
ENDCHAR
STARTCHAR U+044D
ENCODING 1101
SWIDTH 836 0
DWIDTH 12 0
BBX 6 6 3 -1
BITMAP
78
CC
3C
5C
8C
78
ENDCHAR
STARTCHAR U+044E
ENCODING 1102
SWIDTH 836 0
DWIDTH 12 0
BBX 9 6 1 -1
BITMAP
F700
6D80
7D80
6D80
6D80
F700
ENDCHAR
STARTCHAR U+044F
ENCODING 1103
SWIDTH 836 0
DWIDTH 12 0
BBX 8 6 1 -1
BITMAP
3F
66
3E
36
26
CF
ENDCHAR
STARTCHAR U+0451
ENCODING 1105
SWIDTH 836 0
DWIDTH 12 0
BBX 6 9 3 -1
BITMAP
6C
6C
00
78
CC
FC
C0
C4
78
ENDCHAR
STARTCHAR U+2010
ENCODING 8208
SWIDTH 836 0
DWIDTH 12 0
BBX 4 1 4 4
BITMAP
F0
ENDCHAR
STARTCHAR U+2015
ENCODING 8213
SWIDTH 836 0
DWIDTH 12 0
BBX 12 1 0 4
BITMAP
FFF0
ENDCHAR
STARTCHAR U+2016
ENCODING 8214
SWIDTH 836 0
DWIDTH 12 0
BBX 4 12 4 -2
BITMAP
90
90
90
90
90
90
90
90
90
90
90
90
ENDCHAR
STARTCHAR U+2018
ENCODING 8216
SWIDTH 836 0
DWIDTH 12 0
BBX 2 4 9 6
BITMAP
40
80
C0
C0
ENDCHAR
STARTCHAR U+2019
ENCODING 8217
SWIDTH 836 0
DWIDTH 12 0
BBX 2 4 1 6
BITMAP
C0
C0
40
80
ENDCHAR
STARTCHAR U+201C
ENCODING 8220
SWIDTH 836 0
DWIDTH 12 0
BBX 5 4 6 6
BITMAP
48
90
D8
D8
ENDCHAR
STARTCHAR U+201D
ENCODING 8221
SWIDTH 836 0
DWIDTH 12 0
BBX 5 4 1 6
BITMAP
D8
D8
48
90
ENDCHAR
STARTCHAR U+2020
ENCODING 8224
SWIDTH 836 0
DWIDTH 12 0
BBX 7 12 2 -2
BITMAP
10
38
10
54
FE
54
38
38
10
10
10
10
ENDCHAR
STARTCHAR U+2021
ENCODING 8225
SWIDTH 836 0
DWIDTH 12 0
BBX 7 12 2 -2
BITMAP
10
38
54
FE
54
38
38
54
FE
54
38
10
ENDCHAR
STARTCHAR U+2025
ENCODING 8229
SWIDTH 836 0
DWIDTH 12 0
BBX 10 2 1 3
BITMAP
C0C0
C0C0
ENDCHAR
STARTCHAR U+2026
ENCODING 8230
SWIDTH 836 0
DWIDTH 12 0
BBX 12 2 0 3
BITMAP
C630
C630
ENDCHAR
STARTCHAR U+2030
ENCODING 8240
SWIDTH 836 0
DWIDTH 12 0
BBX 12 12 0 -2
BITMAP
6040
D080
D100
B200
B400
6800
1C60
3AD0
5AD0
96B0
16B0
0C60
ENDCHAR
STARTCHAR U+2031
ENCODING 8241
SWIDTH 836 0
DWIDTH 12 0
BBX 12 12 0 -2
BITMAP
6040
D080
D100
B200
B400
6800
1B60
36D0
76D0
ADB0
2DB0
1B60
ENDCHAR
STARTCHAR U+2032
ENCODING 8242
SWIDTH 836 0
DWIDTH 12 0
BBX 4 4 0 6
BITMAP
30
60
40
80
ENDCHAR
STARTCHAR U+2033
ENCODING 8243
SWIDTH 836 0
DWIDTH 12 0
BBX 7 4 0 6
BITMAP
36
6C
48
90
ENDCHAR
STARTCHAR U+2034
ENCODING 8244
SWIDTH 836 0
DWIDTH 12 0
BBX 10 4 0 6
BITMAP
36C0
6D80
4900
9200
ENDCHAR
STARTCHAR U+203B
ENCODING 8251
SWIDTH 836 0
DWIDTH 12 0
BBX 10 10 1 -1
BITMAP
8C40
4C80
2100
1200
CCC0
CCC0
1200
2100
4C80
8C40
ENDCHAR
STARTCHAR U+203C
ENCODING 8252
SWIDTH 836 0
DWIDTH 12 0
BBX 7 12 2 -2
BITMAP
44
EE
EE
44
44
44
44
44
00
00
66
66
ENDCHAR
STARTCHAR U+203D
ENCODING 8253
SWIDTH 836 0
DWIDTH 12 0
BBX 9 12 1 -2
BITMAP
0800
3E00
5D00
C980
EB80
6F00
0E00
0C00
0800
0000
0C00
0C00
ENDCHAR
STARTCHAR U+203E
ENCODING 8254
SWIDTH 836 0
DWIDTH 12 0
BBX 5 1 0 8
BITMAP
F8
ENDCHAR
STARTCHAR U+2047
ENCODING 8263
SWIDTH 836 0
DWIDTH 12 0
BBX 12 11 0 -2
BITMAP
30C0
4920
CF30
6DB0
1860
1040
2080
2080
0000
6180
6180
ENDCHAR
STARTCHAR U+2048
ENCODING 8264
SWIDTH 836 0
DWIDTH 12 0
BBX 11 12 0 -2
BITMAP
0040
38E0
44E0
C640
6640
0C40
0840
1040
1000
0000
3060
3060
ENDCHAR
STARTCHAR U+2049
ENCODING 8265
SWIDTH 836 0
DWIDTH 12 0
BBX 11 12 0 -2
BITMAP
4000
E380
E440
4C60
4660
40C0
4080
4100
0100
0000
6300
6300
ENDCHAR
STARTCHAR U+2103
ENCODING 8451
SWIDTH 836 0
DWIDTH 12 0
BBX 10 11 0 -1
BITMAP
6000
9000
9680
6D80
1880
1800
1800
1840
1840
0C80
0700
ENDCHAR
STARTCHAR U+2109
ENCODING 8457
SWIDTH 836 0
DWIDTH 12 0
BBX 11 11 0 -1
BITMAP
6000
9000
9FE0
6C20
0C80
0F80
0C80
0C00
0C00
0C00
1E00
ENDCHAR
STARTCHAR U+2116
ENCODING 8470
SWIDTH 836 0
DWIDTH 12 0
BBX 11 9 0 0
BITMAP
CC00
4800
68C0
6920
6920
5920
58C0
4800
CDE0
ENDCHAR
STARTCHAR U+2121
ENCODING 8481
SWIDTH 836 0
DWIDTH 12 0
BBX 11 10 0 -1
BITMAP
F800
A800
2000
3FC0
2A80
2880
2C80
2880
2AA0
7FE0
ENDCHAR
STARTCHAR U+212B
ENCODING 8491
SWIDTH 836 0
DWIDTH 12 0
BBX 10 11 1 -1
BITMAP
0C00
1200
1200
0C00
0C00
1600
1600
2300
3F00
4180
E3C0
ENDCHAR
STARTCHAR U+2160
ENCODING 8544
SWIDTH 836 0
DWIDTH 12 0
BBX 6 10 3 0
BITMAP
FC
30
30
30
30
30
30
30
30
FC
ENDCHAR
STARTCHAR U+2161
ENCODING 8545
SWIDTH 836 0
DWIDTH 12 0
BBX 8 10 2 0
BITMAP
FF
66
66
66
66
66
66
66
66
FF
ENDCHAR
STARTCHAR U+2162
ENCODING 8546
SWIDTH 836 0
DWIDTH 12 0
BBX 10 10 1 0
BITMAP
FFC0
6D80
6D80
6D80
6D80
6D80
6D80
6D80
6D80
FFC0
ENDCHAR
STARTCHAR U+2163
ENCODING 8547
SWIDTH 836 0
DWIDTH 12 0
BBX 11 10 1 0
BITMAP
FDE0
7840
7840
6C80
6C80
6C80
6700
6700
6200
F200
ENDCHAR
STARTCHAR U+2164
ENCODING 8548
SWIDTH 836 0
DWIDTH 12 0
BBX 9 10 1 0
BITMAP
F780
6100
6100
3200
3200
3200
1C00
1C00
0800
0800
ENDCHAR
STARTCHAR U+2165
ENCODING 8549
SWIDTH 836 0
DWIDTH 12 0
BBX 11 10 0 0
BITMAP
F7E0
61C0
61C0
32C0
32C0
32C0
1CC0
1CC0
08C0
09E0
ENDCHAR
STARTCHAR U+2166
ENCODING 8550
SWIDTH 836 0
DWIDTH 12 0
BBX 12 10 0 0
BITMAP
EFF0
4B60
4B60
6B60
6B60
6B60
6B60
3360
3360
37F0
ENDCHAR
STARTCHAR U+2167
ENCODING 8551
SWIDTH 836 0
DWIDTH 12 0
BBX 12 10 0 0
BITMAP
DFF0
CAA0
CAA0
5AA0
5AA0
5AA0
5AA0
32A0
32A0
37F0
ENDCHAR
STARTCHAR U+2168
ENCODING 8552
SWIDTH 836 0
DWIDTH 12 0
BBX 10 10 1 0
BITMAP
FDC0
6C80
6D00
6700
6600
6300
6700
6580
6980
FDC0
ENDCHAR
STARTCHAR U+2169
ENCODING 8553
SWIDTH 836 0
DWIDTH 12 0
BBX 7 10 2 0
BITMAP
EE
64
68
38
30
18
38
2C
4C
EE
ENDCHAR
STARTCHAR U+216A
ENCODING 8554
SWIDTH 836 0
DWIDTH 12 0
BBX 12 10 0 0
BITMAP
EFF0
64C0
68C0
38C0
30C0
18C0
38C0
2CC0
4CC0
EFF0
ENDCHAR
STARTCHAR U+216B
ENCODING 8555
SWIDTH 836 0
DWIDTH 12 0
BBX 12 10 0 0
BITMAP
EFF0
6B60
6B60
3360
3360
1360
3B60
2B60
4F60
EFF0
ENDCHAR
STARTCHAR U+216C
ENCODING 8556
SWIDTH 836 0
DWIDTH 12 0
BBX 8 10 2 0
BITMAP
F0
60
60
60
60
60
60
61
61
FF
ENDCHAR
STARTCHAR U+216D
ENCODING 8557
SWIDTH 836 0
DWIDTH 12 0
BBX 7 10 2 0
BITMAP
3A
46
C6
C0
C0
C0
C2
C2
44
38
ENDCHAR
STARTCHAR U+216E
ENCODING 8558
SWIDTH 836 0
DWIDTH 12 0
BBX 8 10 2 0
BITMAP
FC
62
63
63
63
63
63
63
62
FC
ENDCHAR
STARTCHAR U+216F
ENCODING 8559
SWIDTH 836 0
DWIDTH 12 0
BBX 10 10 1 0
BITMAP
C1C0
6180
7380
5380
5D80
4D80
4980
4180
4180
E3C0
ENDCHAR
STARTCHAR U+2170
ENCODING 8560
SWIDTH 836 0
DWIDTH 12 0
BBX 4 10 4 0
BITMAP
60
60
00
60
E0
60
60
60
60
F0
ENDCHAR
STARTCHAR U+2171
ENCODING 8561
SWIDTH 836 0
DWIDTH 12 0
BBX 8 10 2 0
BITMAP
66
66
00
66
EE
66
66
66
66
FF
ENDCHAR
STARTCHAR U+2172
ENCODING 8562
SWIDTH 836 0
DWIDTH 12 0
BBX 12 10 0 0
BITMAP
6660
6660
0000
6660
EEE0
6660
6660
6660
6660
FFF0
ENDCHAR
STARTCHAR U+2173
ENCODING 8563
SWIDTH 836 0
DWIDTH 12 0
BBX 12 10 0 0
BITMAP
6660
6660
0000
6660
EEE0
6660
6660
6660
6660
FFF0
ENDCHAR
STARTCHAR U+2174
ENCODING 8564
SWIDTH 836 0
DWIDTH 12 0
BBX 7 7 2 0
BITMAP
EE
64
64
28
38
10
10
ENDCHAR
STARTCHAR U+2175
ENCODING 8565
SWIDTH 836 0
DWIDTH 12 0
BBX 11 10 0 0
BITMAP
00C0
00C0
0000
EEC0
65C0
64C0
28C0
38C0
10C0
11E0
ENDCHAR
STARTCHAR U+2176
ENCODING 8566
SWIDTH 836 0
DWIDTH 12 0
BBX 12 10 0 0
BITMAP
0360
0360
0000
DB60
CFE0
4B60
5360
7360
2360
27F0
ENDCHAR
STARTCHAR U+2177
ENCODING 8567
SWIDTH 836 0
DWIDTH 12 0
BBX 12 10 0 0
BITMAP
02A0
02A0
0000
DAA0
CFE0
4AA0
52A0
72A0
22A0
27F0
ENDCHAR
STARTCHAR U+2178
ENCODING 8568
SWIDTH 836 0
DWIDTH 12 0
BBX 11 10 0 0
BITMAP
6000
6000
0000
6EE0
E640
6280
6100
6280
64C0
FEE0
ENDCHAR
STARTCHAR U+2179
ENCODING 8569
SWIDTH 836 0
DWIDTH 12 0
BBX 7 7 2 0
BITMAP
EE
64
28
10
28
4C
EE
ENDCHAR
STARTCHAR U+217A
ENCODING 8570
SWIDTH 836 0
DWIDTH 12 0
BBX 11 10 0 0
BITMAP
00C0
00C0
0000
EEC0
65C0
28C0
10C0
28C0
4CC0
EFE0
ENDCHAR
STARTCHAR U+217B
ENCODING 8571
SWIDTH 836 0
DWIDTH 12 0
BBX 12 10 0 0
BITMAP
00A0
00A0
0000
EEA0
65E0
28A0
10A0
28A0
4CA0
EFF0
ENDCHAR
STARTCHAR U+217C
ENCODING 8572
SWIDTH 836 0
DWIDTH 12 0
BBX 4 10 4 0
BITMAP
60
E0
60
60
60
60
60
60
60
F0
ENDCHAR
STARTCHAR U+217D
ENCODING 8573
SWIDTH 836 0
DWIDTH 12 0
BBX 6 7 3 0
BITMAP
38
48
C0
C0
C4
48
30
ENDCHAR
STARTCHAR U+217E
ENCODING 8574
SWIDTH 836 0
DWIDTH 12 0
BBX 7 10 2 0
BITMAP
0C
1C
0C
3C
4C
CC
CC
CC
4C
3E
ENDCHAR
STARTCHAR U+217F
ENCODING 8575
SWIDTH 836 0
DWIDTH 12 0
BBX 10 7 1 0
BITMAP
F700
6D80
6D80
6D80
6D80
6D80
FFC0
ENDCHAR
STARTCHAR U+218A
ENCODING 8586
SWIDTH 417 0
DWIDTH 6 0
BBX 5 9 0 -1
BITMAP
F8
F8
88
10
60
C0
D8
D8
70
ENDCHAR
STARTCHAR U+218B
ENCODING 8587
SWIDTH 417 0
DWIDTH 6 0
BBX 5 9 0 -1
BITMAP
70
D8
D8
C0
70
C0
D8
D8
70
ENDCHAR
STARTCHAR U+2190
ENCODING 8592
SWIDTH 836 0
DWIDTH 12 0
BBX 12 5 0 2
BITMAP
2000
4000
FFF0
4000
2000
ENDCHAR
STARTCHAR U+2191
ENCODING 8593
SWIDTH 836 0
DWIDTH 12 0
BBX 5 12 3 -2
BITMAP
20
70
A8
20
20
20
20
20
20
20
20
20
ENDCHAR
STARTCHAR U+2192
ENCODING 8594
SWIDTH 836 0
DWIDTH 12 0
BBX 12 5 0 2
BITMAP
0040
0020
FFF0
0020
0040
ENDCHAR
STARTCHAR U+2193
ENCODING 8595
SWIDTH 836 0
DWIDTH 12 0
BBX 5 12 3 -2
BITMAP
20
20
20
20
20
20
20
20
20
A8
70
20
ENDCHAR
STARTCHAR U+21D2
ENCODING 8658
SWIDTH 836 0
DWIDTH 12 0
BBX 10 7 1 1
BITMAP
0200
0100
FF80
0040
FF80
0100
0200
ENDCHAR
STARTCHAR U+21D4
ENCODING 8660
SWIDTH 836 0
DWIDTH 12 0
BBX 10 7 1 1
BITMAP
1200
2100
7F80
8040
7F80
2100
1200
ENDCHAR
STARTCHAR U+2200
ENCODING 8704
SWIDTH 836 0
DWIDTH 12 0
BBX 11 12 0 -2
BITMAP
8020
8020
4040
4040
3F80
2080
1100
1100
0A00
0A00
0400
0400
ENDCHAR
STARTCHAR U+2202
ENCODING 8706
SWIDTH 836 0
DWIDTH 12 0
BBX 7 10 2 -2
BITMAP
1C
36
02
36
6E
44
CC
88
D8
70
ENDCHAR
STARTCHAR U+2203
ENCODING 8707
SWIDTH 836 0
DWIDTH 12 0
BBX 8 8 2 0
BITMAP
FF
01
01
FF
01
01
01
FF
ENDCHAR
STARTCHAR U+2207
ENCODING 8711
SWIDTH 836 0
DWIDTH 12 0
BBX 10 9 1 -1
BITMAP
FFC0
7F80
6080
3100
3100
1A00
1A00
0C00
0C00
ENDCHAR
STARTCHAR U+2208
ENCODING 8712
SWIDTH 836 0
DWIDTH 12 0
BBX 8 7 2 1
BITMAP
7F
80
80
FF
80
80
7F
ENDCHAR
STARTCHAR U+220B
ENCODING 8715
SWIDTH 836 0
DWIDTH 12 0
BBX 8 7 2 1
BITMAP
FE
01
01
FF
01
01
FE
ENDCHAR
STARTCHAR U+220F
ENCODING 8719
SWIDTH 836 0
DWIDTH 12 0
BBX 9 9 1 0
BITMAP
FF80
6300
6300
6300
6300
6300
6300
6300
F780
ENDCHAR
STARTCHAR U+2211
ENCODING 8721
SWIDTH 836 0
DWIDTH 12 0
BBX 8 9 1 0
BITMAP
FF
61
30
18
0C
10
21
7F
FF
ENDCHAR
STARTCHAR U+2212
ENCODING 8722
SWIDTH 836 0
DWIDTH 12 0
BBX 9 1 1 4
BITMAP
FF80
ENDCHAR
STARTCHAR U+221A
ENCODING 8730
SWIDTH 836 0
DWIDTH 12 0
BBX 9 11 0 -1
BITMAP
0380
0200
0400
0400
0400
4800
4800
C800
2800
1000
1000
ENDCHAR
STARTCHAR U+221D
ENCODING 8733
SWIDTH 836 0
DWIDTH 12 0
BBX 11 6 0 1
BITMAP
31C0
4A20
8400
8400
4A20
31C0
ENDCHAR
STARTCHAR U+221E
ENCODING 8734
SWIDTH 836 0
DWIDTH 12 0
BBX 11 6 0 1
BITMAP
3180
4A40
8420
8420
4A40
3180
ENDCHAR
STARTCHAR U+221F
ENCODING 8735
SWIDTH 836 0
DWIDTH 12 0
BBX 7 1 3 1
BITMAP
FE
ENDCHAR
STARTCHAR U+2220
ENCODING 8736
SWIDTH 836 0
DWIDTH 12 0
BBX 8 8 2 1
BITMAP
01
02
04
08
10
20
40
FF
ENDCHAR
STARTCHAR U+2225
ENCODING 8741
SWIDTH 836 0
DWIDTH 12 0
BBX 4 12 4 -2
BITMAP
90
90
90
90
90
90
90
90
90
90
90
90
ENDCHAR
STARTCHAR U+2227
ENCODING 8743
SWIDTH 836 0
DWIDTH 12 0
BBX 11 12 0 -2
BITMAP
0400
0400
0A00
0A00
1100
1100
2080
2080
4040
4040
8020
8020
ENDCHAR
STARTCHAR U+2228
ENCODING 8744
SWIDTH 836 0
DWIDTH 12 0
BBX 11 12 0 -2
BITMAP
8020
8020
4040
4040
2080
2080
1100
1100
0A00
0A00
0400
0400
ENDCHAR
STARTCHAR U+2229
ENCODING 8745
SWIDTH 836 0
DWIDTH 12 0
BBX 7 11 2 -1
BITMAP
38
44
44
82
82
82
82
82
82
82
82
ENDCHAR
STARTCHAR U+222A
ENCODING 8746
SWIDTH 836 0
DWIDTH 12 0
BBX 7 11 2 -1
BITMAP
82
82
82
82
82
82
82
82
44
44
38
ENDCHAR
STARTCHAR U+222B
ENCODING 8747
SWIDTH 836 0
DWIDTH 12 0
BBX 3 12 5 -2
BITMAP
60
A0
A0
80
C0
C0
60
60
20
A0
A0
C0
ENDCHAR
STARTCHAR U+222C
ENCODING 8748
SWIDTH 836 0
DWIDTH 12 0
BBX 7 12 2 -2
BITMAP
66
AA
88
88
CC
44
44
66
22
22
AA
CC
ENDCHAR
STARTCHAR U+222D
ENCODING 8749
SWIDTH 836 0
DWIDTH 12 0
BBX 11 12 0 -2
BITMAP
6660
AAA0
8880
8880
CCC0
4440
4440
6660
2220
2220
AAA0
CCC0
ENDCHAR
STARTCHAR U+222E
ENCODING 8750
SWIDTH 836 0
DWIDTH 12 0
BBX 4 12 4 -2
BITMAP
50
B0
80
60
D0
F0
B0
60
10
D0
90
60
ENDCHAR
STARTCHAR U+2234
ENCODING 8756
SWIDTH 836 0
DWIDTH 12 0
BBX 8 8 2 0
BITMAP
18
18
00
00
00
00
C3
C3
ENDCHAR
STARTCHAR U+2235
ENCODING 8757
SWIDTH 836 0
DWIDTH 12 0
BBX 8 8 2 0
BITMAP
C3
C3
00
00
00
00
18
18
ENDCHAR
STARTCHAR U+2236
ENCODING 8758
SWIDTH 836 0
DWIDTH 12 0
BBX 2 8 5 0
BITMAP
C0
C0
00
00
00
00
C0
C0
ENDCHAR
STARTCHAR U+2237
ENCODING 8759
SWIDTH 836 0
DWIDTH 12 0
BBX 8 8 2 0
BITMAP
C3
C3
00
00
00
00
C3
C3
ENDCHAR
STARTCHAR U+223D
ENCODING 8765
SWIDTH 836 0
DWIDTH 12 0
BBX 12 6 0 1
BITMAP
30C0
4920
8210
8410
4920
30C0
ENDCHAR
STARTCHAR U+2248
ENCODING 8776
SWIDTH 417 0
DWIDTH 6 0
BBX 6 6 0 2
BITMAP
60
B4
18
60
B4
18
ENDCHAR
STARTCHAR U+224C
ENCODING 8780
SWIDTH 836 0
DWIDTH 12 0
BBX 12 10 0 -1
BITMAP
30C0
4920
8210
8410
4920
30C0
0000
FFF0
0000
FFF0
ENDCHAR
STARTCHAR U+2252
ENCODING 8786
SWIDTH 836 0
DWIDTH 12 0
BBX 8 11 2 -1
BITMAP
40
E0
40
00
FF
00
FF
00
02
07
02
ENDCHAR
STARTCHAR U+2260
ENCODING 8800
SWIDTH 836 0
DWIDTH 12 0
BBX 8 8 2 0
BITMAP
04
04
FF
08
10
FF
20
20
ENDCHAR
STARTCHAR U+2261
ENCODING 8801
SWIDTH 836 0
DWIDTH 12 0
BBX 8 5 2 2
BITMAP
7E
00
FF
00
FF
ENDCHAR
STARTCHAR U+2264
ENCODING 8804
SWIDTH 417 0
DWIDTH 6 0
BBX 4 8 1 0
BITMAP
10
30
60
C0
60
30
10
F0
ENDCHAR
STARTCHAR U+2265
ENCODING 8805
SWIDTH 417 0
DWIDTH 6 0
BBX 4 8 1 0
BITMAP
80
C0
60
30
60
C0
80
F0
ENDCHAR
STARTCHAR U+2266
ENCODING 8806
SWIDTH 836 0
DWIDTH 12 0
BBX 8 9 2 0
BITMAP
07
18
E0
18
07
00
FF
00
FF
ENDCHAR
STARTCHAR U+2267
ENCODING 8807
SWIDTH 836 0
DWIDTH 12 0
BBX 8 9 2 0
BITMAP
E0
18
07
18
E0
00
FF
00
FF
ENDCHAR
STARTCHAR U+226A
ENCODING 8810
SWIDTH 836 0
DWIDTH 12 0
BBX 8 9 2 0
BITMAP
09
12
24
48
90
48
24
12
09
ENDCHAR
STARTCHAR U+226B
ENCODING 8811
SWIDTH 836 0
DWIDTH 12 0
BBX 8 9 2 0
BITMAP
90
48
24
12
09
12
24
48
90
ENDCHAR
STARTCHAR U+226E
ENCODING 8814
SWIDTH 836 0
DWIDTH 12 0
BBX 12 12 0 -2
BITMAP
0200
0230
02C0
0300
0E00
3200
C200
3200
0E00
0300
02C0
0230
ENDCHAR
STARTCHAR U+226F
ENCODING 8815
SWIDTH 836 0
DWIDTH 12 0
BBX 12 12 0 -2
BITMAP
0400
C400
3400
0C00
0700
04C0
0430
04C0
0700
0C00
3400
C400
ENDCHAR
STARTCHAR U+2282
ENCODING 8834
SWIDTH 836 0
DWIDTH 12 0
BBX 8 7 2 1
BITMAP
3F
40
80
80
80
40
3F
ENDCHAR
STARTCHAR U+2283
ENCODING 8835
SWIDTH 836 0
DWIDTH 12 0
BBX 8 7 2 1
BITMAP
FC
02
01
01
01
02
FC
ENDCHAR
STARTCHAR U+2286
ENCODING 8838
SWIDTH 836 0
DWIDTH 12 0
BBX 8 8 2 0
BITMAP
7F
80
80
80
80
7F
00
FF
ENDCHAR
STARTCHAR U+2287
ENCODING 8839
SWIDTH 836 0
DWIDTH 12 0
BBX 8 8 2 0
BITMAP
FE
01
01
01
01
FE
00
FF
ENDCHAR
STARTCHAR U+2299
ENCODING 8857
SWIDTH 836 0
DWIDTH 12 0
BBX 12 12 0 -2
BITMAP
0F00
30C0
4020
4020
8010
8610
8610
8010
4020
4020
30C0
0F00
ENDCHAR
STARTCHAR U+22A5
ENCODING 8869
SWIDTH 836 0
DWIDTH 12 0
BBX 9 9 1 1
BITMAP
0800
0800
0800
0800
0800
0800
0800
0800
FF80
ENDCHAR
STARTCHAR U+22BF
ENCODING 8895
SWIDTH 836 0
DWIDTH 12 0
BBX 8 8 2 1
BITMAP
01
03
05
09
11
21
41
FF
ENDCHAR
STARTCHAR U+2312
ENCODING 8978
SWIDTH 836 0
DWIDTH 12 0
BBX 10 3 1 5
BITMAP
1E00
6180
8040
ENDCHAR
STARTCHAR U+2460
ENCODING 9312
SWIDTH 836 0
DWIDTH 12 0
BBX 12 12 0 -2
BITMAP
0F00
30C0
4620
4E20
8610
8610
8610
8610
4620
4F20
30C0
0F00
ENDCHAR
STARTCHAR U+2461
ENCODING 9313
SWIDTH 836 0
DWIDTH 12 0
BBX 12 12 0 -2
BITMAP
0F00
30C0
4F20
59A0
9990
8310
8610
8890
5FA0
5FA0
31C0
0F00
ENDCHAR
STARTCHAR U+2462
ENCODING 9314
SWIDTH 836 0
DWIDTH 12 0
BBX 12 12 0 -2
BITMAP
0F00
30C0
4F20
59A0
9990
8710
8190
9990
59A0
4F20
30C0
0F00
ENDCHAR
STARTCHAR U+2463
ENCODING 9315
SWIDTH 836 0
DWIDTH 12 0
BBX 12 12 0 -2
BITMAP
0F00
30C0
4320
4720
8F10
8B10
9B10
9F90
4320
47A0
30C0
0F00
ENDCHAR
STARTCHAR U+2464
ENCODING 9316
SWIDTH 836 0
DWIDTH 12 0
BBX 12 12 0 -2
BITMAP
0F00
30C0
5FA0
5820
9F10
9990
8190
9990
5FA0
4F20
30C0
0F00
ENDCHAR
STARTCHAR U+2465
ENCODING 9317
SWIDTH 836 0
DWIDTH 12 0
BBX 12 12 0 -2
BITMAP
0F00
30C0
4F20
59A0
9810
9F10
9990
9990
59A0
4F20
30C0
0F00
ENDCHAR
STARTCHAR U+2466
ENCODING 9318
SWIDTH 836 0
DWIDTH 12 0
BBX 12 12 0 -2
BITMAP
0F00
30C0
5FA0
5FA0
9110
8310
8210
8610
4620
4620
30C0
0F00
ENDCHAR
STARTCHAR U+2467
ENCODING 9319
SWIDTH 836 0
DWIDTH 12 0
BBX 12 12 0 -2
BITMAP
0F00
30C0
4F20
59A0
9990
8F10
9990
9990
59A0
4F20
30C0
0F00
ENDCHAR
STARTCHAR U+2468
ENCODING 9320
SWIDTH 836 0
DWIDTH 12 0
BBX 12 12 0 -2
BITMAP
0F00
30C0
4F20
59A0
9990
9990
8F90
8190
59A0
4F20
30C0
0F00
ENDCHAR
STARTCHAR U+2469
ENCODING 9321
SWIDTH 836 0
DWIDTH 12 0
BBX 12 12 0 -2
BITMAP
0F00
30C0
53A0
73A0
B6D0
B6D0
B6D0
B6D0
73A0
7BA0
30C0
0F00
ENDCHAR
STARTCHAR U+246A
ENCODING 9322
SWIDTH 836 0
DWIDTH 12 0
BBX 12 12 0 -2
BITMAP
0F00
30C0
48A0
7BA0
9990
9990
9990
9990
59A0
7FE0
30C0
0F00
ENDCHAR
STARTCHAR U+246B
ENCODING 9323
SWIDTH 836 0
DWIDTH 12 0
BBX 12 12 0 -2
BITMAP
0F00
30C0
53A0
76E0
B6D0
B0D0
B190
B250
77E0
7FE0
30C0
0F00
ENDCHAR
STARTCHAR U+246C
ENCODING 9324
SWIDTH 836 0
DWIDTH 12 0
BBX 12 12 0 -2
BITMAP
0F00
30C0
53A0
76E0
B6D0
B1D0
B090
B6D0
76E0
7BA0
30C0
0F00
ENDCHAR
STARTCHAR U+246D
ENCODING 9325
SWIDTH 836 0
DWIDTH 12 0
BBX 12 12 0 -2
BITMAP
0F00
30C0
51A0
71A0
B390
B390
B590
B7D0
71A0
7BE0
30C0
0F00
ENDCHAR
STARTCHAR U+246E
ENCODING 9326
SWIDTH 836 0
DWIDTH 12 0
BBX 12 12 0 -2
BITMAP
0F00
30C0
57E0
7620
B790
B6D0
B0D0
B6D0
77E0
7BA0
30C0
0F00
ENDCHAR
STARTCHAR U+246F
ENCODING 9327
SWIDTH 836 0
DWIDTH 12 0
BBX 12 12 0 -2
BITMAP
0F00
30C0
53A0
76E0
B610
B790
B6D0
B6D0
76E0
7BA0
30C0
0F00
ENDCHAR
STARTCHAR U+2470
ENCODING 9328
SWIDTH 836 0
DWIDTH 12 0
BBX 12 12 0 -2
BITMAP
0F00
30C0
57E0
77E0
B4D0
B190
B110
B310
7320
7B20
30C0
0F00
ENDCHAR
STARTCHAR U+2471
ENCODING 9329
SWIDTH 836 0
DWIDTH 12 0
BBX 12 12 0 -2
BITMAP
0F00
30C0
53A0
76E0
B6D0
B390
B6D0
B6D0
76E0
7BA0
30C0
0F00
ENDCHAR
STARTCHAR U+2472
ENCODING 9330
SWIDTH 836 0
DWIDTH 12 0
BBX 12 12 0 -2
BITMAP
0F00
30C0
53A0
76E0
B6D0
B6D0
B3D0
B0D0
76E0
7BA0
30C0
0F00
ENDCHAR
STARTCHAR U+2473
ENCODING 9331
SWIDTH 836 0
DWIDTH 12 0
BBX 12 12 0 -2
BITMAP
0F00
30C0
73A0
5BA0
9ED0
B6D0
A6D0
CED0
7BA0
7BA0
30C0
0F00
ENDCHAR
STARTCHAR U+2474
ENCODING 9332
SWIDTH 836 0
DWIDTH 12 0
BBX 12 12 0 -2
BITMAP
1080
2040
6660
4E20
C630
C630
C630
C630
4620
6660
2F40
1080
ENDCHAR
STARTCHAR U+2475
ENCODING 9333
SWIDTH 836 0
DWIDTH 12 0
BBX 12 12 0 -2
BITMAP
1080
2040
6760
4DA0
CDB0
C1B0
C330
C430
48A0
6FE0
2FC0
1080
ENDCHAR
STARTCHAR U+2476
ENCODING 9334
SWIDTH 836 0
DWIDTH 12 0
BBX 12 12 0 -2
BITMAP
1080
2040
6760
4DA0
CDB0
C1B0
C730
C1B0
4DA0
6DE0
2740
1080
ENDCHAR
STARTCHAR U+2477
ENCODING 9335
SWIDTH 836 0
DWIDTH 12 0
BBX 12 12 0 -2
BITMAP
1080
2040
6360
4720
C730
CF30
CB30
DB30
5F20
6360
2740
1080
ENDCHAR
STARTCHAR U+2478
ENCODING 9336
SWIDTH 836 0
DWIDTH 12 0
BBX 12 12 0 -2
BITMAP
1080
2040
6FE0
4C20
CC30
CF30
CDB0
C1B0
4DA0
6FE0
2740
1080
ENDCHAR
STARTCHAR U+2479
ENCODING 9337
SWIDTH 836 0
DWIDTH 12 0
BBX 12 12 0 -2
BITMAP
1080
2040
6760
4DA0
CDB0
CC30
CF30
CDB0
4DA0
6DE0
2740
1080
ENDCHAR
STARTCHAR U+247A
ENCODING 9338
SWIDTH 836 0
DWIDTH 12 0
BBX 12 12 0 -2
BITMAP
1080
2040
6FE0
4FA0
C930
C130
C330
C230
4620
6660
2640
1080
ENDCHAR
STARTCHAR U+247B
ENCODING 9339
SWIDTH 836 0
DWIDTH 12 0
BBX 12 12 0 -2
BITMAP
1080
2040
6760
4DA0
CDB0
CDB0
C730
CDB0
4DA0
6DE0
2740
1080
ENDCHAR
STARTCHAR U+247C
ENCODING 9340
SWIDTH 836 0
DWIDTH 12 0
BBX 12 12 0 -2
BITMAP
1080
2040
6760
4DA0
CDB0
CDB0
C7B0
C1B0
4DA0
6DE0
2740
1080
ENDCHAR
STARTCHAR U+247D
ENCODING 9341
SWIDTH 836 0
DWIDTH 12 0
BBX 12 12 0 -2
BITMAP
1080
2040
79E0
7960
DB70
DB70
DB70
DB70
5B60
7960
3DC0
1080
ENDCHAR
STARTCHAR U+247E
ENCODING 9342
SWIDTH 836 0
DWIDTH 12 0
BBX 12 12 0 -2
BITMAP
1080
2040
79E0
7BA0
D9B0
D9B0
D9B0
D9B0
59A0
79E0
3FC0
1080
ENDCHAR
STARTCHAR U+247F
ENCODING 9343
SWIDTH 836 0
DWIDTH 12 0
BBX 12 12 0 -2
BITMAP
1080
2040
79E0
7B60
DB70
D870
D8F0
D930
5A20
7BE0
3FE0
1080
ENDCHAR
STARTCHAR U+2480
ENCODING 9344
SWIDTH 836 0
DWIDTH 12 0
BBX 12 12 0 -2
BITMAP
1080
2040
79E0
7B60
DB70
D870
D9F0
D870
5B60
7B60
3DC0
1080
ENDCHAR
STARTCHAR U+2481
ENCODING 9345
SWIDTH 836 0
DWIDTH 12 0
BBX 12 12 0 -2
BITMAP
1080
2040
7860
78E0
D8F0
D9F0
D970
DB70
5BE0
7860
3CE0
1080
ENDCHAR
STARTCHAR U+2482
ENCODING 9346
SWIDTH 836 0
DWIDTH 12 0
BBX 12 12 0 -2
BITMAP
1080
2040
7BE0
7B20
DB30
DBF0
DB70
D870
5B60
7BE0
3DC0
1080
ENDCHAR
STARTCHAR U+2483
ENCODING 9347
SWIDTH 836 0
DWIDTH 12 0
BBX 12 12 0 -2
BITMAP
1080
2040
79E0
7B60
DB70
DB30
DBF0
DB70
5B60
7B60
3DC0
1080
ENDCHAR
STARTCHAR U+2484
ENCODING 9348
SWIDTH 836 0
DWIDTH 12 0
BBX 12 12 0 -2
BITMAP
1080
2040
7BE0
7BE0
DA70
D870
D8F0
D8B0
59A0
79E0
3DC0
1080
ENDCHAR
STARTCHAR U+2485
ENCODING 9349
SWIDTH 836 0
DWIDTH 12 0
BBX 12 12 0 -2
BITMAP
1080
2040
79E0
7B60
DB70
DB70
D9F0
DB70
5B60
7B60
3DC0
1080
ENDCHAR
STARTCHAR U+2486
ENCODING 9350
SWIDTH 836 0
DWIDTH 12 0
BBX 12 12 0 -2
BITMAP
1080
2040
79E0
7B60
DB70
DB70
D9F0
D870
5B60
7B60
3DC0
1080
ENDCHAR
STARTCHAR U+2487
ENCODING 9351
SWIDTH 836 0
DWIDTH 12 0
BBX 12 12 0 -2
BITMAP
1080
2040
79E0
6D60
EF70
CF70
DB70
E370
4760
7D60
7DC0
1080
ENDCHAR
STARTCHAR U+2488
ENCODING 9352
SWIDTH 836 0
DWIDTH 12 0
BBX 7 9 3 -1
BITMAP
60
E0
60
60
60
60
60
66
F6
ENDCHAR
STARTCHAR U+2489
ENCODING 9353
SWIDTH 836 0
DWIDTH 12 0
BBX 8 9 2 -1
BITMAP
70
D8
D8
18
30
40
88
FB
FB
ENDCHAR
STARTCHAR U+248A
ENCODING 9354
SWIDTH 836 0
DWIDTH 12 0
BBX 8 9 2 -1
BITMAP
70
D8
D8
18
70
18
D8
DB
73
ENDCHAR
STARTCHAR U+248B
ENCODING 9355
SWIDTH 836 0
DWIDTH 12 0
BBX 8 9 2 -1
BITMAP
18
38
38
78
58
D8
F8
1B
3B
ENDCHAR
STARTCHAR U+248C
ENCODING 9356
SWIDTH 836 0
DWIDTH 12 0
BBX 8 9 2 -1
BITMAP
F8
C0
C0
F0
D8
18
D8
FB
73
ENDCHAR
STARTCHAR U+248D
ENCODING 9357
SWIDTH 836 0
DWIDTH 12 0
BBX 8 9 2 -1
BITMAP
70
D8
D8
C0
F0
D8
D8
DB
73
ENDCHAR
STARTCHAR U+248E
ENCODING 9358
SWIDTH 836 0
DWIDTH 12 0
BBX 6 9 3 -1
BITMAP
F8
F8
90
10
30
20
60
6C
6C
ENDCHAR
STARTCHAR U+248F
ENCODING 9359
SWIDTH 836 0
DWIDTH 12 0
BBX 8 9 2 -1
BITMAP
70
D8
D8
D8
70
D8
D8
DB
73
ENDCHAR
STARTCHAR U+2490
ENCODING 9360
SWIDTH 836 0
DWIDTH 12 0
BBX 8 9 2 -1
BITMAP
70
D8
D8
D8
78
18
D8
DB
73
ENDCHAR
STARTCHAR U+2491
ENCODING 9361
SWIDTH 836 0
DWIDTH 12 0
BBX 11 9 1 -1
BITMAP
6700
E500
6D80
6D80
6D80
6D80
6D80
6560
F760
ENDCHAR
STARTCHAR U+2492
ENCODING 9362
SWIDTH 836 0
DWIDTH 12 0
BBX 12 9 0 -1
BITMAP
6300
E700
6300
6300
6300
6300
6300
6330
F7B0
ENDCHAR
STARTCHAR U+2493
ENCODING 9363
SWIDTH 836 0
DWIDTH 12 0
BBX 12 9 0 -1
BITMAP
6700
ED80
6D80
6180
6300
6400
6880
6FB0
FFB0
ENDCHAR
STARTCHAR U+2494
ENCODING 9364
SWIDTH 836 0
DWIDTH 12 0
BBX 12 9 0 -1
BITMAP
6700
ED80
6D80
6180
6700
6180
6D80
6DB0
F730
ENDCHAR
STARTCHAR U+2495
ENCODING 9365
SWIDTH 836 0
DWIDTH 12 0
BBX 12 9 0 -1
BITMAP
6180
E380
6380
6780
6580
6D80
6F80
61B0
F3B0
ENDCHAR
STARTCHAR U+2496
ENCODING 9366
SWIDTH 836 0
DWIDTH 12 0
BBX 12 9 0 -1
BITMAP
6F80
EC00
6C00
6F00
6D80
6180
6D80
6FB0
F730
ENDCHAR
STARTCHAR U+2497
ENCODING 9367
SWIDTH 836 0
DWIDTH 12 0
BBX 12 9 0 -1
BITMAP
6700
ED80
6D80
6C00
6F00
6D80
6D80
6DB0
F730
ENDCHAR
STARTCHAR U+2498
ENCODING 9368
SWIDTH 836 0
DWIDTH 12 0
BBX 10 9 1 -1
BITMAP
6F80
EF80
6900
6100
6300
6200
6600
66C0
F6C0
ENDCHAR
STARTCHAR U+2499
ENCODING 9369
SWIDTH 836 0
DWIDTH 12 0
BBX 12 9 0 -1
BITMAP
6700
ED80
6D80
6D80
6700
6D80
6D80
6DB0
F730
ENDCHAR
STARTCHAR U+249A
ENCODING 9370
SWIDTH 836 0
DWIDTH 12 0
BBX 12 9 0 -1
BITMAP
6700
ED80
6D80
6D80
6780
6180
6D80
6DB0
F730
ENDCHAR
STARTCHAR U+249B
ENCODING 9371
SWIDTH 836 0
DWIDTH 12 0
BBX 12 9 0 -1
BITMAP
7380
DA80
DEC0
1EC0
36C0
46C0
8EC0
FAB0
FBB0
ENDCHAR
STARTCHAR U+2500
ENCODING 9472
SWIDTH 836 0
DWIDTH 12 0
BBX 12 1 0 4
BITMAP
FFF0
ENDCHAR
STARTCHAR U+2501
ENCODING 9473
SWIDTH 836 0
DWIDTH 12 0
BBX 12 2 0 3
BITMAP
FFF0
FFF0
ENDCHAR
STARTCHAR U+2502
ENCODING 9474
SWIDTH 836 0
DWIDTH 12 0
BBX 1 12 5 -2
BITMAP
80
80
80
80
80
80
80
80
80
80
80
80
ENDCHAR
STARTCHAR U+2503
ENCODING 9475
SWIDTH 836 0
DWIDTH 12 0
BBX 2 12 5 -2
BITMAP
C0
C0
C0
C0
C0
C0
C0
C0
C0
C0
C0
C0
ENDCHAR
STARTCHAR U+2504
ENCODING 9476
SWIDTH 836 0
DWIDTH 12 0
BBX 11 1 0 4
BITMAP
EEE0
ENDCHAR
STARTCHAR U+2505
ENCODING 9477
SWIDTH 836 0
DWIDTH 12 0
BBX 11 2 0 3
BITMAP
EEE0
EEE0
ENDCHAR
STARTCHAR U+2506
ENCODING 9478
SWIDTH 836 0
DWIDTH 12 0
BBX 1 11 5 -2
BITMAP
80
80
80
00
80
80
80
00
80
80
80
ENDCHAR
STARTCHAR U+2507
ENCODING 9479
SWIDTH 836 0
DWIDTH 12 0
BBX 2 11 5 -2
BITMAP
C0
C0
C0
00
C0
C0
C0
00
C0
C0
C0
ENDCHAR
STARTCHAR U+2508
ENCODING 9480
SWIDTH 836 0
DWIDTH 12 0
BBX 11 1 0 4
BITMAP
DB60
ENDCHAR
STARTCHAR U+2509
ENCODING 9481
SWIDTH 836 0
DWIDTH 12 0
BBX 11 2 0 3
BITMAP
DB60
DB60
ENDCHAR
STARTCHAR U+250A
ENCODING 9482
SWIDTH 836 0
DWIDTH 12 0
BBX 1 11 5 -2
BITMAP
80
80
00
80
80
00
80
80
00
80
80
ENDCHAR
STARTCHAR U+250B
ENCODING 9483
SWIDTH 836 0
DWIDTH 12 0
BBX 2 11 5 -2
BITMAP
C0
C0
00
C0
C0
00
C0
C0
00
C0
C0
ENDCHAR
STARTCHAR U+250C
ENCODING 9484
SWIDTH 836 0
DWIDTH 12 0
BBX 7 7 5 -2
BITMAP
FE
80
80
80
80
80
80
ENDCHAR
STARTCHAR U+250D
ENCODING 9485
SWIDTH 836 0
DWIDTH 12 0
BBX 7 7 5 -2
BITMAP
FE
FE
80
80
80
80
80
ENDCHAR
STARTCHAR U+250E
ENCODING 9486
SWIDTH 836 0
DWIDTH 12 0
BBX 7 7 5 -2
BITMAP
FE
C0
C0
C0
C0
C0
C0
ENDCHAR
STARTCHAR U+250F
ENCODING 9487
SWIDTH 836 0
DWIDTH 12 0
BBX 7 7 5 -2
BITMAP
FE
FE
C0
C0
C0
C0
C0
ENDCHAR
STARTCHAR U+2510
ENCODING 9488
SWIDTH 836 0
DWIDTH 12 0
BBX 6 7 0 -2
BITMAP
FC
04
04
04
04
04
04
ENDCHAR
STARTCHAR U+2511
ENCODING 9489
SWIDTH 836 0
DWIDTH 12 0
BBX 6 7 0 -2
BITMAP
FC
FC
04
04
04
04
04
ENDCHAR
STARTCHAR U+2512
ENCODING 9490
SWIDTH 836 0
DWIDTH 12 0
BBX 7 7 0 -2
BITMAP
FE
06
06
06
06
06
06
ENDCHAR
STARTCHAR U+2513
ENCODING 9491
SWIDTH 836 0
DWIDTH 12 0
BBX 7 7 0 -2
BITMAP
FE
FE
06
06
06
06
06
ENDCHAR
STARTCHAR U+2514
ENCODING 9492
SWIDTH 836 0
DWIDTH 12 0
BBX 7 6 5 4
BITMAP
80
80
80
80
80
FE
ENDCHAR
STARTCHAR U+2515
ENCODING 9493
SWIDTH 836 0
DWIDTH 12 0
BBX 7 7 5 3
BITMAP
80
80
80
80
80
FE
FE
ENDCHAR
STARTCHAR U+2516
ENCODING 9494
SWIDTH 836 0
DWIDTH 12 0
BBX 7 6 5 4
BITMAP
C0
C0
C0
C0
C0
FE
ENDCHAR
STARTCHAR U+2517
ENCODING 9495
SWIDTH 836 0
DWIDTH 12 0
BBX 7 7 5 3
BITMAP
C0
C0
C0
C0
C0
FE
FE
ENDCHAR
STARTCHAR U+2518
ENCODING 9496
SWIDTH 836 0
DWIDTH 12 0
BBX 6 6 0 4
BITMAP
04
04
04
04
04
FC
ENDCHAR
STARTCHAR U+2519
ENCODING 9497
SWIDTH 836 0
DWIDTH 12 0
BBX 6 7 0 3
BITMAP
04
04
04
04
04
FC
FC
ENDCHAR
STARTCHAR U+251A
ENCODING 9498
SWIDTH 836 0
DWIDTH 12 0
BBX 7 6 0 4
BITMAP
06
06
06
06
06
FE
ENDCHAR
STARTCHAR U+251B
ENCODING 9499
SWIDTH 836 0
DWIDTH 12 0
BBX 7 7 0 3
BITMAP
06
06
06
06
06
FE
FE
ENDCHAR
STARTCHAR U+251C
ENCODING 9500
SWIDTH 836 0
DWIDTH 12 0
BBX 7 12 5 -2
BITMAP
80
80
80
80
80
FE
80
80
80
80
80
80
ENDCHAR
STARTCHAR U+251D
ENCODING 9501
SWIDTH 836 0
DWIDTH 12 0
BBX 7 12 5 -2
BITMAP
80
80
80
80
80
FE
FE
80
80
80
80
80
ENDCHAR
STARTCHAR U+251E
ENCODING 9502
SWIDTH 836 0
DWIDTH 12 0
BBX 7 12 5 -2
BITMAP
C0
C0
C0
C0
C0
FE
80
80
80
80
80
80
ENDCHAR
STARTCHAR U+251F
ENCODING 9503
SWIDTH 836 0
DWIDTH 12 0
BBX 7 12 5 -2
BITMAP
80
80
80
80
80
80
FE
C0
C0
C0
C0
C0
ENDCHAR
STARTCHAR U+2520
ENCODING 9504
SWIDTH 836 0
DWIDTH 12 0
BBX 7 12 5 -2
BITMAP
C0
C0
C0
C0
C0
FE
C0
C0
C0
C0
C0
C0
ENDCHAR
STARTCHAR U+2521
ENCODING 9505
SWIDTH 836 0
DWIDTH 12 0
BBX 7 12 5 -2
BITMAP
C0
C0
C0
C0
C0
FE
FE
80
80
80
80
80
ENDCHAR
STARTCHAR U+2522
ENCODING 9506
SWIDTH 836 0
DWIDTH 12 0
BBX 7 12 5 -2
BITMAP
80
80
80
80
80
FE
FE
C0
C0
C0
C0
C0
ENDCHAR
STARTCHAR U+2523
ENCODING 9507
SWIDTH 836 0
DWIDTH 12 0
BBX 7 12 5 -2
BITMAP
C0
C0
C0
C0
C0
FE
FE
C0
C0
C0
C0
C0
ENDCHAR
STARTCHAR U+2524
ENCODING 9508
SWIDTH 836 0
DWIDTH 12 0
BBX 6 12 0 -2
BITMAP
04
04
04
04
04
FC
04
04
04
04
04
04
ENDCHAR
STARTCHAR U+2525
ENCODING 9509
SWIDTH 836 0
DWIDTH 12 0
BBX 6 12 0 -2
BITMAP
04
04
04
04
04
FC
FC
04
04
04
04
04
ENDCHAR
STARTCHAR U+2526
ENCODING 9510
SWIDTH 836 0
DWIDTH 12 0
BBX 7 12 0 -2
BITMAP
06
06
06
06
06
FE
04
04
04
04
04
04
ENDCHAR
STARTCHAR U+2527
ENCODING 9511
SWIDTH 836 0
DWIDTH 12 0
BBX 7 12 0 -2
BITMAP
04
04
04
04
04
FC
06
06
06
06
06
06
ENDCHAR
STARTCHAR U+2528
ENCODING 9512
SWIDTH 836 0
DWIDTH 12 0
BBX 7 12 0 -2
BITMAP
06
06
06
06
06
FE
06
06
06
06
06
06
ENDCHAR
STARTCHAR U+2529
ENCODING 9513
SWIDTH 836 0
DWIDTH 12 0
BBX 7 12 0 -2
BITMAP
06
06
06
06
06
FE
FE
04
04
04
04
04
ENDCHAR
STARTCHAR U+252A
ENCODING 9514
SWIDTH 836 0
DWIDTH 12 0
BBX 7 12 0 -2
BITMAP
04
04
04
04
04
FE
FE
06
06
06
06
06
ENDCHAR
STARTCHAR U+252B
ENCODING 9515
SWIDTH 836 0
DWIDTH 12 0
BBX 7 12 0 -2
BITMAP
06
06
06
06
06
FE
FE
06
06
06
06
06
ENDCHAR
STARTCHAR U+252C
ENCODING 9516
SWIDTH 836 0
DWIDTH 12 0
BBX 12 7 0 -2
BITMAP
FFF0
0400
0400
0400
0400
0400
0400
ENDCHAR
STARTCHAR U+252D
ENCODING 9517
SWIDTH 836 0
DWIDTH 12 0
BBX 12 7 0 -2
BITMAP
FFF0
FC00
0400
0400
0400
0400
0400
ENDCHAR
STARTCHAR U+252E
ENCODING 9518
SWIDTH 836 0
DWIDTH 12 0
BBX 12 7 0 -2
BITMAP
FFF0
07F0
0400
0400
0400
0400
0400
ENDCHAR
STARTCHAR U+252F
ENCODING 9519
SWIDTH 836 0
DWIDTH 12 0
BBX 12 7 0 -2
BITMAP
FFF0
FFF0
0400
0400
0400
0400
0400
ENDCHAR
STARTCHAR U+2530
ENCODING 9520
SWIDTH 836 0
DWIDTH 12 0
BBX 12 7 0 -2
BITMAP
FFF0
0600
0600
0600
0600
0600
0600
ENDCHAR
STARTCHAR U+2531
ENCODING 9521
SWIDTH 836 0
DWIDTH 12 0
BBX 12 7 0 -2
BITMAP
FFF0
FE00
0600
0600
0600
0600
0600
ENDCHAR
STARTCHAR U+2532
ENCODING 9522
SWIDTH 836 0
DWIDTH 12 0
BBX 12 7 0 -2
BITMAP
FFF0
07F0
0600
0600
0600
0600
0600
ENDCHAR
STARTCHAR U+2533
ENCODING 9523
SWIDTH 836 0
DWIDTH 12 0
BBX 12 7 0 -2
BITMAP
FFF0
FFF0
0600
0600
0600
0600
0600
ENDCHAR
STARTCHAR U+2534
ENCODING 9524
SWIDTH 836 0
DWIDTH 12 0
BBX 12 6 0 4
BITMAP
0400
0400
0400
0400
0400
FFF0
ENDCHAR
STARTCHAR U+2535
ENCODING 9525
SWIDTH 836 0
DWIDTH 12 0
BBX 12 7 0 3
BITMAP
0400
0400
0400
0400
0400
FFF0
FC00
ENDCHAR
STARTCHAR U+2536
ENCODING 9526
SWIDTH 836 0
DWIDTH 12 0
BBX 12 7 0 3
BITMAP
0400
0400
0400
0400
0400
FFF0
07F0
ENDCHAR
STARTCHAR U+2537
ENCODING 9527
SWIDTH 836 0
DWIDTH 12 0
BBX 12 7 0 3
BITMAP
0400
0400
0400
0400
0400
FFF0
FFF0
ENDCHAR
STARTCHAR U+2538
ENCODING 9528
SWIDTH 836 0
DWIDTH 12 0
BBX 12 6 0 4
BITMAP
0600
0600
0600
0600
0600
FFF0
ENDCHAR
STARTCHAR U+2539
ENCODING 9529
SWIDTH 836 0
DWIDTH 12 0
BBX 12 7 0 3
BITMAP
0600
0600
0600
0600
0600
FFF0
FE00
ENDCHAR
STARTCHAR U+253A
ENCODING 9530
SWIDTH 836 0
DWIDTH 12 0
BBX 12 7 0 3
BITMAP
0600
0600
0600
0600
0600
FFF0
07F0
ENDCHAR
STARTCHAR U+253B
ENCODING 9531
SWIDTH 836 0
DWIDTH 12 0
BBX 12 7 0 3
BITMAP
0600
0600
0600
0600
0600
FFF0
FFF0
ENDCHAR
STARTCHAR U+253C
ENCODING 9532
SWIDTH 836 0
DWIDTH 12 0
BBX 12 12 0 -2
BITMAP
0400
0400
0400
0400
0400
FFF0
0400
0400
0400
0400
0400
0400
ENDCHAR
STARTCHAR U+253D
ENCODING 9533
SWIDTH 836 0
DWIDTH 12 0
BBX 12 12 0 -2
BITMAP
0400
0400
0400
0400
0400
FFF0
FC00
0400
0400
0400
0400
0400
ENDCHAR
STARTCHAR U+253E
ENCODING 9534
SWIDTH 836 0
DWIDTH 12 0
BBX 12 12 0 -2
BITMAP
0400
0400
0400
0400
0400
FFF0
07F0
0400
0400
0400
0400
0400
ENDCHAR
STARTCHAR U+253F
ENCODING 9535
SWIDTH 836 0
DWIDTH 12 0
BBX 12 12 0 -2
BITMAP
0400
0400
0400
0400
0400
FFF0
FFF0
0400
0400
0400
0400
0400
ENDCHAR
STARTCHAR U+2540
ENCODING 9536
SWIDTH 836 0
DWIDTH 12 0
BBX 12 12 0 -2
BITMAP
0600
0600
0600
0600
0600
FFF0
0400
0400
0400
0400
0400
0400
ENDCHAR
STARTCHAR U+2541
ENCODING 9537
SWIDTH 836 0
DWIDTH 12 0
BBX 12 12 0 -2
BITMAP
0400
0400
0400
0400
0400
FFF0
0600
0600
0600
0600
0600
0600
ENDCHAR
STARTCHAR U+2542
ENCODING 9538
SWIDTH 836 0
DWIDTH 12 0
BBX 12 12 0 -2
BITMAP
0600
0600
0600
0600
0600
FFF0
0600
0600
0600
0600
0600
0600
ENDCHAR
STARTCHAR U+2543
ENCODING 9539
SWIDTH 836 0
DWIDTH 12 0
BBX 12 12 0 -2
BITMAP
0600
0600
0600
0600
0600
FFF0
FC00
0400
0400
0400
0400
0400
ENDCHAR
STARTCHAR U+2544
ENCODING 9540
SWIDTH 836 0
DWIDTH 12 0
BBX 12 12 0 -2
BITMAP
0600
0600
0600
0600
0600
FFF0
07F0
0400
0400
0400
0400
0400
ENDCHAR
STARTCHAR U+2545
ENCODING 9541
SWIDTH 836 0
DWIDTH 12 0
BBX 12 12 0 -2
BITMAP
0400
0400
0400
0400
0400
FFF0
FE00
0600
0600
0600
0600
0600
ENDCHAR
STARTCHAR U+2546
ENCODING 9542
SWIDTH 836 0
DWIDTH 12 0
BBX 12 12 0 -2
BITMAP
0400
0400
0400
0400
0400
FFF0
07F0
0600
0600
0600
0600
0600
ENDCHAR
STARTCHAR U+2547
ENCODING 9543
SWIDTH 836 0
DWIDTH 12 0
BBX 12 12 0 -2
BITMAP
0600
0600
0600
0600
0600
FFF0
FFF0
0400
0400
0400
0400
0400
ENDCHAR
STARTCHAR U+2548
ENCODING 9544
SWIDTH 836 0
DWIDTH 12 0
BBX 12 12 0 -2
BITMAP
0400
0400
0400
0400
0400
FFF0
FFF0
0600
0600
0600
0600
0600
ENDCHAR
STARTCHAR U+2549
ENCODING 9545
SWIDTH 836 0
DWIDTH 12 0
BBX 12 12 0 -2
BITMAP
0600
0600
0600
0600
0600
FFF0
FE00
0600
0600
0600
0600
0600
ENDCHAR
STARTCHAR U+254A
ENCODING 9546
SWIDTH 836 0
DWIDTH 12 0
BBX 12 12 0 -2
BITMAP
0600
0600
0600
0600
0600
FFF0
07F0
0600
0600
0600
0600
0600
ENDCHAR
STARTCHAR U+254B
ENCODING 9547
SWIDTH 836 0
DWIDTH 12 0
BBX 12 12 0 -2
BITMAP
0600
0600
0600
0600
0600
FFF0
FFF0
0600
0600
0600
0600
0600
ENDCHAR
STARTCHAR U+2580
ENCODING 9600
SWIDTH 836 0
DWIDTH 12 0
BBX 12 6 0 4
BITMAP
FFF0
FFF0
FFF0
FFF0
FFF0
FFF0
ENDCHAR
STARTCHAR U+2581
ENCODING 9601
SWIDTH 836 0
DWIDTH 12 0
BBX 12 2 0 -2
BITMAP
FFF0
FFF0
ENDCHAR
STARTCHAR U+2582
ENCODING 9602
SWIDTH 836 0
DWIDTH 12 0
BBX 12 4 0 -2
BITMAP
FFF0
FFF0
FFF0
FFF0
ENDCHAR
STARTCHAR U+2583
ENCODING 9603
SWIDTH 836 0
DWIDTH 12 0
BBX 12 5 0 -2
BITMAP
FFF0
FFF0
FFF0
FFF0
FFF0
ENDCHAR
STARTCHAR U+2584
ENCODING 9604
SWIDTH 836 0
DWIDTH 12 0
BBX 12 6 0 -2
BITMAP
FFF0
FFF0
FFF0
FFF0
FFF0
FFF0
ENDCHAR
STARTCHAR U+2585
ENCODING 9605
SWIDTH 836 0
DWIDTH 12 0
BBX 12 7 0 -2
BITMAP
FFF0
FFF0
FFF0
FFF0
FFF0
FFF0
FFF0
ENDCHAR
STARTCHAR U+2586
ENCODING 9606
SWIDTH 836 0
DWIDTH 12 0
BBX 12 8 0 -2
BITMAP
FFF0
FFF0
FFF0
FFF0
FFF0
FFF0
FFF0
FFF0
ENDCHAR
STARTCHAR U+2587
ENCODING 9607
SWIDTH 836 0
DWIDTH 12 0
BBX 12 10 0 -2
BITMAP
FFF0
FFF0
FFF0
FFF0
FFF0
FFF0
FFF0
FFF0
FFF0
FFF0
ENDCHAR
STARTCHAR U+2588
ENCODING 9608
SWIDTH 836 0
DWIDTH 12 0
BBX 12 12 0 -2
BITMAP
FFF0
FFF0
FFF0
FFF0
FFF0
FFF0
FFF0
FFF0
FFF0
FFF0
FFF0
FFF0
ENDCHAR
STARTCHAR U+2589
ENCODING 9609
SWIDTH 836 0
DWIDTH 12 0
BBX 10 12 0 -2
BITMAP
FFC0
FFC0
FFC0
FFC0
FFC0
FFC0
FFC0
FFC0
FFC0
FFC0
FFC0
FFC0
ENDCHAR
STARTCHAR U+258A
ENCODING 9610
SWIDTH 836 0
DWIDTH 12 0
BBX 8 12 0 -2
BITMAP
FF
FF
FF
FF
FF
FF
FF
FF
FF
FF
FF
FF
ENDCHAR
STARTCHAR U+258B
ENCODING 9611
SWIDTH 836 0
DWIDTH 12 0
BBX 7 12 0 -2
BITMAP
FE
FE
FE
FE
FE
FE
FE
FE
FE
FE
FE
FE
ENDCHAR
STARTCHAR U+258C
ENCODING 9612
SWIDTH 836 0
DWIDTH 12 0
BBX 6 12 0 -2
BITMAP
FC
FC
FC
FC
FC
FC
FC
FC
FC
FC
FC
FC
ENDCHAR
STARTCHAR U+258D
ENCODING 9613
SWIDTH 836 0
DWIDTH 12 0
BBX 5 12 0 -2
BITMAP
F8
F8
F8
F8
F8
F8
F8
F8
F8
F8
F8
F8
ENDCHAR
STARTCHAR U+258E
ENCODING 9614
SWIDTH 836 0
DWIDTH 12 0
BBX 4 12 0 -2
BITMAP
F0
F0
F0
F0
F0
F0
F0
F0
F0
F0
F0
F0
ENDCHAR
STARTCHAR U+258F
ENCODING 9615
SWIDTH 836 0
DWIDTH 12 0
BBX 2 12 0 -2
BITMAP
C0
C0
C0
C0
C0
C0
C0
C0
C0
C0
C0
C0
ENDCHAR
STARTCHAR U+2590
ENCODING 9616
SWIDTH 836 0
DWIDTH 12 0
BBX 6 12 6 -2
BITMAP
FC
FC
FC
FC
FC
FC
FC
FC
FC
FC
FC
FC
ENDCHAR
STARTCHAR U+25A0
ENCODING 9632
SWIDTH 836 0
DWIDTH 12 0
BBX 12 12 0 -2
BITMAP
FFF0
FFF0
FFF0
FFF0
FFF0
FFF0
FFF0
FFF0
FFF0
FFF0
FFF0
FFF0
ENDCHAR
STARTCHAR U+25A1
ENCODING 9633
SWIDTH 836 0
DWIDTH 12 0
BBX 12 12 0 -2
BITMAP
FFF0
8010
8010
8010
8010
8010
8010
8010
8010
8010
8010
FFF0
ENDCHAR
STARTCHAR U+25B2
ENCODING 9650
SWIDTH 836 0
DWIDTH 12 0
BBX 11 10 0 -1
BITMAP
0400
0400
0E00
0E00
1F00
1F00
3F80
3F80
7FC0
FFE0
ENDCHAR
STARTCHAR U+25B3
ENCODING 9651
SWIDTH 836 0
DWIDTH 12 0
BBX 11 10 0 -1
BITMAP
0400
0400
0A00
0A00
1100
1100
2080
2080
4040
FFE0
ENDCHAR
STARTCHAR U+25BC
ENCODING 9660
SWIDTH 836 0
DWIDTH 12 0
BBX 11 10 0 -1
BITMAP
FFE0
7FC0
3F80
3F80
1F00
1F00
0E00
0E00
0400
0400
ENDCHAR
STARTCHAR U+25BD
ENCODING 9661
SWIDTH 836 0
DWIDTH 12 0
BBX 11 10 0 -1
BITMAP
FFE0
4040
2080
2080
1100
1100
0A00
0A00
0400
0400
ENDCHAR
STARTCHAR U+25C6
ENCODING 9670
SWIDTH 836 0
DWIDTH 12 0
BBX 12 12 0 -2
BITMAP
0600
0F00
1F80
3FC0
7FE0
FFF0
FFF0
7FE0
3FC0
1F80
0F00
0600
ENDCHAR
STARTCHAR U+25C7
ENCODING 9671
SWIDTH 836 0
DWIDTH 12 0
BBX 12 12 0 -2
BITMAP
0600
0900
1080
2040
4020
8010
8010
4020
2040
1080
0900
0600
ENDCHAR
STARTCHAR U+25CB
ENCODING 9675
SWIDTH 836 0
DWIDTH 12 0
BBX 12 12 0 -2
BITMAP
0F00
30C0
4020
4020
8010
8010
8010
8010
4020
4020
30C0
0F00
ENDCHAR
STARTCHAR U+25CE
ENCODING 9678
SWIDTH 836 0
DWIDTH 12 0
BBX 12 12 0 -2
BITMAP
0F00
30C0
4020
4F20
9090
9090
9090
9090
4F20
4020
30C0
0F00
ENDCHAR
STARTCHAR U+25CF
ENCODING 9679
SWIDTH 836 0
DWIDTH 12 0
BBX 12 12 0 -2
BITMAP
0F00
3FC0
7FE0
7FE0
FFF0
FFF0
FFF0
FFF0
7FE0
7FE0
3FC0
0F00
ENDCHAR
STARTCHAR U+25EF
ENCODING 9711
SWIDTH 836 0
DWIDTH 12 0
BBX 12 12 0 -2
BITMAP
0F00
30C0
4020
4020
8010
8010
8010
8010
4020
4020
30C0
0F00
ENDCHAR
STARTCHAR U+2603
ENCODING 9731
SWIDTH 836 0
DWIDTH 12 0
BBX 12 12 0 -2
BITMAP
4F10
0F40
7FE0
9690
3DC0
9690
B9D0
FFF0
7DE0
7FE0
3DC0
0F00
ENDCHAR
STARTCHAR U+2604
ENCODING 9732
SWIDTH 836 0
DWIDTH 12 0
BBX 12 12 0 -2
BITMAP
0110
0220
0440
0480
0880
1110
0220
2440
F840
7080
5100
8800
ENDCHAR
STARTCHAR U+2605
ENCODING 9733
SWIDTH 836 0
DWIDTH 12 0
BBX 11 12 0 -2
BITMAP
0400
0400
0E00
0E00
FFE0
7FC0
3F80
1F00
3F80
3B80
71C0
4040
ENDCHAR
STARTCHAR U+2606
ENCODING 9734
SWIDTH 836 0
DWIDTH 12 0
BBX 11 12 0 -2
BITMAP
0400
0400
0A00
0A00
F1E0
4040
2080
1100
2480
2A80
71C0
4040
ENDCHAR
STARTCHAR U+262F
ENCODING 9775
SWIDTH 836 0
DWIDTH 12 0
BBX 12 12 0 -2
BITMAP
0F00
30C0
4020
40A0
B9D0
EC90
C630
EFF0
7FE0
7FE0
3FC0
0F00
ENDCHAR
STARTCHAR U+2640
ENCODING 9792
SWIDTH 836 0
DWIDTH 12 0
BBX 8 12 2 -2
BITMAP
18
24
42
42
24
18
10
FF
10
10
10
10
ENDCHAR
STARTCHAR U+2642
ENCODING 9794
SWIDTH 836 0
DWIDTH 12 0
BBX 11 11 0 -2
BITMAP
03E0
0060
00A0
0120
0220
3400
4800
8400
8400
4800
3000
ENDCHAR
STARTCHAR U+266A
ENCODING 9834
SWIDTH 836 0
DWIDTH 12 0
BBX 8 11 1 -2
BITMAP
08
0C
0E
0B
09
09
0A
78
F0
F0
40
ENDCHAR
STARTCHAR U+266D
ENCODING 9837
SWIDTH 836 0
DWIDTH 12 0
BBX 5 11 4 -2
BITMAP
80
80
80
B0
D8
98
90
B0
A0
C0
80
ENDCHAR
STARTCHAR U+266F
ENCODING 9839
SWIDTH 836 0
DWIDTH 12 0
BBX 8 12 2 -2
BITMAP
04
24
27
3F
FC
E4
27
3F
FC
E4
24
20
ENDCHAR
STARTCHAR U+26A0
ENCODING 9888
SWIDTH 836 0
DWIDTH 12 0
BBX 11 10 0 -1
BITMAP
0400
0400
0A00
0A00
1500
1500
2480
2080
4440
FFE0
ENDCHAR
STARTCHAR U+26E9
ENCODING 9961
SWIDTH 836 0
DWIDTH 12 0
BBX 12 12 0 -2
BITMAP
C030
7FE0
2F40
2F40
7FE0
2040
2040
2040
2040
7060
70E0
70E0
ENDCHAR
STARTCHAR U+2713
ENCODING 10003
SWIDTH 836 0
DWIDTH 12 0
BBX 8 11 2 -1
BITMAP
01
01
02
02
02
84
44
48
28
10
10
ENDCHAR
STARTCHAR U+2E80
ENCODING 11904
SWIDTH 836 0
DWIDTH 12 0
BBX 6 8 2 1
BITMAP
C0
30
0C
04
C0
30
0C
04
ENDCHAR
STARTCHAR U+2E81
ENCODING 11905
SWIDTH 836 0
DWIDTH 12 0
BBX 12 12 0 -2
BITMAP
2070
3FC0
2000
2000
2000
2000
2000
2000
2000
4000
4000
8000
ENDCHAR
STARTCHAR U+2E82
ENCODING 11906
SWIDTH 836 0
DWIDTH 12 0
BBX 12 6 0 1
BITMAP
0020
FFF0
0040
0080
0080
0100
ENDCHAR
STARTCHAR U+2E83
ENCODING 11907
SWIDTH 836 0
DWIDTH 12 0
BBX 10 12 1 -2
BITMAP
C000
8000
8000
8000
8000
8000
8000
8000
8000
8080
8080
7FC0
ENDCHAR
STARTCHAR U+2E84
ENCODING 11908
SWIDTH 836 0
DWIDTH 12 0
BBX 12 12 0 -2
BITMAP
0040
FFE0
0040
0040
0040
0040
0040
0040
0050
0020
0020
0010
ENDCHAR
STARTCHAR U+2E85
ENCODING 11909
SWIDTH 836 0
DWIDTH 12 0
BBX 6 12 3 -2
BITMAP
0C
08
10
10
30
50
90
10
10
10
10
10
ENDCHAR
STARTCHAR U+2E86
ENCODING 11910
SWIDTH 836 0
DWIDTH 12 0
BBX 12 12 0 -2
BITMAP
0820
0FF0
0820
0820
0820
0820
0820
0820
1020
1020
21E0
C040
ENDCHAR
STARTCHAR U+2E87
ENCODING 11911
SWIDTH 836 0
DWIDTH 12 0
BBX 12 12 0 -2
BITMAP
2040
3FE0
2040
2040
2040
2040
2040
2040
2050
4060
4020
8010
ENDCHAR
STARTCHAR U+2E88
ENCODING 11912
SWIDTH 836 0
DWIDTH 12 0
BBX 12 9 0 1
BITMAP
0600
0400
0420
0FF0
0820
1060
2040
C080
0100
ENDCHAR
STARTCHAR U+2E89
ENCODING 11913
SWIDTH 836 0
DWIDTH 12 0
BBX 6 12 3 -2
BITMAP
0C
C8
88
88
88
88
88
88
88
08
78
10
ENDCHAR
STARTCHAR U+2E8A
ENCODING 11914
SWIDTH 836 0
DWIDTH 12 0
BBX 6 12 4 -2
BITMAP
C0
80
80
80
88
FC
80
80
80
80
80
80
ENDCHAR
STARTCHAR U+2E8B
ENCODING 11915
SWIDTH 836 0
DWIDTH 12 0
BBX 9 9 2 -2
BITMAP
8200
FF00
8200
8200
8E00
8400
8100
8100
7F80
ENDCHAR
STARTCHAR U+2E8C
ENCODING 11916
SWIDTH 836 0
DWIDTH 12 0
BBX 10 5 1 5
BITMAP
8CC0
4980
6900
2A00
0800
ENDCHAR
STARTCHAR U+2E8D
ENCODING 11917
SWIDTH 836 0
DWIDTH 12 0
BBX 9 4 2 6
BITMAP
2180
9900
6900
2200
ENDCHAR
STARTCHAR U+2E8E
ENCODING 11918
SWIDTH 836 0
DWIDTH 12 0
BBX 12 11 0 -2
BITMAP
0020
FFF0
0900
0900
0900
0900
0900
1100
1120
2120
C0F0
ENDCHAR
STARTCHAR U+2E8F
ENCODING 11919
SWIDTH 836 0
DWIDTH 12 0
BBX 12 12 0 -2
BITMAP
1300
1880
3040
2020
4DB0
8910
0900
0900
1900
1120
2120
C0F0
ENDCHAR
STARTCHAR U+2E90
ENCODING 11920
SWIDTH 836 0
DWIDTH 12 0
BBX 12 12 0 -2
BITMAP
0600
0400
0420
FFF0
0400
0700
0600
0600
0A00
0A20
1220
E1F0
ENDCHAR
STARTCHAR U+2E91
ENCODING 11921
SWIDTH 836 0
DWIDTH 12 0
BBX 12 12 0 -2
BITMAP
1B00
1080
3040
2020
4930
8F90
0900
0900
1100
1120
2120
C0F0
ENDCHAR
STARTCHAR U+2E92
ENCODING 11922
SWIDTH 836 0
DWIDTH 12 0
BBX 10 12 2 -2
BITMAP
8100
FF80
8100
8100
8100
FF00
8100
8000
8000
8080
8080
7FC0
ENDCHAR
STARTCHAR U+2E93
ENCODING 11923
SWIDTH 836 0
DWIDTH 12 0
BBX 12 12 0 -2
BITMAP
0600
0400
08C0
0880
1100
7E00
2200
0440
0820
10E0
FF30
4010
ENDCHAR
STARTCHAR U+2E94
ENCODING 11924
SWIDTH 836 0
DWIDTH 12 0
BBX 12 11 0 -1
BITMAP
1800
1000
1080
1FC0
1080
2080
3F00
2100
0100
0120
FFF0
ENDCHAR
STARTCHAR U+2E95
ENCODING 11925
SWIDTH 836 0
DWIDTH 12 0
BBX 12 10 0 -1
BITMAP
0020
FFF0
0020
0020
FFE0
0020
0020
0020
FFE0
0020
ENDCHAR
STARTCHAR U+2E96
ENCODING 11926
SWIDTH 836 0
DWIDTH 12 0
BBX 6 12 2 -2
BITMAP
18
10
50
70
5C
54
90
10
10
10
10
10
ENDCHAR
STARTCHAR U+2E97
ENCODING 11927
SWIDTH 836 0
DWIDTH 12 0
BBX 12 9 0 -2
BITMAP
0600
2400
3640
2520
65B0
4490
8400
1C00
0800
ENDCHAR
STARTCHAR U+2E98
ENCODING 11928
SWIDTH 836 0
DWIDTH 12 0
BBX 7 12 2 -2
BITMAP
18
14
FE
10
10
1E
F0
90
10
10
F0
20
ENDCHAR
STARTCHAR U+2E99
ENCODING 11929
SWIDTH 836 0
DWIDTH 12 0
BBX 12 12 0 -2
BITMAP
0C00
0820
1FF0
1080
2880
4900
8900
0600
0200
0500
18F0
E020
ENDCHAR
STARTCHAR U+2E9B
ENCODING 11931
SWIDTH 836 0
DWIDTH 12 0
BBX 12 12 0 -2
BITMAP
0020
7FF0
0200
3200
2220
3FF0
4200
0580
0500
0920
1120
E0F0
ENDCHAR
STARTCHAR U+2E9C
ENCODING 11932
SWIDTH 836 0
DWIDTH 12 0
BBX 11 6 1 4
BITMAP
8040
FFE0
8040
BF40
8040
BF40
ENDCHAR
STARTCHAR U+2E9D
ENCODING 11933
SWIDTH 836 0
DWIDTH 12 0
BBX 9 12 2 -2
BITMAP
8100
FF80
8100
8100
FF00
8100
8100
FF00
8100
8100
8700
8200
ENDCHAR
STARTCHAR U+2E9E
ENCODING 11934
SWIDTH 836 0
DWIDTH 12 0
BBX 12 12 0 -2
BITMAP
0300
0220
1BF0
1240
3FE0
2840
4480
8680
0100
0200
0C00
7000
ENDCHAR
STARTCHAR U+2E9F
ENCODING 11935
SWIDTH 836 0
DWIDTH 12 0
BBX 12 12 0 -2
BITMAP
1040
1FE0
1440
1250
FFF0
1040
2640
22A0
3FF0
2080
0380
0100
ENDCHAR
STARTCHAR U+2EA0
ENCODING 11936
SWIDTH 836 0
DWIDTH 12 0
BBX 11 12 1 -2
BITMAP
4080
7FC0
4080
7F80
4480
4440
7FE0
4200
4220
5940
E0C0
8060
ENDCHAR
STARTCHAR U+2EA1
ENCODING 11937
SWIDTH 836 0
DWIDTH 12 0
BBX 4 12 3 -2
BITMAP
40
30
10
80
60
20
10
20
E0
40
40
40
ENDCHAR
STARTCHAR U+2EA2
ENCODING 11938
SWIDTH 836 0
DWIDTH 12 0
BBX 12 12 0 -2
BITMAP
0300
0200
2260
1A40
0A80
0200
0EC0
F230
4210
0200
0E00
0400
ENDCHAR
STARTCHAR U+2EA3
ENCODING 11939
SWIDTH 836 0
DWIDTH 12 0
BBX 12 2 0 -2
BITMAP
2920
CDB0
ENDCHAR
STARTCHAR U+2EA4
ENCODING 11940
SWIDTH 836 0
DWIDTH 12 0
BBX 12 5 0 5
BITMAP
0020
01F0
FE40
24C0
3680
ENDCHAR
STARTCHAR U+2EA5
ENCODING 11941
SWIDTH 836 0
DWIDTH 12 0
BBX 12 5 0 5
BITMAP
0020
21F0
3F40
2470
C420
ENDCHAR
STARTCHAR U+2EA6
ENCODING 11942
SWIDTH 836 0
DWIDTH 12 0
BBX 8 12 1 -2
BITMAP
03
22
12
1A
0A
02
02
0E
F2
42
02
02
ENDCHAR
STARTCHAR U+2EA7
ENCODING 11943
SWIDTH 836 0
DWIDTH 12 0
BBX 12 6 0 4
BITMAP
3300
2240
3FE0
4200
0220
FFF0
ENDCHAR
STARTCHAR U+2EA8
ENCODING 11944
SWIDTH 836 0
DWIDTH 12 0
BBX 6 13 2 -3
BITMAP
4C
28
10
30
C8
08
14
24
C4
04
08
38
10
ENDCHAR
STARTCHAR U+2EA9
ENCODING 11945
SWIDTH 836 0
DWIDTH 12 0
BBX 8 12 2 -2
BITMAP
02
FF
08
08
0A
7F
08
08
08
0F
F0
40
ENDCHAR
STARTCHAR U+2EAA
ENCODING 11946
SWIDTH 836 0
DWIDTH 12 0
BBX 8 12 2 -2
BITMAP
02
7F
02
0C
28
2A
2F
28
28
2F
F8
40
ENDCHAR
STARTCHAR U+2EAB
ENCODING 11947
SWIDTH 836 0
DWIDTH 12 0
BBX 11 6 1 4
BITMAP
8040
FFE0
9240
9240
FFC0
8040
ENDCHAR
STARTCHAR U+2EAC
ENCODING 11948
SWIDTH 836 0
DWIDTH 12 0
BBX 7 12 3 -2
BITMAP
04
7E
00
04
FE
10
76
54
54
54
54
90
ENDCHAR
STARTCHAR U+2EAD
ENCODING 11949
SWIDTH 836 0
DWIDTH 12 0
BBX 8 12 2 -2
BITMAP
18
0A
7F
02
04
08
1C
2B
C9
08
08
08
ENDCHAR
STARTCHAR U+2EAE
ENCODING 11950
SWIDTH 836 0
DWIDTH 12 0
BBX 12 5 0 5
BITMAP
3180
2520
3FF0
5AC0
8420
ENDCHAR
STARTCHAR U+2EAF
ENCODING 11951
SWIDTH 836 0
DWIDTH 12 0
BBX 7 12 3 -2
BITMAP
18
10
2C
28
F4
54
2E
F2
A4
56
DA
88
ENDCHAR
STARTCHAR U+2EB0
ENCODING 11952
SWIDTH 836 0
DWIDTH 12 0
BBX 5 12 3 -2
BITMAP
30
20
58
50
E0
A0
58
E0
80
38
E0
80
ENDCHAR
STARTCHAR U+2EB1
ENCODING 11953
SWIDTH 836 0
DWIDTH 12 0
BBX 9 5 2 5
BITMAP
8100
FF80
B500
8900
B500
ENDCHAR
STARTCHAR U+2EB2
ENCODING 11954
SWIDTH 836 0
DWIDTH 12 0
BBX 10 5 1 5
BITMAP
8080
FFC0
9480
FF80
8080
ENDCHAR
STARTCHAR U+2EB3
ENCODING 11955
SWIDTH 836 0
DWIDTH 12 0
BBX 12 4 0 6
BITMAP
4020
7FF0
C9A0
3040
ENDCHAR
STARTCHAR U+2EB4
ENCODING 11956
SWIDTH 836 0
DWIDTH 12 0
BBX 12 12 0 -2
BITMAP
4020
7FF0
C920
8940
0900
0900
0900
0900
1120
1120
2120
40F0
ENDCHAR
STARTCHAR U+2EB5
ENCODING 11957
SWIDTH 836 0
DWIDTH 12 0
BBX 11 12 1 -2
BITMAP
8040
FFE0
9240
9240
9240
9240
9240
9240
9240
9240
9240
8040
ENDCHAR
STARTCHAR U+2EB6
ENCODING 11958
SWIDTH 836 0
DWIDTH 12 0
BBX 12 9 0 1
BITMAP
19A0
7FE0
0240
3FC0
0420
FFF0
0800
3000
C000
ENDCHAR
STARTCHAR U+2EB7
ENCODING 11959
SWIDTH 836 0
DWIDTH 12 0
BBX 11 6 0 4
BITMAP
1980
7FE0
0200
3FC0
0200
FFE0
ENDCHAR
STARTCHAR U+2EB8
ENCODING 11960
SWIDTH 836 0
DWIDTH 12 0
BBX 12 12 0 -2
BITMAP
0D80
0940
79E0
0900
0020
FFF0
0200
0240
7FE0
0200
0200
0200
ENDCHAR
STARTCHAR U+2EB9
ENCODING 11961
SWIDTH 836 0
DWIDTH 12 0
BBX 12 10 0 0
BITMAP
0600
0560
7FC0
04A0
FFF0
0200
0400
0800
3000
C000
ENDCHAR
STARTCHAR U+2EBA
ENCODING 11962
SWIDTH 836 0
DWIDTH 12 0
BBX 12 12 0 -2
BITMAP
0600
0480
3FC0
04A0
FFF0
0480
3F80
0480
0400
0400
0400
0400
ENDCHAR
STARTCHAR U+2EBB
ENCODING 11963
SWIDTH 836 0
DWIDTH 12 0
BBX 12 9 0 1
BITMAP
0600
0480
3FC0
04A0
FFF0
0480
3F80
0420
FFF0
ENDCHAR
STARTCHAR U+2EBC
ENCODING 11964
SWIDTH 836 0
DWIDTH 12 0
BBX 11 12 0 -2
BITMAP
0840
0FE0
0840
0A40
0940
0940
0A40
0940
1140
1040
21C0
C080
ENDCHAR
STARTCHAR U+2EBD
ENCODING 11965
SWIDTH 836 0
DWIDTH 12 0
BBX 11 12 1 -2
BITMAP
1040
BBE0
C040
8040
9040
FBC0
8040
8040
8040
9040
FBC0
8040
ENDCHAR
STARTCHAR U+2EBE
ENCODING 11966
SWIDTH 836 0
DWIDTH 12 0
BBX 12 5 0 5
BITMAP
0D80
0920
FFF0
0900
0900
ENDCHAR
STARTCHAR U+2EBF
ENCODING 11967
SWIDTH 836 0
DWIDTH 12 0
BBX 12 5 0 5
BITMAP
0CC0
08A0
FDF0
0880
0880
ENDCHAR
STARTCHAR U+2EC0
ENCODING 11968
SWIDTH 836 0
DWIDTH 12 0
BBX 12 5 0 5
BITMAP
0D80
0920
F9F0
0900
0900
ENDCHAR
STARTCHAR U+2EC1
ENCODING 11969
SWIDTH 836 0
DWIDTH 12 0
BBX 12 12 0 -2
BITMAP
0440
07E0
2420
3FF0
2240
3FE0
2220
29F0
4F00
4920
9120
60F0
ENDCHAR
STARTCHAR U+2EC2
ENCODING 11970
SWIDTH 836 0
DWIDTH 12 0
BBX 10 12 1 -2
BITMAP
0C00
0500
7F80
0100
0200
0580
1D00
E700
04C0
0440
0400
0400
ENDCHAR
STARTCHAR U+2EC3
ENCODING 11971
SWIDTH 836 0
DWIDTH 12 0
BBX 12 7 0 3
BITMAP
0020
FFF0
0900
3FE0
2940
3FC0
2040
ENDCHAR
STARTCHAR U+2EC4
ENCODING 11972
SWIDTH 836 0
DWIDTH 12 0
BBX 12 12 0 -2
BITMAP
0020
FFF0
0A00
4A20
7FF0
4A20
4AA0
52A0
61E0
4020
7FE0
4020
ENDCHAR
STARTCHAR U+2EC5
ENCODING 11973
SWIDTH 836 0
DWIDTH 12 0
BBX 12 12 0 -2
BITMAP
2080
3FC0
2080
2680
2480
2480
2480
2B80
2A80
1220
2220
C1F0
ENDCHAR
STARTCHAR U+2EC6
ENCODING 11974
SWIDTH 836 0
DWIDTH 12 0
BBX 11 12 0 -2
BITMAP
1100
1F80
2240
3FE0
6440
BFC0
2440
3FC0
2440
4440
45C0
8080
ENDCHAR
STARTCHAR U+2EC7
ENCODING 11975
SWIDTH 836 0
DWIDTH 12 0
BBX 11 12 0 -2
BITMAP
1100
1F80
2240
3FE0
6440
A640
2940
3440
2640
4940
51C0
8080
ENDCHAR
STARTCHAR U+2EC8
ENCODING 11976
SWIDTH 836 0
DWIDTH 12 0
BBX 6 12 2 -2
BITMAP
20
18
08
10
F8
10
10
10
10
14
38
20
ENDCHAR
STARTCHAR U+2EC9
ENCODING 11977
SWIDTH 836 0
DWIDTH 12 0
BBX 11 12 0 -2
BITMAP
2080
3FC0
2080
2680
2480
2480
2480
2480
2680
0980
3060
C020
ENDCHAR
STARTCHAR U+2ECA
ENCODING 11978
SWIDTH 836 0
DWIDTH 12 0
BBX 7 12 3 -2
BITMAP
44
7E
44
44
7C
10
74
5E
50
5E
F0
80
ENDCHAR
STARTCHAR U+2ECB
ENCODING 11979
SWIDTH 836 0
DWIDTH 12 0
BBX 12 12 0 -2
BITMAP
0C00
0840
FFE0
1000
1600
2480
3FC0
0420
FFF0
0400
0400
0400
ENDCHAR
STARTCHAR U+2ECC
ENCODING 11980
SWIDTH 836 0
DWIDTH 12 0
BBX 12 12 0 -2
BITMAP
4000
2000
3000
0000
2000
F000
2000
2000
2000
3000
C800
87F0
ENDCHAR
STARTCHAR U+2ECD
ENCODING 11981
SWIDTH 836 0
DWIDTH 12 0
BBX 12 12 0 -2
BITMAP
4000
2000
A000
4000
6000
2000
F000
2000
2000
3000
C800
87F0
ENDCHAR
STARTCHAR U+2ECE
ENCODING 11982
SWIDTH 836 0
DWIDTH 12 0
BBX 12 12 0 -2
BITMAP
4000
2000
3000
0000
2000
F000
2000
4000
F000
2000
5000
8FF0
ENDCHAR
STARTCHAR U+2ECF
ENCODING 11983
SWIDTH 836 0
DWIDTH 12 0
BBX 5 12 4 -2
BITMAP
90
F8
90
90
A0
90
90
90
F0
A0
80
80
ENDCHAR
STARTCHAR U+2ED0
ENCODING 11984
SWIDTH 836 0
DWIDTH 12 0
BBX 7 12 3 -2
BITMAP
30
24
3E
48
7C
94
7E
10
12
1C
70
20
ENDCHAR
STARTCHAR U+2ED1
ENCODING 11985
SWIDTH 836 0
DWIDTH 12 0
BBX 12 12 0 -2
BITMAP
1040
1FE0
1080
1FC0
1080
1FC0
1020
FFF0
14C0
1300
FDF0
4020
ENDCHAR
STARTCHAR U+2ED2
ENCODING 11986
SWIDTH 836 0
DWIDTH 12 0
BBX 12 12 0 -2
BITMAP
1040
1FE0
1080
1FC0
1080
1FC0
1020
FFF0
1880
13C0
7C60
2020
ENDCHAR
STARTCHAR U+2ED3
ENCODING 11987
SWIDTH 836 0
DWIDTH 12 0
BBX 12 12 0 -2
BITMAP
1880
10C0
1100
1600
1020
FFF0
1400
1200
1200
1180
3C70
2020
ENDCHAR
STARTCHAR U+2ED4
ENCODING 11988
SWIDTH 836 0
DWIDTH 12 0
BBX 11 12 1 -2
BITMAP
C040
5FE0
0040
C040
8040
8040
8040
8040
8040
8040
81C0
8080
ENDCHAR
STARTCHAR U+2ED5
ENCODING 11989
SWIDTH 836 0
DWIDTH 12 0
BBX 10 12 2 -2
BITMAP
3000
A200
FF00
8200
FE00
8100
FF80
8100
FFC0
8080
FF80
8080
ENDCHAR
STARTCHAR U+2ED6
ENCODING 11990
SWIDTH 836 0
DWIDTH 12 0
BBX 5 12 4 -2
BITMAP
90
F8
90
A0
C0
A0
90
90
F0
A0
80
80
ENDCHAR
STARTCHAR U+2ED7
ENCODING 11991
SWIDTH 836 0
DWIDTH 12 0
BBX 12 8 0 2
BITMAP
0040
3FE0
4420
7FF0
C420
35C0
0400
35C0
ENDCHAR
STARTCHAR U+2ED8
ENCODING 11992
SWIDTH 836 0
DWIDTH 12 0
BBX 12 12 0 -2
BITMAP
0440
7FE0
0400
3FC0
0420
FFF0
1080
1F80
1080
1F80
1080
1180
ENDCHAR
STARTCHAR U+2ED9
ENCODING 11993
SWIDTH 836 0
DWIDTH 12 0
BBX 12 12 0 -2
BITMAP
0600
0420
7FF0
0480
3FC0
0420
FFF0
0420
0420
04E0
0440
0400
ENDCHAR
STARTCHAR U+2EDA
ENCODING 11994
SWIDTH 836 0
DWIDTH 12 0
BBX 12 12 0 -2
BITMAP
0020
FFF0
0600
2480
3FC0
2080
2680
2480
2480
0B00
10E0
E020
ENDCHAR
STARTCHAR U+2EDB
ENCODING 11995
SWIDTH 836 0
DWIDTH 12 0
BBX 12 12 0 -2
BITMAP
1080
1FC0
1080
1380
1A80
1680
1280
15C0
2550
2860
5030
8010
ENDCHAR
STARTCHAR U+2EDC
ENCODING 11996
SWIDTH 836 0
DWIDTH 12 0
BBX 12 12 0 -2
BITMAP
0100
FF80
0160
0140
0180
0100
01C0
0160
0080
0090
0060
0030
ENDCHAR
STARTCHAR U+2EDD
ENCODING 11997
SWIDTH 836 0
DWIDTH 12 0
BBX 12 12 0 -2
BITMAP
0600
0500
0A80
3FF0
D0A0
1F80
1080
1FC0
1640
1180
7C60
2020
ENDCHAR
STARTCHAR U+2EDE
ENCODING 11998
SWIDTH 836 0
DWIDTH 12 0
BBX 5 12 0 -2
BITMAP
30
28
78
80
78
48
78
40
78
40
78
40
ENDCHAR
STARTCHAR U+2EDF
ENCODING 11999
SWIDTH 836 0
DWIDTH 12 0
BBX 5 12 0 -2
BITMAP
30
28
50
F8
48
78
48
78
50
58
E8
80
ENDCHAR
STARTCHAR U+2EE0
ENCODING 12000
SWIDTH 836 0
DWIDTH 12 0
BBX 6 12 0 -2
BITMAP
60
48
7C
48
B0
20
20
20
20
38
60
40
ENDCHAR
STARTCHAR U+2EE1
ENCODING 12001
SWIDTH 836 0
DWIDTH 12 0
BBX 12 12 0 -2
BITMAP
36C0
6D80
1260
FFF0
0600
3FE0
2040
3FC0
2040
3FC0
2040
3FC0
ENDCHAR
STARTCHAR U+2EE2
ENCODING 12002
SWIDTH 836 0
DWIDTH 12 0
BBX 12 12 0 -2
BITMAP
0080
7FC0
0080
1880
1100
1120
3FF0
0120
FFA0
0040
01C0
0080
ENDCHAR
STARTCHAR U+2EE3
ENCODING 12003
SWIDTH 836 0
DWIDTH 12 0
BBX 12 12 0 -2
BITMAP
1080
1FC0
52A0
7FF0
C020
1FC0
1080
1F80
1080
1F80
1080
1180
ENDCHAR
STARTCHAR U+2EE4
ENCODING 12004
SWIDTH 836 0
DWIDTH 12 0
BBX 12 12 0 -2
BITMAP
0C00
2840
3FE0
2440
3FC0
2440
3FC0
2AA0
0AE0
1390
2220
C1F0
ENDCHAR
STARTCHAR U+2EE5
ENCODING 12005
SWIDTH 836 0
DWIDTH 12 0
BBX 12 11 0 -1
BITMAP
0880
1FC0
1100
3FE0
5240
1FC0
1240
1240
1FC0
0020
FFF0
ENDCHAR
STARTCHAR U+2EE6
ENCODING 12006
SWIDTH 836 0
DWIDTH 12 0
BBX 12 12 0 -2
BITMAP
0600
1440
1FE0
1640
15C0
10A0
1FF0
0120
FFA0
0060
03C0
0080
ENDCHAR
STARTCHAR U+2EE7
ENCODING 12007
SWIDTH 836 0
DWIDTH 12 0
BBX 10 12 2 -2
BITMAP
1800
1080
1FC0
9100
FF80
8500
B500
8900
9D00
A500
FF00
8100
ENDCHAR
STARTCHAR U+2EE8
ENCODING 12008
SWIDTH 836 0
DWIDTH 12 0
BBX 12 12 0 -2
BITMAP
0440
7FE0
0480
3FC0
0420
FFF0
0880
1FC0
6900
0600
0DF0
F020
ENDCHAR
STARTCHAR U+2EE9
ENCODING 12009
SWIDTH 836 0
DWIDTH 12 0
BBX 12 12 0 -2
BITMAP
0900
7FC0
0920
FFF0
0400
3FC0
2480
3F80
2480
3F80
18C0
E060
ENDCHAR
STARTCHAR U+2EEA
ENCODING 12010
SWIDTH 836 0
DWIDTH 12 0
BBX 11 12 1 -2
BITMAP
4100
7F80
4100
7F00
8880
FFC0
8880
FF80
8880
FFC0
8840
07E0
ENDCHAR
STARTCHAR U+2EEB
ENCODING 12011
SWIDTH 836 0
DWIDTH 12 0
BBX 12 12 0 -2
BITMAP
0440
FFE0
1100
0A00
0E00
31F0
DF20
1100
1F00
1100
2100
4100
ENDCHAR
STARTCHAR U+2EEC
ENCODING 12012
SWIDTH 836 0
DWIDTH 12 0
BBX 12 12 0 -2
BITMAP
0440
FFE0
1100
0A00
0E00
31F0
D9A0
1100
1100
1100
2100
4100
ENDCHAR
STARTCHAR U+2EED
ENCODING 12013
SWIDTH 836 0
DWIDTH 12 0
BBX 12 12 0 -2
BITMAP
0600
3480
27C0
2420
FFF0
1580
2D60
3FC0
2D40
34C0
3FC0
2040
ENDCHAR
STARTCHAR U+2EEE
ENCODING 12014
SWIDTH 836 0
DWIDTH 12 0
BBX 12 12 0 -2
BITMAP
0600
3480
27C0
2420
FFF0
0400
3460
2B40
2940
3040
3FC0
2040
ENDCHAR
STARTCHAR U+2EEF
ENCODING 12015
SWIDTH 836 0
DWIDTH 12 0
BBX 12 12 0 -2
BITMAP
0480
7FC0
0920
FFF0
2080
3FC0
2480
3F80
2480
3FA0
2420
03F0
ENDCHAR
STARTCHAR U+2EF0
ENCODING 12016
SWIDTH 836 0
DWIDTH 12 0
BBX 12 12 0 -2
BITMAP
0680
04C0
0420
FFF0
0800
0B60
0A40
1280
1300
2620
5A20
81F0
ENDCHAR
STARTCHAR U+2EF1
ENCODING 12017
SWIDTH 836 0
DWIDTH 12 0
BBX 12 12 0 -2
BITMAP
3F00
2200
7FC0
AAA0
FBF0
2B60
FAA0
2B60
FBE0
2A20
E820
27F0
ENDCHAR
STARTCHAR U+2EF2
ENCODING 12018
SWIDTH 836 0
DWIDTH 12 0
BBX 12 12 0 -2
BITMAP
0900
1FC0
3480
DF80
1480
3FE0
2440
3FC0
2440
3FE0
2420
03F0
ENDCHAR
STARTCHAR U+2EF3
ENCODING 12019
SWIDTH 836 0
DWIDTH 12 0
BBX 12 12 0 -2
BITMAP
0C00
0880
1FC0
2100
FFE0
2440
3FC0
2440
3FC0
2460
0420
03F0
ENDCHAR
STARTCHAR U+2F00
ENCODING 12032
SWIDTH 836 0
DWIDTH 12 0
BBX 12 3 0 4
BITMAP
0040
00E0
FFF0
ENDCHAR
STARTCHAR U+2F01
ENCODING 12033
SWIDTH 836 0
DWIDTH 12 0
BBX 3 12 5 -2
BITMAP
E0
C0
C0
C0
C0
C0
C0
C0
C0
C0
C0
C0
ENDCHAR
STARTCHAR U+2F02
ENCODING 12034
SWIDTH 836 0
DWIDTH 12 0
BBX 6 7 3 1
BITMAP
80
40
20
30
18
0C
0C
ENDCHAR
STARTCHAR U+2F03
ENCODING 12035
SWIDTH 836 0
DWIDTH 12 0
BBX 7 12 1 -2
BITMAP
0E
0C
0C
0C
0C
0C
0C
0C
08
18
30
C0
ENDCHAR
STARTCHAR U+2F04
ENCODING 12036
SWIDTH 836 0
DWIDTH 12 0
BBX 12 12 0 -2
BITMAP
0180
FFC0
0300
0600
0C00
1800
3000
2020
6020
4030
7FF0
3FE0
ENDCHAR
STARTCHAR U+2F05
ENCODING 12037
SWIDTH 836 0
DWIDTH 12 0
BBX 5 12 3 -2
BITMAP
38
30
30
30
30
30
30
30
30
30
F0
60
ENDCHAR
STARTCHAR U+2F06
ENCODING 12038
SWIDTH 836 0
DWIDTH 12 0
BBX 12 9 0 0
BITMAP
0180
3FC0
0000
0000
0000
0000
0000
0060
FFF0
ENDCHAR
STARTCHAR U+2F07
ENCODING 12039
SWIDTH 836 0
DWIDTH 12 0
BBX 12 4 0 6
BITMAP
0C00
0600
0660
FFF0
ENDCHAR
STARTCHAR U+2F08
ENCODING 12040
SWIDTH 836 0
DWIDTH 12 0
BBX 12 12 0 -2
BITMAP
0700
0600
0600
0600
0600
0700
0D00
0D80
0C80
18F0
3060
C020
ENDCHAR
STARTCHAR U+2F09
ENCODING 12041
SWIDTH 836 0
DWIDTH 12 0
BBX 12 12 0 -2
BITMAP
1B80
1B00
1B00
1B00
1B00
1B00
1B00
1B00
1320
3320
23F0
C1F0
ENDCHAR
STARTCHAR U+2F0A
ENCODING 12042
SWIDTH 836 0
DWIDTH 12 0
BBX 12 12 0 -2
BITMAP
0800
0400
0600
0200
0700
0700
0D00
0D80
18C0
10F0
2060
C020
ENDCHAR
STARTCHAR U+2F0B
ENCODING 12043
SWIDTH 836 0
DWIDTH 12 0
BBX 12 12 0 -2
BITMAP
0B00
0D00
0D00
0D00
0D00
1980
1880
1080
30C0
2070
4060
8020
ENDCHAR
STARTCHAR U+2F0C
ENCODING 12044
SWIDTH 836 0
DWIDTH 12 0
BBX 11 12 1 -2
BITMAP
80C0
FFE0
C0C0
C0C0
C0C0
C0C0
C0C0
C0C0
C0C0
C0C0
C3C0
C180
ENDCHAR
STARTCHAR U+2F0D
ENCODING 12045
SWIDTH 836 0
DWIDTH 12 0
BBX 12 4 0 6
BITMAP
4060
7FF0
C060
C040
ENDCHAR
STARTCHAR U+2F0E
ENCODING 12046
SWIDTH 836 0
DWIDTH 12 0
BBX 6 12 3 -2
BITMAP
40
20
30
14
08
08
10
B0
60
20
30
30
ENDCHAR
STARTCHAR U+2F0F
ENCODING 12047
SWIDTH 836 0
DWIDTH 12 0
BBX 12 12 0 -2
BITMAP
2300
3F80
3300
3300
3300
3300
3300
3300
3320
2320
23F0
C1F0
ENDCHAR
STARTCHAR U+2F10
ENCODING 12048
SWIDTH 836 0
DWIDTH 12 0
BBX 11 12 1 -2
BITMAP
E0E0
C0C0
C0C0
C0C0
C0C0
C0C0
C0C0
C0C0
C0C0
C0C0
FFC0
C0C0
ENDCHAR
STARTCHAR U+2F11
ENCODING 12049
SWIDTH 836 0
DWIDTH 12 0
BBX 11 12 0 -2
BITMAP
00C0
FFE0
18C0
18C0
18C0
18C0
18C0
30C0
30C0
2180
4780
8300
ENDCHAR
STARTCHAR U+2F12
ENCODING 12050
SWIDTH 836 0
DWIDTH 12 0
BBX 12 12 0 -2
BITMAP
0E00
0C00
0C60
FFF0
0C60
0C60
0C60
0860
1860
10C0
23C0
C180
ENDCHAR
STARTCHAR U+2F13
ENCODING 12051
SWIDTH 836 0
DWIDTH 12 0
BBX 12 12 0 -2
BITMAP
1C00
1860
1FF0
3060
2060
4060
8060
0060
00C0
00C0
0780
0300
ENDCHAR
STARTCHAR U+2F14
ENCODING 12052
SWIDTH 836 0
DWIDTH 12 0
BBX 10 12 1 -2
BITMAP
E000
C000
C100
C380
C700
CC00
F000
C000
C080
C080
7FC0
3FC0
ENDCHAR
STARTCHAR U+2F15
ENCODING 12053
SWIDTH 836 0
DWIDTH 12 0
BBX 11 12 1 -2
BITMAP
8180
FFC0
C000
C000
C000
C000
C000
C000
C000
C0C0
FFE0
C000
ENDCHAR
STARTCHAR U+2F16
ENCODING 12054
SWIDTH 836 0
DWIDTH 12 0
BBX 12 11 0 -2
BITMAP
0060
FFF0
6000
6000
6000
6000
6000
6000
6000
7FF0
3FF0
ENDCHAR
STARTCHAR U+2F17
ENCODING 12055
SWIDTH 836 0
DWIDTH 12 0
BBX 12 12 0 -2
BITMAP
0700
0600
0600
0600
0660
FFF0
0600
0600
0600
0600
0600
0600
ENDCHAR
STARTCHAR U+2F18
ENCODING 12056
SWIDTH 836 0
DWIDTH 12 0
BBX 6 12 5 -2
BITMAP
E0
C0
C0
C0
F0
DC
CC
C0
C0
C0
C0
C0
ENDCHAR
STARTCHAR U+2F19
ENCODING 12057
SWIDTH 836 0
DWIDTH 12 0
BBX 7 12 3 -2
BITMAP
8C
FE
CC
CC
CC
CC
CC
FC
D8
C0
C0
C0
ENDCHAR
STARTCHAR U+2F1A
ENCODING 12058
SWIDTH 836 0
DWIDTH 12 0
BBX 12 12 0 -2
BITMAP
2060
3FF0
3000
3000
3000
3000
3000
3000
2000
6000
4000
8000
ENDCHAR
STARTCHAR U+2F1B
ENCODING 12059
SWIDTH 836 0
DWIDTH 12 0
BBX 12 12 0 -2
BITMAP
0700
0600
0600
0600
0C00
0C00
1900
1080
2040
FFE0
7C70
4030
ENDCHAR
STARTCHAR U+2F1C
ENCODING 12060
SWIDTH 836 0
DWIDTH 12 0
BBX 12 11 0 -2
BITMAP
0180
7FC0
1180
1180
0B00
0B00
0600
0700
09F0
30E0
C020
ENDCHAR
STARTCHAR U+2F1D
ENCODING 12061
SWIDTH 836 0
DWIDTH 12 0
BBX 10 11 1 -2
BITMAP
8180
FFC0
C180
C180
C180
C180
C180
C180
C180
FF80
C180
ENDCHAR
STARTCHAR U+2F1E
ENCODING 12062
SWIDTH 836 0
DWIDTH 12 0
BBX 11 12 1 -2
BITMAP
80C0
FFE0
C0C0
C0C0
C0C0
C0C0
C0C0
C0C0
C0C0
C0C0
FFC0
C0C0
ENDCHAR
STARTCHAR U+2F1F
ENCODING 12063
SWIDTH 836 0
DWIDTH 12 0
BBX 12 11 0 -1
BITMAP
0700
0600
0600
06C0
7FE0
0600
0600
0600
0600
0660
FFF0
ENDCHAR
STARTCHAR U+2F20
ENCODING 12064
SWIDTH 836 0
DWIDTH 12 0
BBX 12 11 0 -1
BITMAP
0700
0600
0600
0660
FFF0
0600
0600
0600
0600
06C0
7FE0
ENDCHAR
STARTCHAR U+2F21
ENCODING 12065
SWIDTH 836 0
DWIDTH 12 0
BBX 12 12 0 -2
BITMAP
0E00
0D80
0FC0
1980
1B00
3700
4600
8E00
0900
11F0
20E0
C020
ENDCHAR
STARTCHAR U+2F22
ENCODING 12066
SWIDTH 836 0
DWIDTH 12 0
BBX 12 12 0 -2
BITMAP
4E00
4D80
2FC0
1980
1B00
3700
4600
8E00
0B00
11F0
20E0
C020
ENDCHAR
STARTCHAR U+2F23
ENCODING 12067
SWIDTH 836 0
DWIDTH 12 0
BBX 11 12 0 -2
BITMAP
0E00
0CC0
0FE0
18C0
18C0
2D80
4780
0300
0600
0C00
1800
E000
ENDCHAR
STARTCHAR U+2F24
ENCODING 12068
SWIDTH 836 0
DWIDTH 12 0
BBX 12 12 0 -2
BITMAP
0700
0600
0660
FFF0
0600
0D00
0D00
0980
1880
10F0
2060
C020
ENDCHAR
STARTCHAR U+2F25
ENCODING 12069
SWIDTH 836 0
DWIDTH 12 0
BBX 12 12 0 -2
BITMAP
0E00
0C00
0C60
FFF0
1980
1980
3300
7B00
0600
0580
18E0
E060
ENDCHAR
STARTCHAR U+2F26
ENCODING 12070
SWIDTH 836 0
DWIDTH 12 0
BBX 12 12 0 -2
BITMAP
00C0
3FE0
0180
0500
0660
FFF0
0600
0600
0600
0600
1E00
0C00
ENDCHAR
STARTCHAR U+2F27
ENCODING 12071
SWIDTH 836 0
DWIDTH 12 0
BBX 12 5 0 5
BITMAP
0C00
4760
7FF0
C060
C080
ENDCHAR
STARTCHAR U+2F28
ENCODING 12072
SWIDTH 836 0
DWIDTH 12 0
BBX 12 12 0 -2
BITMAP
01C0
0180
01A0
FFF0
2180
1180
1980
1980
0180
0180
0780
0300
ENDCHAR
STARTCHAR U+2F29
ENCODING 12073
SWIDTH 836 0
DWIDTH 12 0
BBX 12 12 0 -2
BITMAP
0700
0600
0600
3680
3640
2660
6630
4630
8600
0600
1E00
0C00
ENDCHAR
STARTCHAR U+2F2A
ENCODING 12074
SWIDTH 836 0
DWIDTH 12 0
BBX 12 12 0 -2
BITMAP
0700
0600
0660
FFF0
0700
0F00
0F00
0B00
1B20
1320
23F0
C1F0
ENDCHAR
STARTCHAR U+2F2B
ENCODING 12075
SWIDTH 836 0
DWIDTH 12 0
BBX 11 12 0 -2
BITMAP
20C0
3FE0
30C0
30C0
3FC0
30C0
3000
3000
2000
6000
4000
8000
ENDCHAR
STARTCHAR U+2F2C
ENCODING 12076
SWIDTH 836 0
DWIDTH 12 0
BBX 11 12 1 -2
BITMAP
0E00
0C00
ECE0
CCC0
CCC0
CCC0
FFC0
CCC0
0C00
0C00
0C00
0C00
ENDCHAR
STARTCHAR U+2F2D
ENCODING 12077
SWIDTH 836 0
DWIDTH 12 0
BBX 11 12 1 -2
BITMAP
0E00
0C00
0C00
ECE0
CCC0
CCC0
CCC0
CCC0
CCC0
CCC0
FFC0
C0C0
ENDCHAR
STARTCHAR U+2F2E
ENCODING 12078
SWIDTH 836 0
DWIDTH 12 0
BBX 12 12 0 -2
BITMAP
3330
3330
2220
6660
4440
8880
4440
6660
2220
3330
3330
3330
ENDCHAR
STARTCHAR U+2F2F
ENCODING 12079
SWIDTH 836 0
DWIDTH 12 0
BBX 12 10 0 -1
BITMAP
00C0
7FE0
0600
0600
0600
0600
0600
0600
0660
FFF0
ENDCHAR
STARTCHAR U+2F30
ENCODING 12080
SWIDTH 836 0
DWIDTH 12 0
BBX 11 12 1 -2
BITMAP
0180
FFC0
0180
4180
7F80
6180
6000
6000
6040
6040
7FE0
3FE0
ENDCHAR
STARTCHAR U+2F31
ENCODING 12081
SWIDTH 836 0
DWIDTH 12 0
BBX 11 12 1 -2
BITMAP
0E00
0C00
8CC0
FFE0
CCC0
CCC0
CCC0
CCC0
CFC0
CD80
0C00
0C00
ENDCHAR
STARTCHAR U+2F32
ENCODING 12082
SWIDTH 836 0
DWIDTH 12 0
BBX 12 12 0 -2
BITMAP
00C0
7FE0
0600
0600
0660
FFF0
0600
0600
0600
0600
0600
0600
ENDCHAR
STARTCHAR U+2F33
ENCODING 12083
SWIDTH 836 0
DWIDTH 12 0
BBX 12 12 0 -2
BITMAP
0600
0600
0580
0980
1300
7E00
3600
0500
0880
3060
FFF0
7030
ENDCHAR
STARTCHAR U+2F34
ENCODING 12084
SWIDTH 836 0
DWIDTH 12 0
BBX 12 11 0 -1
BITMAP
0600
2360
3FF0
3000
3000
3000
3000
2000
6000
4000
8000
ENDCHAR
STARTCHAR U+2F35
ENCODING 12085
SWIDTH 836 0
DWIDTH 12 0
BBX 12 12 0 -2
BITMAP
3000
F800
3000
6000
D800
FC00
5800
5000
3000
6000
5FF0
8FE0
ENDCHAR
STARTCHAR U+2F36
ENCODING 12086
SWIDTH 836 0
DWIDTH 12 0
BBX 12 12 0 -2
BITMAP
1DC0
1980
1980
19A0
FFF0
1980
1980
1980
1180
3180
2180
C180
ENDCHAR
STARTCHAR U+2F37
ENCODING 12087
SWIDTH 836 0
DWIDTH 12 0
BBX 12 12 0 -2
BITMAP
0700
06C0
0660
07F0
FE00
0300
0300
0300
01A0
01A0
00F0
0070
ENDCHAR
STARTCHAR U+2F38
ENCODING 12088
SWIDTH 836 0
DWIDTH 12 0
BBX 12 12 0 -2
BITMAP
00C0
FFE0
00C0
3FC0
30C0
3060
7FF0
6060
0060
00C0
03C0
0180
ENDCHAR
STARTCHAR U+2F39
ENCODING 12089
SWIDTH 836 0
DWIDTH 12 0
BBX 10 11 1 -1
BITMAP
0180
FFC0
0180
0180
0180
7F80
0180
0180
0180
FF80
0180
ENDCHAR
STARTCHAR U+2F3A
ENCODING 12090
SWIDTH 836 0
DWIDTH 12 0
BBX 9 12 2 -2
BITMAP
0C00
0C00
1800
3600
C700
0C00
3A00
C380
0700
0C00
3800
C000
ENDCHAR
STARTCHAR U+2F3B
ENCODING 12091
SWIDTH 836 0
DWIDTH 12 0
BBX 7 12 2 -2
BITMAP
08
1C
18
34
CE
1C
38
D8
18
18
18
18
ENDCHAR
STARTCHAR U+2F3C
ENCODING 12092
SWIDTH 836 0
DWIDTH 12 0
BBX 12 12 0 -2
BITMAP
0400
0200
0300
0F00
0C40
2C20
2C30
6C30
EC80
CC80
0FC0
07C0
ENDCHAR
STARTCHAR U+2F3D
ENCODING 12093
SWIDTH 836 0
DWIDTH 12 0
BBX 12 12 0 -2
BITMAP
0EC0
0C60
0C40
0FF0
FC00
06C0
06C0
0380
0720
0DA0
38F0
C070
ENDCHAR
STARTCHAR U+2F3E
ENCODING 12094
SWIDTH 836 0
DWIDTH 12 0
BBX 11 12 0 -2
BITMAP
0C00
0700
2640
3FE0
30C0
30C0
3FC0
30C0
2000
6000
4000
8000
ENDCHAR
STARTCHAR U+2F3F
ENCODING 12095
SWIDTH 836 0
DWIDTH 12 0
BBX 12 12 0 -2
BITMAP
0180
07C0
3E00
06C0
7FE0
0600
0660
FFF0
0600
0600
1E00
0C00
ENDCHAR
STARTCHAR U+2F40
ENCODING 12096
SWIDTH 836 0
DWIDTH 12 0
BBX 12 12 0 -2
BITMAP
0700
0660
FFF0
0600
0680
3FC0
1180
0B00
0600
0DF0
30E0
C020
ENDCHAR
STARTCHAR U+2F41
ENCODING 12097
SWIDTH 836 0
DWIDTH 12 0
BBX 12 12 0 -2
BITMAP
0700
06C0
07E0
0600
0680
7FC0
1180
0B00
0600
0F00
31F0
C060
ENDCHAR
STARTCHAR U+2F42
ENCODING 12098
SWIDTH 836 0
DWIDTH 12 0
BBX 12 12 0 -2
BITMAP
0C00
0660
FFF0
1180
1180
0B00
0B00
0600
0E00
09F0
30E0
C020
ENDCHAR
STARTCHAR U+2F43
ENCODING 12099
SWIDTH 836 0
DWIDTH 12 0
BBX 12 12 0 -2
BITMAP
11C0
0980
4D80
2D80
3180
31A0
01F0
0F80
F180
0180
0180
0180
ENDCHAR
STARTCHAR U+2F44
ENCODING 12100
SWIDTH 836 0
DWIDTH 12 0
BBX 12 12 0 -2
BITMAP
0180
23C0
3E00
3000
3060
3FF0
3300
3300
6300
4300
8300
0300
ENDCHAR
STARTCHAR U+2F45
ENCODING 12101
SWIDTH 836 0
DWIDTH 12 0
BBX 12 12 0 -2
BITMAP
0C00
0660
FFF0
1800
1980
1FC0
1980
1980
1180
3180
2F00
C600
ENDCHAR
STARTCHAR U+2F46
ENCODING 12102
SWIDTH 836 0
DWIDTH 12 0
BBX 12 12 0 -2
BITMAP
00C0
7FE0
0600
0660
FFF0
0C00
0F80
0B00
1B20
1320
23F0
C1F0
ENDCHAR
STARTCHAR U+2F47
ENCODING 12103
SWIDTH 836 0
DWIDTH 12 0
BBX 9 12 2 -2
BITMAP
8300
FF80
C300
C300
C300
FF00
C300
C300
C300
C300
FF00
C300
ENDCHAR
STARTCHAR U+2F48
ENCODING 12104
SWIDTH 836 0
DWIDTH 12 0
BBX 11 11 1 -2
BITMAP
80C0
FFE0
C0C0
C0C0
C6C0
FFC0
C0C0
C0C0
C0C0
FFC0
C0C0
ENDCHAR
STARTCHAR U+2F49
ENCODING 12105
SWIDTH 836 0
DWIDTH 12 0
BBX 10 12 0 -2
BITMAP
1180
1FC0
1980
1F80
1980
1980
1F80
1980
1980
3180
2780
C300
ENDCHAR
STARTCHAR U+2F4A
ENCODING 12106
SWIDTH 836 0
DWIDTH 12 0
BBX 12 12 0 -2
BITMAP
0700
0600
0660
FFF0
0F00
1E80
1680
36F0
2660
C620
0600
0600
ENDCHAR
STARTCHAR U+2F4B
ENCODING 12107
SWIDTH 836 0
DWIDTH 12 0
BBX 12 12 0 -2
BITMAP
3800
3060
3FF0
6040
4E80
8C00
0C00
0A00
1900
11F0
20E0
C020
ENDCHAR
STARTCHAR U+2F4C
ENCODING 12108
SWIDTH 836 0
DWIDTH 12 0
BBX 12 11 0 -1
BITMAP
0700
0600
0600
3EC0
37E0
3600
3600
3600
3600
3660
FFF0
ENDCHAR
STARTCHAR U+2F4D
ENCODING 12109
SWIDTH 836 0
DWIDTH 12 0
BBX 12 12 0 -2
BITMAP
0060
FFF0
0C00
1980
1FC0
3180
2B00
CF00
0600
0C00
1800
E000
ENDCHAR
STARTCHAR U+2F4E
ENCODING 12110
SWIDTH 836 0
DWIDTH 12 0
BBX 12 12 0 -2
BITMAP
1300
1F80
1B00
1B00
33E0
C1E0
3F80
1180
0B00
0E00
1BF0
E0E0
ENDCHAR
STARTCHAR U+2F4F
ENCODING 12111
SWIDTH 836 0
DWIDTH 12 0
BBX 12 12 0 -2
BITMAP
20C0
3FE0
36C0
36C0
FFF0
36C0
6D80
6DA0
FFF0
D980
3780
C300
ENDCHAR
STARTCHAR U+2F50
ENCODING 12112
SWIDTH 836 0
DWIDTH 12 0
BBX 11 12 1 -2
BITMAP
7700
6600
6640
66E0
7FC0
6600
6600
6600
6640
7E40
E7E0
C3E0
ENDCHAR
STARTCHAR U+2F51
ENCODING 12113
SWIDTH 836 0
DWIDTH 12 0
BBX 12 12 0 -2
BITMAP
0300
0F80
7C00
0D80
7FC0
0C00
0CC0
FFE0
0C20
0C20
0FF0
07F0
ENDCHAR
STARTCHAR U+2F52
ENCODING 12114
SWIDTH 836 0
DWIDTH 12 0
BBX 11 12 1 -2
BITMAP
0300
4F80
7E00
6600
66C0
7FE0
6600
6300
6340
6DC0
F0E0
C060
ENDCHAR
STARTCHAR U+2F53
ENCODING 12115
SWIDTH 836 0
DWIDTH 12 0
BBX 12 12 0 -2
BITMAP
18C0
1FE0
3080
3FC0
4000
BFE0
00C0
00C0
00D0
0060
0070
0030
ENDCHAR
STARTCHAR U+2F54
ENCODING 12116
SWIDTH 836 0
DWIDTH 12 0
BBX 12 12 0 -2
BITMAP
0700
0600
06C0
36E0
FF80
3700
2680
66F0
4660
8620
1E00
0C00
ENDCHAR
STARTCHAR U+2F55
ENCODING 12117
SWIDTH 836 0
DWIDTH 12 0
BBX 12 12 0 -2
BITMAP
0700
0600
2660
2660
66C0
6680
4D00
0D00
1980
10F0
2060
C020
ENDCHAR
STARTCHAR U+2F56
ENCODING 12118
SWIDTH 836 0
DWIDTH 12 0
BBX 12 12 0 -2
BITMAP
0180
27C0
3E80
3680
3680
3680
36C0
3640
2660
6670
4630
8620
ENDCHAR
STARTCHAR U+2F57
ENCODING 12119
SWIDTH 836 0
DWIDTH 12 0
BBX 12 12 0 -2
BITMAP
1980
1860
3030
51B0
9180
0B00
0A00
0400
0F00
09F0
30E0
C020
ENDCHAR
STARTCHAR U+2F58
ENCODING 12120
SWIDTH 836 0
DWIDTH 12 0
BBX 12 12 0 -2
BITMAP
01C0
3980
0600
0F80
19C0
6000
0B00
0B00
0600
0B00
31F0
C060
ENDCHAR
STARTCHAR U+2F59
ENCODING 12121
SWIDTH 836 0
DWIDTH 12 0
BBX 10 12 0 -2
BITMAP
39C0
3180
3180
3F80
3180
0180
FF80
3180
3180
3180
2180
C180
ENDCHAR
STARTCHAR U+2F5A
ENCODING 12122
SWIDTH 836 0
DWIDTH 12 0
BBX 12 12 0 -2
BITMAP
3B80
3300
3360
3FF0
3000
3180
3FC0
2180
6180
4180
8180
0180
ENDCHAR
STARTCHAR U+2F5B
ENCODING 12123
SWIDTH 836 0
DWIDTH 12 0
BBX 12 12 0 -2
BITMAP
00C0
7FE0
0180
3180
31A0
7FF0
6780
0D80
1980
3180
C780
0300
ENDCHAR
STARTCHAR U+2F5C
ENCODING 12124
SWIDTH 836 0
DWIDTH 12 0
BBX 12 12 0 -2
BITMAP
0700
3600
36C0
3FE0
6600
4660
FFF0
0600
0600
0600
0600
0600
ENDCHAR
STARTCHAR U+2F5D
ENCODING 12125
SWIDTH 836 0
DWIDTH 12 0
BBX 12 12 0 -2
BITMAP
0780
06C0
0660
FFF0
0600
0600
0D00
0D00
1980
18F0
3060
C020
ENDCHAR
STARTCHAR U+2F5E
ENCODING 12126
SWIDTH 836 0
DWIDTH 12 0
BBX 12 12 0 -2
BITMAP
0C00
0760
FFF0
0600
0D80
1980
3F00
1A80
0440
1860
FFF0
7030
ENDCHAR
STARTCHAR U+2F5F
ENCODING 12127
SWIDTH 836 0
DWIDTH 12 0
BBX 12 11 0 -1
BITMAP
00C0
7FE0
0600
0600
0680
3FC0
0700
06C0
06C0
0660
FFF0
ENDCHAR
STARTCHAR U+2F60
ENCODING 12128
SWIDTH 836 0
DWIDTH 12 0
BBX 12 12 0 -2
BITMAP
0180
27C0
3E80
3680
3680
3680
36C0
3740
26C0
67F0
4EE0
84A0
ENDCHAR
STARTCHAR U+2F61
ENCODING 12129
SWIDTH 836 0
DWIDTH 12 0
BBX 12 12 0 -2
BITMAP
0060
FFF0
1800
1980
1FC0
1980
1D80
3780
31A0
3FA0
79F0
60F0
ENDCHAR
STARTCHAR U+2F62
ENCODING 12130
SWIDTH 836 0
DWIDTH 12 0
BBX 12 12 0 -2
BITMAP
1DC0
1980
19A0
FFF0
1980
1980
1F80
1980
1980
1980
1F80
1980
ENDCHAR
STARTCHAR U+2F63
ENCODING 12131
SWIDTH 836 0
DWIDTH 12 0
BBX 12 11 0 -1
BITMAP
0700
3600
36C0
3FE0
6600
4680
BFC0
0600
0600
0660
FFF0
ENDCHAR
STARTCHAR U+2F64
ENCODING 12132
SWIDTH 836 0
DWIDTH 12 0
BBX 11 12 0 -2
BITMAP
20C0
3FE0
36C0
3FC0
36C0
36C0
3FC0
36C0
36C0
66C0
47C0
8180
ENDCHAR
STARTCHAR U+2F65
ENCODING 12133
SWIDTH 836 0
DWIDTH 12 0
BBX 11 12 1 -2
BITMAP
80C0
FFE0
CCC0
CCC0
CCC0
FFC0
CCC0
CCC0
CCC0
CCC0
FFC0
C0C0
ENDCHAR
STARTCHAR U+2F66
ENCODING 12134
SWIDTH 836 0
DWIDTH 12 0
BBX 12 12 0 -2
BITMAP
0060
FFF0
0620
0640
3EC0
37E0
3600
3600
3600
7600
4FF0
83F0
ENDCHAR
STARTCHAR U+2F67
ENCODING 12135
SWIDTH 836 0
DWIDTH 12 0
BBX 12 12 0 -2
BITMAP
0600
2360
3FF0
B000
F000
3000
F000
B000
2000
6000
4000
8000
ENDCHAR
STARTCHAR U+2F68
ENCODING 12136
SWIDTH 836 0
DWIDTH 12 0
BBX 12 7 0 1
BITMAP
3CC0
4FA0
7A60
1980
30F0
C060
0020
ENDCHAR
STARTCHAR U+2F69
ENCODING 12137
SWIDTH 836 0
DWIDTH 12 0
BBX 9 12 2 -2
BITMAP
1800
B300
FF80
C300
C300
C300
FF00
C300
C300
C300
FF00
C300
ENDCHAR
STARTCHAR U+2F6A
ENCODING 12138
SWIDTH 836 0
DWIDTH 12 0
BBX 12 12 0 -2
BITMAP
0700
26C0
3FE0
36C0
3680
3FC0
3980
3700
6700
4DF0
98E0
6020
ENDCHAR
STARTCHAR U+2F6B
ENCODING 12139
SWIDTH 836 0
DWIDTH 12 0
BBX 12 10 0 -1
BITMAP
40C0
7FE0
6AC0
6AC0
6AC0
6AC0
6AC0
6AC0
6AC0
FFF0
ENDCHAR
STARTCHAR U+2F6C
ENCODING 12140
SWIDTH 836 0
DWIDTH 12 0
BBX 9 12 2 -2
BITMAP
8300
FF80
C300
C300
FF00
C300
C300
FF00
C300
C300
FF00
C300
ENDCHAR
STARTCHAR U+2F6D
ENCODING 12141
SWIDTH 836 0
DWIDTH 12 0
BBX 12 12 0 -2
BITMAP
0180
7FC0
0980
0760
FFF0
0E40
1E80
1700
2600
C600
1E00
0C00
ENDCHAR
STARTCHAR U+2F6E
ENCODING 12142
SWIDTH 836 0
DWIDTH 12 0
BBX 12 12 0 -2
BITMAP
1C00
18C0
3FE0
2600
4660
FFF0
0600
0D00
0D80
18F0
3060
C020
ENDCHAR
STARTCHAR U+2F6F
ENCODING 12143
SWIDTH 836 0
DWIDTH 12 0
BBX 12 12 0 -2
BITMAP
0060
FFF0
0C00
0C00
18C0
1FE0
38C0
D8C0
18C0
18C0
1FC0
18C0
ENDCHAR
STARTCHAR U+2F70
ENCODING 12144
SWIDTH 836 0
DWIDTH 12 0
BBX 12 12 0 -2
BITMAP
0180
3FC0
0000
0060
FFF0
0600
3680
3660
6630
8630
1E00
0C00
ENDCHAR
STARTCHAR U+2F71
ENCODING 12145
SWIDTH 836 0
DWIDTH 12 0
BBX 11 12 1 -2
BITMAP
0E00
0C00
8CC0
FFE0
CCC0
CAC0
CAC0
FFC0
DBC0
D0C0
C3C0
C180
ENDCHAR
STARTCHAR U+2F72
ENCODING 12146
SWIDTH 836 0
DWIDTH 12 0
BBX 12 12 0 -2
BITMAP
0180
07C0
7E00
0600
0660
FFF0
1F00
1680
36F0
2660
C620
0600
ENDCHAR
STARTCHAR U+2F73
ENCODING 12147
SWIDTH 836 0
DWIDTH 12 0
BBX 12 12 0 -2
BITMAP
0C00
4760
7FF0
C040
D280
1A00
1900
1100
3080
20F0
4060
8020
ENDCHAR
STARTCHAR U+2F74
ENCODING 12148
SWIDTH 836 0
DWIDTH 12 0
BBX 12 11 0 -1
BITMAP
0800
0600
06C0
7FE0
2180
1180
1980
1900
0B00
0260
FFF0
ENDCHAR
STARTCHAR U+2F75
ENCODING 12149
SWIDTH 836 0
DWIDTH 12 0
BBX 12 12 0 -2
BITMAP
39C0
35A0
7FF0
72C0
B4C0
30C0
30C0
30C0
30C0
30C0
33C0
3180
ENDCHAR
STARTCHAR U+2F76
ENCODING 12150
SWIDTH 836 0
DWIDTH 12 0
BBX 12 12 0 -2
BITMAP
4760
3660
36C0
0720
FFF0
0F00
1E80
1680
36F0
2660
C620
0600
ENDCHAR
STARTCHAR U+2F77
ENCODING 12151
SWIDTH 836 0
DWIDTH 12 0
BBX 12 12 0 -2
BITMAP
0E00
0D80
1180
7F00
3240
0C20
FFF0
7630
2680
3660
6E30
8C30
ENDCHAR
STARTCHAR U+2F78
ENCODING 12152
SWIDTH 836 0
DWIDTH 12 0
BBX 12 12 0 -2
BITMAP
1C00
18C0
3FE0
3600
4660
FFF0
0600
36E0
36C0
36C0
3FC0
30C0
ENDCHAR
STARTCHAR U+2F79
ENCODING 12153
SWIDTH 836 0
DWIDTH 12 0
BBX 12 12 0 -2
BITMAP
8060
FFF0
C960
CDE0
EDE0
DB60
C960
DFE0
D6E0
E460
C9E0
C0C0
ENDCHAR
STARTCHAR U+2F7A
ENCODING 12154
SWIDTH 836 0
DWIDTH 12 0
BBX 12 12 0 -2
BITMAP
1980
0B40
7FE0
0600
0680
3FC0
0600
0660
FFF0
0600
0600
0600
ENDCHAR
STARTCHAR U+2F7B
ENCODING 12155
SWIDTH 836 0
DWIDTH 12 0
BBX 12 12 0 -2
BITMAP
1860
FFF0
9C60
5A60
7B60
1960
38E0
DB60
DF60
1A60
79E0
30C0
ENDCHAR
STARTCHAR U+2F7C
ENCODING 12156
SWIDTH 836 0
DWIDTH 12 0
BBX 12 12 0 -2
BITMAP
0E00
0CC0
3FC0
0DA0
FFF0
0600
1D80
3BC0
DE40
1840
1FE0
0FE0
ENDCHAR
STARTCHAR U+2F7D
ENCODING 12157
SWIDTH 836 0
DWIDTH 12 0
BBX 12 12 0 -2
BITMAP
0060
FFF0
0600
4C60
7FF0
6B60
6B60
6B60
6B60
6B60
6BE0
60C0
ENDCHAR
STARTCHAR U+2F7E
ENCODING 12158
SWIDTH 836 0
DWIDTH 12 0
BBX 12 12 0 -2
BITMAP
0700
06C0
7FE0
0680
3FC0
0660
FFF0
1F00
1680
36F0
2660
C620
ENDCHAR
STARTCHAR U+2F7F
ENCODING 12159
SWIDTH 836 0
DWIDTH 12 0
BBX 12 12 0 -2
BITMAP
0060
FFF0
1980
1F80
1980
1F80
1980
19A0
1FF0
F980
0180
0180
ENDCHAR
STARTCHAR U+2F80
ENCODING 12160
SWIDTH 836 0
DWIDTH 12 0
BBX 12 12 0 -2
BITMAP
0640
3FE0
06C0
FFF0
06C0
3FC0
0640
7FE0
0620
FFF0
0600
0600
ENDCHAR
STARTCHAR U+2F81
ENCODING 12161
SWIDTH 836 0
DWIDTH 12 0
BBX 11 12 1 -2
BITMAP
0E00
8CC0
FFE0
CCC0
DAC0
EFC0
CCC0
DAC0
E3C0
C0C0
C3C0
C180
ENDCHAR
STARTCHAR U+2F82
ENCODING 12162
SWIDTH 836 0
DWIDTH 12 0
BBX 11 12 1 -2
BITMAP
8180
FFC0
CC00
CD80
FFC0
C180
C180
FF80
CD80
CCC0
FFE0
C000
ENDCHAR
STARTCHAR U+2F83
ENCODING 12163
SWIDTH 836 0
DWIDTH 12 0
BBX 9 12 2 -2
BITMAP
3800
B300
FF80
C300
FF00
C300
C300
FF00
C300
C300
FF00
C300
ENDCHAR
STARTCHAR U+2F84
ENCODING 12164
SWIDTH 836 0
DWIDTH 12 0
BBX 12 11 0 -1
BITMAP
0060
FFF0
0D00
1880
7FE0
3660
0680
3FC0
0600
0660
FFF0
ENDCHAR
STARTCHAR U+2F85
ENCODING 12165
SWIDTH 836 0
DWIDTH 12 0
BBX 10 12 1 -2
BITMAP
0C00
9D80
F7C0
C180
C180
D180
F780
C180
C180
C180
FF80
C180
ENDCHAR
STARTCHAR U+2F86
ENCODING 12166
SWIDTH 836 0
DWIDTH 12 0
BBX 12 12 0 -2
BITMAP
0180
07C0
7E00
0660
FFF0
0600
26C0
3FE0
30C0
30C0
3FC0
30C0
ENDCHAR
STARTCHAR U+2F87
ENCODING 12167
SWIDTH 836 0
DWIDTH 12 0
BBX 12 12 0 -2
BITMAP
38E0
30C0
34C0
3FF0
68C0
6AC0
BAD0
17F0
34C0
20C0
40C0
80C0
ENDCHAR
STARTCHAR U+2F88
ENCODING 12168
SWIDTH 836 0
DWIDTH 12 0
BBX 12 12 0 -2
BITMAP
0700
26C0
3FE0
34C0
36D0
FFF0
38C0
34C0
36C0
36C0
21C0
C180
ENDCHAR
STARTCHAR U+2F89
ENCODING 12169
SWIDTH 836 0
DWIDTH 12 0
BBX 11 12 1 -2
BITMAP
4300
7F80
6300
7F00
6300
7F80
68C0
6580
6600
7BE0
E1C0
C040
ENDCHAR
STARTCHAR U+2F8A
ENCODING 12170
SWIDTH 836 0
DWIDTH 12 0
BBX 12 12 0 -2
BITMAP
0D80
1F80
1940
3FE0
76C0
B6C0
3FC0
30C0
3020
3020
3FF0
1FF0
ENDCHAR
STARTCHAR U+2F8B
ENCODING 12171
SWIDTH 836 0
DWIDTH 12 0
BBX 12 12 0 -2
BITMAP
39C0
3180
F7B0
B5A0
B5A0
B5A0
B5A0
FFE0
B5A0
2180
2180
C180
ENDCHAR
STARTCHAR U+2F8C
ENCODING 12172
SWIDTH 836 0
DWIDTH 12 0
BBX 12 12 0 -2
BITMAP
0700
0640
07E0
2620
3FF0
3660
3680
3FE0
6600
4620
87F0
03F0
ENDCHAR
STARTCHAR U+2F8D
ENCODING 12173
SWIDTH 836 0
DWIDTH 12 0
BBX 12 12 0 -2
BITMAP
0700
0600
26C0
3FE0
36C0
36C0
3FC0
36C0
0680
0660
FFF0
7030
ENDCHAR
STARTCHAR U+2F8E
ENCODING 12174
SWIDTH 836 0
DWIDTH 12 0
BBX 12 11 0 -1
BITMAP
0C00
0C00
50C0
7FE0
6AC0
6AC0
6AC0
6AC0
6AC0
6AC0
FFF0
ENDCHAR
STARTCHAR U+2F8F
ENCODING 12175
SWIDTH 836 0
DWIDTH 12 0
BBX 12 12 0 -2
BITMAP
70C0
67E0
5800
B060
3FF0
70C0
70C0
B0C0
30C0
30C0
33C0
3180
ENDCHAR
STARTCHAR U+2F90
ENCODING 12176
SWIDTH 836 0
DWIDTH 12 0
BBX 12 12 0 -2
BITMAP
0C00
0760
FFF0
0C00
1A40
1AE0
3380
F100
3180
36F0
7860
7020
ENDCHAR
STARTCHAR U+2F91
ENCODING 12177
SWIDTH 836 0
DWIDTH 12 0
BBX 12 12 0 -2
BITMAP
0060
FFF0
1B00
9B60
FFF0
DB60
DB60
DF60
DB60
C060
C060
C060
ENDCHAR
STARTCHAR U+2F92
ENCODING 12178
SWIDTH 836 0
DWIDTH 12 0
BBX 12 12 0 -2
BITMAP
1180
1FC0
1980
1F80
1980
1F80
1980
1F80
0B20
1B20
33F0
C1F0
ENDCHAR
STARTCHAR U+2F93
ENCODING 12179
SWIDTH 836 0
DWIDTH 12 0
BBX 11 12 0 -2
BITMAP
1B00
1F00
36C0
7FE0
B6C0
3FC0
36C0
3FC0
36C0
36C0
21C0
C180
ENDCHAR
STARTCHAR U+2F94
ENCODING 12180
SWIDTH 836 0
DWIDTH 12 0
BBX 12 12 0 -2
BITMAP
0C00
0620
FFF0
0180
3FC0
0180
3FC0
2180
3FC0
3180
3F80
3180
ENDCHAR
STARTCHAR U+2F95
ENCODING 12181
SWIDTH 836 0
DWIDTH 12 0
BBX 12 12 0 -2
BITMAP
1900
30C0
2460
CE20
0D00
1980
20F0
DFE0
19A0
1980
1F80
1980
ENDCHAR
STARTCHAR U+2F96
ENCODING 12182
SWIDTH 836 0
DWIDTH 12 0
BBX 12 11 0 -1
BITMAP
00C0
7FE0
1080
1FC0
1980
1980
1F80
1180
1900
0A60
FFF0
ENDCHAR
STARTCHAR U+2F97
ENCODING 12183
SWIDTH 836 0
DWIDTH 12 0
BBX 12 12 0 -2
BITMAP
0060
FFF0
0E00
1C00
3660
CF60
3780
CF40
1B70
E360
0F20
0600
ENDCHAR
STARTCHAR U+2F98
ENCODING 12184
SWIDTH 836 0
DWIDTH 12 0
BBX 9 12 1 -2
BITMAP
0600
0D80
1F00
7600
0C00
3600
CF00
1B00
6700
1B00
6F00
0600
ENDCHAR
STARTCHAR U+2F99
ENCODING 12185
SWIDTH 836 0
DWIDTH 12 0
BBX 11 12 0 -2
BITMAP
2180
3FC0
3180
3F80
3180
3F80
3180
3180
3F80
1A00
31C0
C0E0
ENDCHAR
STARTCHAR U+2F9A
ENCODING 12186
SWIDTH 836 0
DWIDTH 12 0
BBX 12 12 0 -2
BITMAP
0700
06C0
7FE0
0600
0660
FFF0
5B80
7B60
5B30
5B30
9700
6600
ENDCHAR
STARTCHAR U+2F9B
ENCODING 12187
SWIDTH 836 0
DWIDTH 12 0
BBX 12 12 0 -2
BITMAP
0700
0640
7FE0
0620
FFF0
0600
3EC0
37E0
3600
3600
6FF0
83F0
ENDCHAR
STARTCHAR U+2F9C
ENCODING 12188
SWIDTH 836 0
DWIDTH 12 0
BBX 12 12 0 -2
BITMAP
2180
3FC0
3180
3180
3F80
0600
3EC0
37E0
3600
3600
2FF0
C7F0
ENDCHAR
STARTCHAR U+2F9D
ENCODING 12189
SWIDTH 836 0
DWIDTH 12 0
BBX 12 12 0 -2
BITMAP
0D80
1FC0
1980
1FA0
19B0
1FE0
19C0
7FC0
0780
1980
E780
0300
ENDCHAR
STARTCHAR U+2F9E
ENCODING 12190
SWIDTH 836 0
DWIDTH 12 0
BBX 12 12 0 -2
BITMAP
0E00
0C60
FFF0
1800
3700
36C0
7FE0
0620
FFF0
0600
0600
0600
ENDCHAR
STARTCHAR U+2F9F
ENCODING 12191
SWIDTH 836 0
DWIDTH 12 0
BBX 12 12 0 -2
BITMAP
0C00
06C0
7FE0
1980
0960
FFF0
0600
0680
3FC0
0600
0600
0600
ENDCHAR
STARTCHAR U+2FA0
ENCODING 12192
SWIDTH 836 0
DWIDTH 12 0
BBX 12 12 0 -2
BITMAP
20C0
3FE0
3080
3FC0
3060
3FF0
3E60
2D40
6D80
4FF0
9E60
0C20
ENDCHAR
STARTCHAR U+2FA1
ENCODING 12193
SWIDTH 836 0
DWIDTH 12 0
BBX 12 12 0 -2
BITMAP
03C0
0780
79E0
07C0
78F0
07E0
FE40
37E0
3600
3600
6FF0
87F0
ENDCHAR
STARTCHAR U+2FA2
ENCODING 12194
SWIDTH 836 0
DWIDTH 12 0
BBX 11 12 1 -2
BITMAP
2300
3F80
3300
3F00
8180
FFC0
CD80
FF80
C180
C040
FFE0
7FE0
ENDCHAR
STARTCHAR U+2FA3
ENCODING 12195
SWIDTH 836 0
DWIDTH 12 0
BBX 12 12 0 -2
BITMAP
0060
FFF0
0B00
4B60
7FF0
6B60
73E0
6060
7FE0
6060
7FE0
6060
ENDCHAR
STARTCHAR U+2FA4
ENCODING 12196
SWIDTH 836 0
DWIDTH 12 0
BBX 12 12 0 -2
BITMAP
00C0
07E0
7EC0
3680
1760
FFF0
1F00
1680
36F0
2660
C620
0600
ENDCHAR
STARTCHAR U+2FA5
ENCODING 12197
SWIDTH 836 0
DWIDTH 12 0
BBX 12 11 0 -1
BITMAP
20C0
3FE0
36C0
3FC0
36C0
3FC0
36C0
0680
3FC0
0620
FFF0
ENDCHAR
STARTCHAR U+2FA6
ENCODING 12198
SWIDTH 836 0
DWIDTH 12 0
BBX 12 11 0 -1
BITMAP
0400
0E00
0B00
1180
3FF0
C660
3FC0
26C0
3680
0F40
7FE0
ENDCHAR
STARTCHAR U+2FA7
ENCODING 12199
SWIDTH 836 0
DWIDTH 12 0
BBX 12 12 0 -2
BITMAP
1180
1FC0
1800
1F80
1800
1F80
1860
FFF0
1AC0
1980
7EF0
3060
ENDCHAR
STARTCHAR U+2FA8
ENCODING 12200
SWIDTH 836 0
DWIDTH 12 0
BBX 12 12 0 -2
BITMAP
9A60
FBF0
DB60
FBE0
DB60
FBE0
DB60
C060
C060
C060
C1E0
C0C0
ENDCHAR
STARTCHAR U+2FA9
ENCODING 12201
SWIDTH 836 0
DWIDTH 12 0
BBX 12 12 0 -2
BITMAP
2680
3FC0
3180
3F80
3000
3FC0
30C0
3FC0
0660
FFF0
0600
0600
ENDCHAR
STARTCHAR U+2FAA
ENCODING 12202
SWIDTH 836 0
DWIDTH 12 0
BBX 12 12 0 -2
BITMAP
0700
06C0
3FE0
06C0
FFF0
06C0
BFC0
6660
36C0
1700
EEF0
CC60
ENDCHAR
STARTCHAR U+2FAB
ENCODING 12203
SWIDTH 836 0
DWIDTH 12 0
BBX 12 12 0 -2
BITMAP
1A00
1B80
3140
3FE0
7300
BFC0
3300
3FC0
3300
3360
3FF0
3000
ENDCHAR
STARTCHAR U+2FAC
ENCODING 12204
SWIDTH 836 0
DWIDTH 12 0
BBX 12 12 0 -2
BITMAP
0060
FFF0
0600
4660
7FF0
6660
7FE0
6EE0
6660
7FE0
6EE0
66C0
ENDCHAR
STARTCHAR U+2FAD
ENCODING 12205
SWIDTH 836 0
DWIDTH 12 0
BBX 12 12 0 -2
BITMAP
0640
7FE0
0680
3FC0
0620
FFF0
36C0
36C0
3FC0
30C0
33C0
3180
ENDCHAR
STARTCHAR U+2FAE
ENCODING 12206
SWIDTH 836 0
DWIDTH 12 0
BBX 12 12 0 -2
BITMAP
1F80
1B60
FBF0
1B00
1B40
FBE0
1B00
1B60
FBF0
1B00
1B00
1B00
ENDCHAR
STARTCHAR U+2FAF
ENCODING 12207
SWIDTH 836 0
DWIDTH 12 0
BBX 12 12 0 -2
BITMAP
0060
FFF0
0C00
4860
7FF0
6B60
6F60
6B60
6F60
6B60
7FE0
6060
ENDCHAR
STARTCHAR U+2FB0
ENCODING 12208
SWIDTH 836 0
DWIDTH 12 0
BBX 12 12 0 -2
BITMAP
19A0
FFF0
1980
1F80
26C0
3FE0
36C0
3FC0
0660
FFF0
0600
0600
ENDCHAR
STARTCHAR U+2FB1
ENCODING 12209
SWIDTH 836 0
DWIDTH 12 0
BBX 12 12 0 -2
BITMAP
06C0
3FE0
0CC0
FFF0
1980
1F80
0340
7FE0
3320
7FF0
6300
0300
ENDCHAR
STARTCHAR U+2FB2
ENCODING 12210
SWIDTH 836 0
DWIDTH 12 0
BBX 12 11 0 -1
BITMAP
1F80
1B40
7BE0
1B00
7BE0
1B00
1B40
7BE0
1B00
1B60
FFF0
ENDCHAR
STARTCHAR U+2FB3
ENCODING 12211
SWIDTH 836 0
DWIDTH 12 0
BBX 12 12 0 -2
BITMAP
0680
3FC0
0980
0D60
FFF0
0000
1FC0
1980
1F80
1980
1F80
1980
ENDCHAR
STARTCHAR U+2FB4
ENCODING 12212
SWIDTH 836 0
DWIDTH 12 0
BBX 12 12 0 -2
BITMAP
0060
FFF0
0C00
1FC0
1980
1F80
1980
1F80
1980
1F80
18E0
7060
ENDCHAR
STARTCHAR U+2FB5
ENCODING 12213
SWIDTH 836 0
DWIDTH 12 0
BBX 12 12 0 -2
BITMAP
20C0
3FE0
33C0
3EC0
36C0
3FC0
36C0
3FD0
3760
66F0
5FB0
98D0
ENDCHAR
STARTCHAR U+2FB6
ENCODING 12214
SWIDTH 836 0
DWIDTH 12 0
BBX 12 12 0 -2
BITMAP
00C0
7FE0
1EE0
F6D0
3670
FFF0
36D0
36E0
36D0
6660
4670
8630
ENDCHAR
STARTCHAR U+2FB7
ENCODING 12215
SWIDTH 836 0
DWIDTH 12 0
BBX 12 12 0 -2
BITMAP
0600
0D00
1A80
3FF0
D9E0
1F80
1980
1FC0
1AC0
1980
1EE0
3860
ENDCHAR
STARTCHAR U+2FB8
ENCODING 12216
SWIDTH 836 0
DWIDTH 12 0
BBX 12 12 0 -2
BITMAP
1980
0B60
FFF0
0C00
3FC0
3180
3F80
3180
3F80
3180
3F80
3180
ENDCHAR
STARTCHAR U+2FB9
ENCODING 12217
SWIDTH 836 0
DWIDTH 12 0
BBX 12 12 0 -2
BITMAP
01C0
3F80
0660
FFF0
1F80
3670
3FE0
D9A0
1F80
1980
1F80
1980
ENDCHAR
STARTCHAR U+2FBA
ENCODING 12218
SWIDTH 836 0
DWIDTH 12 0
BBX 12 12 0 -2
BITMAP
2080
3FC0
3600
3F80
3600
3F80
3660
3FF0
2560
5660
DBE0
80C0
ENDCHAR
STARTCHAR U+2FBB
ENCODING 12219
SWIDTH 836 0
DWIDTH 12 0
BBX 12 12 0 -2
BITMAP
1180
1FC0
55A0
7FF0
C060
DFC0
1980
1F80
1980
1F80
1980
1B80
ENDCHAR
STARTCHAR U+2FBC
ENCODING 12220
SWIDTH 836 0
DWIDTH 12 0
BBX 12 12 0 -2
BITMAP
0C00
0760
FFF0
1980
1F80
4060
7FF0
6060
6F60
6B60
6FE0
60C0
ENDCHAR
STARTCHAR U+2FBD
ENCODING 12221
SWIDTH 836 0
DWIDTH 12 0
BBX 12 12 0 -2
BITMAP
4460
7EC0
61A0
7E30
6060
7CC0
6320
FE30
6860
4C40
FD80
C600
ENDCHAR
STARTCHAR U+2FBE
ENCODING 12222
SWIDTH 836 0
DWIDTH 12 0
BBX 12 12 0 -2
BITMAP
FBF0
D160
FBE0
D160
FBE0
C060
C060
C060
C060
C060
C1E0
C0C0
ENDCHAR
STARTCHAR U+2FBF
ENCODING 12223
SWIDTH 836 0
DWIDTH 12 0
BBX 9 12 2 -2
BITMAP
D780
EB00
D700
DB00
F700
CB00
FF00
6600
7D00
6100
7F80
3F80
ENDCHAR
STARTCHAR U+2FC0
ENCODING 12224
SWIDTH 836 0
DWIDTH 12 0
BBX 12 12 0 -2
BITMAP
0060
FFF0
1980
1F80
4060
7FF0
79E0
6B60
7FE0
6660
67E0
66C0
ENDCHAR
STARTCHAR U+2FC1
ENCODING 12225
SWIDTH 836 0
DWIDTH 12 0
BBX 12 12 0 -2
BITMAP
0E00
2CC0
3FE0
36C0
3FC0
36C0
3FC0
0740
0FE0
1B20
33F0
C1F0
ENDCHAR
STARTCHAR U+2FC2
ENCODING 12226
SWIDTH 836 0
DWIDTH 12 0
BBX 12 12 0 -2
BITMAP
1B00
1F00
32C0
3FE0
76C0
BFC0
36C0
36C0
3FC0
2B60
EDB0
CDB0
ENDCHAR
STARTCHAR U+2FC3
ENCODING 12227
SWIDTH 836 0
DWIDTH 12 0
BBX 12 12 0 -2
BITMAP
2D00
3F80
3300
3F00
3340
3FC0
3020
3FF0
3B60
5560
DBC0
8080
ENDCHAR
STARTCHAR U+2FC4
ENCODING 12228
SWIDTH 836 0
DWIDTH 12 0
BBX 10 12 2 -2
BITMAP
1C00
1980
1FC0
9800
FF80
EB00
D700
FB00
D700
EB00
FF00
C300
ENDCHAR
STARTCHAR U+2FC5
ENCODING 12229
SWIDTH 836 0
DWIDTH 12 0
BBX 12 12 0 -2
BITMAP
0600
4360
7FF0
6B00
7FE0
6B40
7FC0
7B60
5FC0
5B20
BFF0
31F0
ENDCHAR
STARTCHAR U+2FC6
ENCODING 12230
SWIDTH 836 0
DWIDTH 12 0
BBX 12 12 0 -2
BITMAP
0700
0660
FFF0
66C0
76E0
5F30
9D80
37F0
CD20
3600
0D80
71C0
ENDCHAR
STARTCHAR U+2FC7
ENCODING 12231
SWIDTH 836 0
DWIDTH 12 0
BBX 12 12 0 -2
BITMAP
0C00
4760
7FF0
6D80
6DA0
7FF0
6DC0
7FE0
5DB0
6FA0
8D80
0D80
ENDCHAR
STARTCHAR U+2FC8
ENCODING 12232
SWIDTH 836 0
DWIDTH 12 0
BBX 12 12 0 -2
BITMAP
1980
7FE0
1980
1F80
0060
FFF0
36C0
3FC0
36C0
3FC0
18E0
F070
ENDCHAR
STARTCHAR U+2FC9
ENCODING 12233
SWIDTH 836 0
DWIDTH 12 0
BBX 12 12 0 -2
BITMAP
01C0
3F80
0660
FFF0
1F00
36F0
CF20
36F0
EFA0
1700
7EC0
2C60
ENDCHAR
STARTCHAR U+2FCA
ENCODING 12234
SWIDTH 836 0
DWIDTH 12 0
BBX 12 12 0 -2
BITMAP
20C0
3FE0
35C0
3FC0
36C0
3FC0
0640
7FE0
0620
FFF0
6B60
CDB0
ENDCHAR
STARTCHAR U+2FCB
ENCODING 12235
SWIDTH 836 0
DWIDTH 12 0
BBX 12 12 0 -2
BITMAP
4DB0
3DA0
2DD0
FFF0
1680
3FC0
36C0
3FC0
3FC0
36C0
36C0
37C0
ENDCHAR
STARTCHAR U+2FCC
ENCODING 12236
SWIDTH 836 0
DWIDTH 12 0
BBX 12 12 0 -2
BITMAP
8060
FFE0
DB60
FBE0
1B00
FBE0
DB60
FBE0
DB60
FBE0
DA30
0FF0
ENDCHAR
STARTCHAR U+2FCD
ENCODING 12237
SWIDTH 836 0
DWIDTH 12 0
BBX 12 12 0 -2
BITMAP
6F70
6B60
6F60
6B60
6F60
6060
7BE0
1B20
FBF0
7B60
5B60
9B60
ENDCHAR
STARTCHAR U+2FCE
ENCODING 12238
SWIDTH 836 0
DWIDTH 12 0
BBX 12 12 0 -2
BITMAP
31C0
FDA0
37F0
7980
09A0
7FE0
6A60
7940
6980
2EF0
F960
C620
ENDCHAR
STARTCHAR U+2FCF
ENCODING 12239
SWIDTH 836 0
DWIDTH 12 0
BBX 11 12 1 -2
BITMAP
4D80
7BC0
6180
7780
6180
7F80
7FC0
6D80
7FA0
6DC0
FEE0
D860
ENDCHAR
STARTCHAR U+2FD0
ENCODING 12240
SWIDTH 836 0
DWIDTH 12 0
BBX 12 12 0 -2
BITMAP
0C00
1FC0
1980
1F80
1980
3FE0
36C0
3FC0
36C0
FFF0
1980
7180
ENDCHAR
STARTCHAR U+2FD1
ENCODING 12241
SWIDTH 836 0
DWIDTH 12 0
BBX 12 12 0 -2
BITMAP
0620
FFF0
0A60
FFC0
5540
5560
B1B0
3FD0
3180
3F80
2180
C180
ENDCHAR
STARTCHAR U+2FD2
ENCODING 12242
SWIDTH 836 0
DWIDTH 12 0
BBX 12 12 0 -2
BITMAP
0700
3640
37E0
3600
FFF0
39C0
36C0
3FC0
39C0
36C0
3FC0
30C0
ENDCHAR
STARTCHAR U+2FD3
ENCODING 12243
SWIDTH 836 0
DWIDTH 12 0
BBX 12 12 0 -2
BITMAP
3340
FFE0
5B00
FFE0
00C0
7BC0
5B00
7BE0
5B00
7BE0
5B30
59F0
ENDCHAR
STARTCHAR U+2FD4
ENCODING 12244
SWIDTH 836 0
DWIDTH 12 0
BBX 12 12 0 -2
BITMAP
0F00
1A00
FFE0
6D60
FFE0
2D00
FFE0
EDE0
2D60
FFE0
2C30
E7F0
ENDCHAR
STARTCHAR U+2FD5
ENCODING 12245
SWIDTH 836 0
DWIDTH 12 0
BBX 12 12 0 -2
BITMAP
0E00
1900
3FC0
C070
3FA0
2A80
7FE0
6AC0
7FC0
6AC0
6AC0
6BC0
ENDCHAR
STARTCHAR U+3000
ENCODING 12288
SWIDTH 836 0
DWIDTH 12 0
BBX 1 1 3 -2
BITMAP
00
ENDCHAR
STARTCHAR U+3001
ENCODING 12289
SWIDTH 836 0
DWIDTH 12 0
BBX 4 4 0 -2
BITMAP
80
60
30
30
ENDCHAR
STARTCHAR U+3002
ENCODING 12290
SWIDTH 836 0
DWIDTH 12 0
BBX 4 4 0 -2
BITMAP
60
90
90
60
ENDCHAR
STARTCHAR U+3003
ENCODING 12291
SWIDTH 836 0
DWIDTH 12 0
BBX 6 5 3 2
BITMAP
6C
6C
48
48
90
ENDCHAR
STARTCHAR U+3005
ENCODING 12293
SWIDTH 836 0
DWIDTH 12 0
BBX 10 10 0 -1
BITMAP
0E00
0D80
0FC0
1980
1300
2A00
4400
8300
0180
0180
ENDCHAR
STARTCHAR U+3006
ENCODING 12294
SWIDTH 836 0
DWIDTH 12 0
BBX 11 12 0 -2
BITMAP
0080
0060
00C0
0180
1F00
2600
2D80
4980
5000
6000
C000
C000
ENDCHAR
STARTCHAR U+3007
ENCODING 12295
SWIDTH 836 0
DWIDTH 12 0
BBX 12 10 0 -1
BITMAP
0F00
30C0
4020
8010
8010
8010
8010
4020
30C0
0F00
ENDCHAR
STARTCHAR U+3008
ENCODING 12296
SWIDTH 836 0
DWIDTH 12 0
BBX 4 12 7 -2
BITMAP
10
20
20
40
40
80
80
40
40
20
20
10
ENDCHAR
STARTCHAR U+3009
ENCODING 12297
SWIDTH 836 0
DWIDTH 12 0
BBX 4 12 1 -2
BITMAP
80
40
40
20
20
10
10
20
20
40
40
80
ENDCHAR
STARTCHAR U+300A
ENCODING 12298
SWIDTH 836 0
DWIDTH 12 0
BBX 6 12 5 -2
BITMAP
14
28
28
50
50
A0
A0
50
50
28
28
14
ENDCHAR
STARTCHAR U+300B
ENCODING 12299
SWIDTH 836 0
DWIDTH 12 0
BBX 6 12 1 -2
BITMAP
A0
50
50
28
28
14
14
28
28
50
50
A0
ENDCHAR
STARTCHAR U+300C
ENCODING 12300
SWIDTH 836 0
DWIDTH 12 0
BBX 4 10 7 0
BITMAP
F0
80
80
80
80
80
80
80
80
80
ENDCHAR
STARTCHAR U+300D
ENCODING 12301
SWIDTH 836 0
DWIDTH 12 0
BBX 4 10 1 -2
BITMAP
10
10
10
10
10
10
10
10
10
F0
ENDCHAR
STARTCHAR U+300E
ENCODING 12302
SWIDTH 836 0
DWIDTH 12 0
BBX 5 10 6 0
BITMAP
F8
88
B8
A0
A0
A0
A0
A0
A0
E0
ENDCHAR
STARTCHAR U+300F
ENCODING 12303
SWIDTH 836 0
DWIDTH 12 0
BBX 5 10 1 -2
BITMAP
38
28
28
28
28
28
28
E8
88
F8
ENDCHAR
STARTCHAR U+3010
ENCODING 12304
SWIDTH 836 0
DWIDTH 12 0
BBX 4 12 7 -2
BITMAP
F0
E0
C0
C0
C0
C0
C0
C0
C0
C0
E0
F0
ENDCHAR
STARTCHAR U+3011
ENCODING 12305
SWIDTH 836 0
DWIDTH 12 0
BBX 4 12 1 -2
BITMAP
F0
70
30
30
30
30
30
30
30
30
70
F0
ENDCHAR
STARTCHAR U+3012
ENCODING 12306
SWIDTH 836 0
DWIDTH 12 0
BBX 12 11 0 -2
BITMAP
FFF0
FFF0
0000
FFF0
FFF0
0600
0600
0600
0600
0600
0600
ENDCHAR
STARTCHAR U+3013
ENCODING 12307
SWIDTH 836 0
DWIDTH 12 0
BBX 8 6 2 1
BITMAP
FF
FF
00
00
FF
FF
ENDCHAR
STARTCHAR U+3014
ENCODING 12308
SWIDTH 836 0
DWIDTH 12 0
BBX 3 12 8 -2
BITMAP
20
40
80
80
80
80
80
80
80
80
40
20
ENDCHAR
STARTCHAR U+3015
ENCODING 12309
SWIDTH 836 0
DWIDTH 12 0
BBX 3 12 1 -2
BITMAP
80
40
20
20
20
20
20
20
20
20
40
80
ENDCHAR
STARTCHAR U+3016
ENCODING 12310
SWIDTH 836 0
DWIDTH 12 0
BBX 5 12 6 -2
BITMAP
F8
90
A0
A0
A0
A0
A0
A0
A0
A0
90
F8
ENDCHAR
STARTCHAR U+3017
ENCODING 12311
SWIDTH 836 0
DWIDTH 12 0
BBX 5 12 1 -2
BITMAP
F8
48
28
28
28
28
28
28
28
28
48
F8
ENDCHAR
STARTCHAR U+301C
ENCODING 12316
SWIDTH 836 0
DWIDTH 12 0
BBX 12 4 0 2
BITMAP
3800
6C10
8660
03C0
ENDCHAR
STARTCHAR U+301D
ENCODING 12317
SWIDTH 836 0
DWIDTH 12 0
BBX 4 3 7 7
BITMAP
D0
90
A0
ENDCHAR
STARTCHAR U+301F
ENCODING 12319
SWIDTH 836 0
DWIDTH 12 0
BBX 4 2 1 -1
BITMAP
D0
A0
ENDCHAR
STARTCHAR U+3021
ENCODING 12321
SWIDTH 836 0
DWIDTH 12 0
BBX 3 12 5 -2
BITMAP
E0
C0
C0
C0
C0
C0
C0
C0
C0
C0
C0
C0
ENDCHAR
STARTCHAR U+3022
ENCODING 12322
SWIDTH 836 0
DWIDTH 12 0
BBX 8 12 2 -2
BITMAP
07
E6
C6
C6
C6
C6
C6
C6
C6
C6
C6
06
ENDCHAR
STARTCHAR U+3023
ENCODING 12323
SWIDTH 836 0
DWIDTH 12 0
BBX 9 12 2 -2
BITMAP
0380
E300
DF00
DB00
DB00
DB00
DB00
DB00
DB00
DB00
C300
0300
ENDCHAR
STARTCHAR U+3024
ENCODING 12324
SWIDTH 836 0
DWIDTH 12 0
BBX 11 12 0 -2
BITMAP
0080
00E0
60C0
19C0
0D80
0700
0300
0780
0CC0
1860
2060
C000
ENDCHAR
STARTCHAR U+3025
ENCODING 12325
SWIDTH 836 0
DWIDTH 12 0
BBX 9 12 2 -2
BITMAP
2000
3A00
3380
6300
C600
7E00
1B00
3180
6180
C180
C300
7C00
ENDCHAR
STARTCHAR U+3026
ENCODING 12326
SWIDTH 836 0
DWIDTH 12 0
BBX 12 4 0 6
BITMAP
0700
0600
0660
FFF0
ENDCHAR
STARTCHAR U+3027
ENCODING 12327
SWIDTH 836 0
DWIDTH 12 0
BBX 12 8 0 2
BITMAP
0700
0600
0660
FFF0
0000
0000
00C0
7FE0
ENDCHAR
STARTCHAR U+3028
ENCODING 12328
SWIDTH 836 0
DWIDTH 12 0
BBX 12 11 0 -1
BITMAP
0700
0600
06C0
7FE0
0000
0180
3FC0
0000
0000
0060
FFF0
ENDCHAR
STARTCHAR U+3029
ENCODING 12329
SWIDTH 836 0
DWIDTH 12 0
BBX 12 12 0 -2
BITMAP
1C00
1860
1FF0
3980
3180
2980
4780
8300
0380
06C0
1860
6060
ENDCHAR
STARTCHAR U+3038
ENCODING 12344
SWIDTH 836 0
DWIDTH 12 0
BBX 12 12 0 -2
BITMAP
0700
0600
0600
0600
0660
FFF0
0600
0600
0600
0600
0600
0600
ENDCHAR
STARTCHAR U+3039
ENCODING 12345
SWIDTH 836 0
DWIDTH 12 0
BBX 12 12 0 -2
BITMAP
1DC0
1980
1980
19A0
FFF0
1980
1980
1980
1980
1980
1980
1980
ENDCHAR
STARTCHAR U+303A
ENCODING 12346
SWIDTH 836 0
DWIDTH 12 0
BBX 12 12 0 -2
BITMAP
38E0
37C0
36C0
36E0
FFF0
36C0
36C0
36C0
36C0
26C0
26C0
40C0
ENDCHAR
STARTCHAR U+303C
ENCODING 12348
SWIDTH 836 0
DWIDTH 12 0
BBX 8 8 2 0
BITMAP
FF
83
85
89
91
A1
C1
FF
ENDCHAR
STARTCHAR U+3041
ENCODING 12353
SWIDTH 836 0
DWIDTH 12 0
BBX 7 8 3 -2
BITMAP
68
B8
E4
3C
6E
B6
D6
8C
ENDCHAR
STARTCHAR U+3042
ENCODING 12354
SWIDTH 836 0
DWIDTH 12 0
BBX 10 12 1 -2
BITMAP
1800
0C00
9E00
F800
5200
3F80
74C0
54C0
98C0
B8C0
E980
0600
ENDCHAR
STARTCHAR U+3043
ENCODING 12355
SWIDTH 836 0
DWIDTH 12 0
BBX 8 7 2 -2
BITMAP
84
42
63
67
60
70
20
ENDCHAR
STARTCHAR U+3044
ENCODING 12356
SWIDTH 836 0
DWIDTH 12 0
BBX 10 9 1 -1
BITMAP
8000
4100
6080
60C0
69C0
70C0
6000
3000
3000
ENDCHAR
STARTCHAR U+3045
ENCODING 12357
SWIDTH 836 0
DWIDTH 12 0
BBX 6 9 3 -2
BITMAP
30
18
00
B8
EC
4C
0C
08
30
ENDCHAR
STARTCHAR U+3046
ENCODING 12358
SWIDTH 836 0
DWIDTH 12 0
BBX 7 12 2 -2
BITMAP
20
1C
0C
00
BC
E6
46
06
06
04
0C
30
ENDCHAR
STARTCHAR U+3047
ENCODING 12359
SWIDTH 836 0
DWIDTH 12 0
BBX 8 8 2 -2
BITMAP
38
0C
7C
68
18
28
6F
C7
ENDCHAR
STARTCHAR U+3048
ENCODING 12360
SWIDTH 836 0
DWIDTH 12 0
BBX 10 12 1 -2
BITMAP
1000
1E00
0C00
4600
7E00
3400
0800
1800
3400
6400
C7C0
C3C0
ENDCHAR
STARTCHAR U+3049
ENCODING 12361
SWIDTH 836 0
DWIDTH 12 0
BBX 8 7 2 -2
BITMAP
6A
BB
E1
3C
E6
A6
6C
ENDCHAR
STARTCHAR U+304A
ENCODING 12362
SWIDTH 836 0
DWIDTH 12 0
BBX 10 12 1 -2
BITMAP
6000
3180
38C0
A8C0
F800
6780
3CC0
30C0
E0C0
A4C0
7380
6000
ENDCHAR
STARTCHAR U+304B
ENCODING 12363
SWIDTH 836 0
DWIDTH 12 0
BBX 12 12 0 -2
BITMAP
1800
1C00
0800
9EC0
FB60
D130
3330
2370
6320
D600
CE00
0C00
ENDCHAR
STARTCHAR U+304C
ENCODING 12364
SWIDTH 836 0
DWIDTH 12 0
BBX 12 12 0 -2
BITMAP
1820
1C50
0870
9EA0
FB40
D160
3330
2370
6320
D600
CE00
0C00
ENDCHAR
STARTCHAR U+304D
ENCODING 12365
SWIDTH 836 0
DWIDTH 12 0
BBX 8 12 2 -2
BITMAP
30
36
9E
FB
8E
78
0C
7E
86
C0
78
38
ENDCHAR
STARTCHAR U+304E
ENCODING 12366
SWIDTH 836 0
DWIDTH 12 0
BBX 9 12 2 -2
BITMAP
3100
3680
9D80
FB00
8E00
7800
0C00
7E00
8600
C000
7800
3800
ENDCHAR
STARTCHAR U+304F
ENCODING 12367
SWIDTH 836 0
DWIDTH 12 0
BBX 5 12 3 -2
BITMAP
30
18
18
30
60
80
C0
60
30
30
18
18
ENDCHAR
STARTCHAR U+3050
ENCODING 12368
SWIDTH 836 0
DWIDTH 12 0
BBX 8 12 3 -2
BITMAP
30
18
1A
35
67
82
C0
60
30
30
18
18
ENDCHAR
STARTCHAR U+3051
ENCODING 12369
SWIDTH 836 0
DWIDTH 12 0
BBX 10 12 1 -2
BITMAP
0600
C380
6300
63C0
5F40
DB00
8300
A300
C300
C200
6200
6400
ENDCHAR
STARTCHAR U+3052
ENCODING 12370
SWIDTH 836 0
DWIDTH 12 0
BBX 11 12 1 -2
BITMAP
0640
C3A0
6360
6340
53E0
DF40
8B00
A300
C300
C200
6200
6400
ENDCHAR
STARTCHAR U+3053
ENCODING 12371
SWIDTH 836 0
DWIDTH 12 0
BBX 8 9 2 -1
BITMAP
7C
3E
08
00
40
80
80
FF
7E
ENDCHAR
STARTCHAR U+3054
ENCODING 12372
SWIDTH 836 0
DWIDTH 12 0
BBX 9 11 2 -1
BITMAP
0100
0280
7F80
3D00
0800
0000
4000
8000
8000
FF00
7E00
ENDCHAR
STARTCHAR U+3055
ENCODING 12373
SWIDTH 836 0
DWIDTH 12 0
BBX 8 12 2 -2
BITMAP
30
30
1B
8E
FC
66
1F
23
40
60
3C
1E
ENDCHAR
STARTCHAR U+3056
ENCODING 12374
SWIDTH 836 0
DWIDTH 12 0
BBX 10 12 2 -2
BITMAP
3080
3140
1BC0
8E80
FC00
6600
1F00
2300
4000
6000
3C00
1E00
ENDCHAR
STARTCHAR U+3057
ENCODING 12375
SWIDTH 836 0
DWIDTH 12 0
BBX 9 12 2 -2
BITMAP
C000
7000
6000
6000
6000
6000
6000
6000
6080
6300
7E00
3800
ENDCHAR
STARTCHAR U+3058
ENCODING 12376
SWIDTH 836 0
DWIDTH 12 0
BBX 9 12 2 -2
BITMAP
C000
7200
6500
6700
6200
6000
6000
6000
6080
6300
7E00
3800
ENDCHAR
STARTCHAR U+3059
ENCODING 12377
SWIDTH 836 0
DWIDTH 12 0
BBX 12 12 0 -2
BITMAP
0600
0380
0300
8FE0
FB70
6F00
1B00
1B00
0F00
0300
0200
0C00
ENDCHAR
STARTCHAR U+305A
ENCODING 12378
SWIDTH 836 0
DWIDTH 12 0
BBX 12 12 0 -2
BITMAP
06A0
03F0
0350
8FE0
FB70
6F00
1B00
1B00
0F00
0300
0200
0C00
ENDCHAR
STARTCHAR U+305B
ENCODING 12379
SWIDTH 836 0
DWIDTH 12 0
BBX 12 12 0 -2
BITMAP
0300
3180
1D80
19E0
9FF0
FD80
7980
1B80
1900
1800
0FC0
07C0
ENDCHAR
STARTCHAR U+305C
ENCODING 12380
SWIDTH 836 0
DWIDTH 12 0
BBX 12 12 0 -2
BITMAP
00A0
3370
1DC0
19A0
9FF0
FD80
7980
1B80
1900
1800
0FC0
07C0
ENDCHAR
STARTCHAR U+305D
ENCODING 12381
SWIDTH 836 0
DWIDTH 12 0
BBX 9 11 2 -2
BITMAP
5E00
7600
2C00
1B00
BF80
E800
D000
1000
1800
0E00
0600
ENDCHAR
STARTCHAR U+305E
ENCODING 12382
SWIDTH 836 0
DWIDTH 12 0
BBX 11 11 1 -2
BITMAP
5E40
76A0
2CE0
1B40
BF80
E800
D000
1000
1800
0E00
0600
ENDCHAR
STARTCHAR U+305F
ENCODING 12383
SWIDTH 836 0
DWIDTH 12 0
BBX 10 11 0 -1
BITMAP
3000
1C00
1800
9E00
FBC0
51C0
3000
3000
6400
63C0
61C0
ENDCHAR
STARTCHAR U+3060
ENCODING 12384
SWIDTH 836 0
DWIDTH 12 0
BBX 12 11 0 -1
BITMAP
3020
1C50
1870
9E20
FBC0
5180
3000
3000
6400
63C0
61C0
ENDCHAR
STARTCHAR U+3061
ENCODING 12385
SWIDTH 836 0
DWIDTH 12 0
BBX 9 12 1 -2
BITMAP
3000
1C00
1800
9E00
FC00
5000
3700
3980
3180
0180
0300
0C00
ENDCHAR
STARTCHAR U+3062
ENCODING 12386
SWIDTH 836 0
DWIDTH 12 0
BBX 10 12 1 -2
BITMAP
3000
1C80
1940
9FC0
FC80
5000
3700
3980
3180
0180
0300
0C00
ENDCHAR
STARTCHAR U+3063
ENCODING 12387
SWIDTH 836 0
DWIDTH 12 0
BBX 8 6 2 -2
BITMAP
1E
F3
63
03
06
18
ENDCHAR
STARTCHAR U+3064
ENCODING 12388
SWIDTH 836 0
DWIDTH 12 0
BBX 10 8 1 -1
BITMAP
0F80
B8C0
F0C0
40C0
00C0
0180
0300
0C00
ENDCHAR
STARTCHAR U+3065
ENCODING 12389
SWIDTH 836 0
DWIDTH 12 0
BBX 11 11 1 -1
BITMAP
0040
00A0
00E0
0FA0
B8C0
F0C0
40C0
00C0
0180
0300
0C00
ENDCHAR
STARTCHAR U+3066
ENCODING 12390
SWIDTH 836 0
DWIDTH 12 0
BBX 11 9 0 -1
BITMAP
07E0
BFE0
F600
4C00
0800
0800
0C00
07C0
03C0
ENDCHAR
STARTCHAR U+3067
ENCODING 12391
SWIDTH 836 0
DWIDTH 12 0
BBX 12 9 0 -1
BITMAP
07C0
BFA0
F650
4C70
0820
0800
0C00
07C0
03C0
ENDCHAR
STARTCHAR U+3068
ENCODING 12392
SWIDTH 836 0
DWIDTH 12 0
BBX 7 12 3 -2
BITMAP
C0
60
60
60
66
4E
38
60
80
80
FE
7E
ENDCHAR
STARTCHAR U+3069
ENCODING 12393
SWIDTH 836 0
DWIDTH 12 0
BBX 9 12 2 -2
BITMAP
C100
6280
6380
6100
6600
4E00
3800
6000
8000
8000
FE00
7E00
ENDCHAR
STARTCHAR U+306A
ENCODING 12394
SWIDTH 836 0
DWIDTH 12 0
BBX 11 12 0 -2
BITMAP
3000
1A00
9EC0
FC60
D0E0
3100
6300
6300
4F80
13E0
1B60
0E00
ENDCHAR
STARTCHAR U+306B
ENCODING 12395
SWIDTH 836 0
DWIDTH 12 0
BBX 10 11 1 -2
BITMAP
C000
6380
6F80
6100
C000
8000
C800
D400
E7C0
63C0
6000
ENDCHAR
STARTCHAR U+306C
ENCODING 12396
SWIDTH 836 0
DWIDTH 12 0
BBX 11 11 1 -1
BITMAP
0C00
0600
4600
5F80
74C0
2CC0
68C0
D8C0
9780
ECC0
4760
ENDCHAR
STARTCHAR U+306D
ENCODING 12397
SWIDTH 836 0
DWIDTH 12 0
BBX 11 12 1 -2
BITMAP
6000
3000
3000
3780
2CC0
E8C0
B0C0
60C0
A780
ECC0
7760
4000
ENDCHAR
STARTCHAR U+306E
ENCODING 12398
SWIDTH 836 0
DWIDTH 12 0
BBX 10 9 1 -1
BITMAP
1F00
2980
68C0
50C0
D0C0
B0C0
E180
6100
0600
ENDCHAR
STARTCHAR U+306F
ENCODING 12399
SWIDTH 836 0
DWIDTH 12 0
BBX 11 11 1 -2
BITMAP
C300
7180
61E0
6FC0
C700
8180
A180
C780
C9C0
6F60
6600
ENDCHAR
STARTCHAR U+3070
ENCODING 12400
SWIDTH 836 0
DWIDTH 12 0
BBX 11 12 1 -2
BITMAP
0040
C6E0
73A0
6340
7FC0
CE00
8300
8300
CF80
D3C0
7B60
6E00
ENDCHAR
STARTCHAR U+3071
ENCODING 12401
SWIDTH 836 0
DWIDTH 12 0
BBX 11 12 1 -2
BITMAP
00E0
C6A0
72E0
63C0
7F80
CE00
8300
8300
CF80
D3C0
7B60
6E00
ENDCHAR
STARTCHAR U+3072
ENCODING 12402
SWIDTH 836 0
DWIDTH 12 0
BBX 11 10 1 -2
BITMAP
9980
F980
7180
21C0
2160
4360
4200
4600
7C00
3800
ENDCHAR
STARTCHAR U+3073
ENCODING 12403
SWIDTH 836 0
DWIDTH 12 0
BBX 12 11 0 -2
BITMAP
0020
99F0
F9D0
71A0
21C0
2160
4360
4200
4600
7C00
3800
ENDCHAR
STARTCHAR U+3074
ENCODING 12404
SWIDTH 836 0
DWIDTH 12 0
BBX 12 11 0 -2
BITMAP
0070
99D0
F9F0
7180
21C0
2160
4360
4200
4600
7C00
3800
ENDCHAR
STARTCHAR U+3075
ENCODING 12405
SWIDTH 836 0
DWIDTH 12 0
BBX 12 11 0 -2
BITMAP
0800
0700
0600
0800
0C00
07C0
1A60
B330
6B30
6700
0600
ENDCHAR
STARTCHAR U+3076
ENCODING 12406
SWIDTH 836 0
DWIDTH 12 0
BBX 12 11 0 -2
BITMAP
0820
0770
0650
0860
0C20
07C0
1A60
B330
6B30
6700
0600
ENDCHAR
STARTCHAR U+3077
ENCODING 12407
SWIDTH 836 0
DWIDTH 12 0
BBX 12 11 0 -2
BITMAP
0800
0770
0650
0870
0C00
07C0
1A60
B330
6B30
6700
0600
ENDCHAR
STARTCHAR U+3078
ENCODING 12408
SWIDTH 836 0
DWIDTH 12 0
BBX 12 7 0 1
BITMAP
1800
1400
3200
B300
61C0
60F0
0030
ENDCHAR
STARTCHAR U+3079
ENCODING 12409
SWIDTH 836 0
DWIDTH 12 0
BBX 12 9 0 1
BITMAP
0080
0140
19C0
1480
3200
B300
61C0
60F0
0030
ENDCHAR
STARTCHAR U+307A
ENCODING 12410
SWIDTH 836 0
DWIDTH 12 0
BBX 12 8 0 1
BITMAP
01C0
1940
15C0
3200
B300
61C0
60F0
0030
ENDCHAR
STARTCHAR U+307B
ENCODING 12411
SWIDTH 836 0
DWIDTH 12 0
BBX 10 11 1 -2
BITMAP
C3C0
7F80
6B00
63C0
DF80
8B00
A300
CF80
CBC0
6F40
6600
ENDCHAR
STARTCHAR U+307C
ENCODING 12412
SWIDTH 836 0
DWIDTH 12 0
BBX 11 12 1 -2
BITMAP
0040
C1E0
7FA0
6B40
63C0
DF80
8B00
A300
CF80
CBC0
6F40
6600
ENDCHAR
STARTCHAR U+307D
ENCODING 12413
SWIDTH 836 0
DWIDTH 12 0
BBX 11 12 1 -2
BITMAP
00E0
C1A0
7FE0
6B00
63C0
DFC0
8B00
A300
CF80
CBC0
6F40
6600
ENDCHAR
STARTCHAR U+307E
ENCODING 12414
SWIDTH 836 0
DWIDTH 12 0
BBX 9 12 1 -2
BITMAP
1C00
0C00
CF80
7D00
4F00
7E00
2C00
0C00
3E00
4F80
7D80
3800
ENDCHAR
STARTCHAR U+307F
ENCODING 12415
SWIDTH 836 0
DWIDTH 12 0
BBX 11 11 1 -2
BITMAP
5C00
7C00
2800
1B00
1180
7D80
B7E0
E360
C600
8400
1800
ENDCHAR
STARTCHAR U+3080
ENCODING 12416
SWIDTH 836 0
DWIDTH 12 0
BBX 12 12 0 -2
BITMAP
3000
1A00
9EC0
F8A0
58B0
10B0
7040
5040
5040
3040
1FC0
0F80
ENDCHAR
STARTCHAR U+3081
ENCODING 12417
SWIDTH 836 0
DWIDTH 12 0
BBX 10 11 1 -1
BITMAP
0C00
0600
4600
5F80
74C0
2CC0
68C0
D8C0
9980
E900
4600
ENDCHAR
STARTCHAR U+3082
ENCODING 12418
SWIDTH 836 0
DWIDTH 12 0
BBX 8 12 2 -2
BITMAP
30
18
98
70
38
AC
F2
5B
69
63
3E
1C
ENDCHAR
STARTCHAR U+3083
ENCODING 12419
SWIDTH 836 0
DWIDTH 12 0
BBX 9 9 1 -2
BITMAP
0800
0C00
3700
6F80
B480
F300
1800
0C00
0C00
ENDCHAR
STARTCHAR U+3084
ENCODING 12420
SWIDTH 836 0
DWIDTH 12 0
BBX 12 11 0 -2
BITMAP
0400
3300
29E0
3730
1C30
9A60
7DC0
6400
0600
0300
0300
ENDCHAR
STARTCHAR U+3085
ENCODING 12421
SWIDTH 836 0
DWIDTH 12 0
BBX 8 9 2 -2
BITMAP
18
CC
5E
AB
EB
DB
5E
18
30
ENDCHAR
STARTCHAR U+3086
ENCODING 12422
SWIDTH 836 0
DWIDTH 12 0
BBX 10 12 1 -2
BITMAP
0800
C400
7700
6E80
D6C0
D6C0
F6C0
D680
6F00
4600
0C00
3000
ENDCHAR
STARTCHAR U+3087
ENCODING 12423
SWIDTH 836 0
DWIDTH 12 0
BBX 7 9 2 -2
BITMAP
30
18
16
1C
10
78
9E
F6
60
ENDCHAR
STARTCHAR U+3088
ENCODING 12424
SWIDTH 836 0
DWIDTH 12 0
BBX 10 12 1 -2
BITMAP
1800
0E00
0C00
0D80
0F80
0C00
0C00
0C00
7E00
8F80
CDC0
7800
ENDCHAR
STARTCHAR U+3089
ENCODING 12425
SWIDTH 836 0
DWIDTH 12 0
BBX 7 12 3 -2
BITMAP
20
10
38
58
C0
C0
DC
E6
C6
06
0C
30
ENDCHAR
STARTCHAR U+308A
ENCODING 12426
SWIDTH 836 0
DWIDTH 12 0
BBX 7 11 2 -2
BITMAP
C0
6C
76
56
E6
E6
C6
46
0C
08
30
ENDCHAR
STARTCHAR U+308B
ENCODING 12427
SWIDTH 836 0
DWIDTH 12 0
BBX 8 11 2 -2
BITMAP
5C
7C
28
10
2C
72
E3
C3
3B
2E
1C
ENDCHAR
STARTCHAR U+308C
ENCODING 12428
SWIDTH 836 0
DWIDTH 12 0
BBX 11 12 1 -2
BITMAP
6000
3000
3300
3580
2980
B180
E300
E300
A320
63C0
7180
6000
ENDCHAR
STARTCHAR U+308D
ENCODING 12429
SWIDTH 836 0
DWIDTH 12 0
BBX 8 11 2 -2
BITMAP
5C
7C
28
10
2C
76
C3
C3
03
06
18
ENDCHAR
STARTCHAR U+308E
ENCODING 12430
SWIDTH 836 0
DWIDTH 12 0
BBX 8 7 2 -2
BITMAP
60
30
EE
B3
63
E2
2C
ENDCHAR
STARTCHAR U+308F
ENCODING 12431
SWIDTH 836 0
DWIDTH 12 0
BBX 10 12 1 -2
BITMAP
6000
3000
3000
3000
2780
F8C0
B0C0
60C0
A0C0
B180
7600
6000
ENDCHAR
STARTCHAR U+3090
ENCODING 12432
SWIDTH 836 0
DWIDTH 12 0
BBX 10 11 1 -2
BITMAP
2E00
3E00
1400
1800
3F80
70C0
D0C0
A6C0
E9C0
4D80
0700
ENDCHAR
STARTCHAR U+3091
ENCODING 12433
SWIDTH 836 0
DWIDTH 12 0
BBX 12 11 0 -2
BITMAP
1700
1B00
0600
1B80
1CC0
0B80
0F00
31C0
6B20
CE70
CC30
ENDCHAR
STARTCHAR U+3092
ENCODING 12434
SWIDTH 836 0
DWIDTH 12 0
BBX 8 12 2 -2
BITMAP
30
18
B4
FC
22
7B
CF
DC
2C
20
3E
1F
ENDCHAR
STARTCHAR U+3093
ENCODING 12435
SWIDTH 836 0
DWIDTH 12 0
BBX 10 12 1 -2
BITMAP
1000
0C00
0C00
1800
1800
3000
2000
5840
6C40
CC80
CD80
C700
ENDCHAR
STARTCHAR U+3094
ENCODING 12436
SWIDTH 836 0
DWIDTH 12 0
BBX 10 12 2 -2
BITMAP
2080
1D40
0DC0
0080
BC00
E600
4600
0600
0600
0400
0C00
3000
ENDCHAR
STARTCHAR U+3095
ENCODING 12437
SWIDTH 836 0
DWIDTH 12 0
BBX 8 8 2 -2
BITMAP
64
32
BB
EF
2C
6C
5C
98
ENDCHAR
STARTCHAR U+3096
ENCODING 12438
SWIDTH 836 0
DWIDTH 12 0
BBX 8 8 2 -2
BITMAP
18
CE
6C
DF
CC
EC
48
10
ENDCHAR
STARTCHAR U+309B
ENCODING 12443
SWIDTH 836 0
DWIDTH 12 0
BBX 5 4 0 6
BITMAP
20
90
58
60
ENDCHAR
STARTCHAR U+309C
ENCODING 12444
SWIDTH 836 0
DWIDTH 12 0
BBX 4 4 0 6
BITMAP
60
90
90
60
ENDCHAR
STARTCHAR U+309D
ENCODING 12445
SWIDTH 836 0
DWIDTH 12 0
BBX 5 7 3 1
BITMAP
80
80
40
30
18
38
40
ENDCHAR
STARTCHAR U+309E
ENCODING 12446
SWIDTH 836 0
DWIDTH 12 0
BBX 7 8 3 1
BITMAP
08
94
8E
48
30
18
38
40
ENDCHAR
STARTCHAR U+30A1
ENCODING 12449
SWIDTH 836 0
DWIDTH 12 0
BBX 8 7 2 -2
BITMAP
0F
FA
54
18
18
10
20
ENDCHAR
STARTCHAR U+30A2
ENCODING 12450
SWIDTH 836 0
DWIDTH 12 0
BBX 10 11 1 -2
BITMAP
0080
8FC0
FCC0
7300
4C00
0C00
0C00
0800
1800
1000
2000
ENDCHAR
STARTCHAR U+30A3
ENCODING 12451
SWIDTH 836 0
DWIDTH 12 0
BBX 6 7 2 -2
BITMAP
0C
0C
18
38
D8
18
18
ENDCHAR
STARTCHAR U+30A4
ENCODING 12452
SWIDTH 836 0
DWIDTH 12 0
BBX 8 12 1 -2
BITMAP
02
03
07
06
0C
1C
2C
CC
0C
0C
0C
0C
ENDCHAR
STARTCHAR U+30A5
ENCODING 12453
SWIDTH 836 0
DWIDTH 12 0
BBX 7 8 2 -2
BITMAP
70
34
BE
F6
CC
CC
08
30
ENDCHAR
STARTCHAR U+30A6
ENCODING 12454
SWIDTH 836 0
DWIDTH 12 0
BBX 10 12 1 -2
BITMAP
1800
0E00
0D80
CFC0
7980
6180
6180
6300
0300
0600
0400
0800
ENDCHAR
STARTCHAR U+30A7
ENCODING 12455
SWIDTH 836 0
DWIDTH 12 0
BBX 8 6 2 -1
BITMAP
0E
7A
58
1A
9F
F0
ENDCHAR
STARTCHAR U+30A8
ENCODING 12456
SWIDTH 836 0
DWIDTH 12 0
BBX 10 9 1 -1
BITMAP
0700
7F80
6800
0C00
0C00
0C00
0D80
FFC0
6000
ENDCHAR
STARTCHAR U+30A9
ENCODING 12457
SWIDTH 836 0
DWIDTH 12 0
BBX 7 8 2 -2
BITMAP
30
18
9E
FA
38
58
B8
10
ENDCHAR
STARTCHAR U+30AA
ENCODING 12458
SWIDTH 836 0
DWIDTH 12 0
BBX 10 12 1 -2
BITMAP
0C00
0700
0600
0FC0
FEC0
6E00
1E00
1600
2600
D600
0E00
0400
ENDCHAR
STARTCHAR U+30AB
ENCODING 12459
SWIDTH 836 0
DWIDTH 12 0
BBX 10 11 0 -2
BITMAP
0E00
0600
0480
0FC0
7D80
6980
1980
3100
2700
4300
8200
ENDCHAR
STARTCHAR U+30AC
ENCODING 12460
SWIDTH 836 0
DWIDTH 12 0
BBX 12 11 0 -2
BITMAP
0E20
0650
0470
0FE0
7D80
6980
1980
3100
2700
4300
8200
ENDCHAR
STARTCHAR U+30AD
ENCODING 12461
SWIDTH 836 0
DWIDTH 12 0
BBX 10 12 1 -2
BITMAP
1800
0E00
0C00
0F80
7D80
6C00
07C0
FEC0
6600
0600
0600
0600
ENDCHAR
STARTCHAR U+30AE
ENCODING 12462
SWIDTH 836 0
DWIDTH 12 0
BBX 11 12 1 -2
BITMAP
1840
0EA0
0CE0
0F40
7D00
6C00
07C0
FEC0
6600
0600
0600
0600
ENDCHAR
STARTCHAR U+30AF
ENCODING 12463
SWIDTH 836 0
DWIDTH 12 0
BBX 8 11 2 -2
BITMAP
30
1B
1F
33
26
46
8C
08
10
20
40
ENDCHAR
STARTCHAR U+30B0
ENCODING 12464
SWIDTH 836 0
DWIDTH 12 0
BBX 11 12 1 -2
BITMAP
0040
30A0
1BE0
1F40
3300
2600
4600
8C00
0800
1000
2000
4000
ENDCHAR
STARTCHAR U+30B1
ENCODING 12465
SWIDTH 836 0
DWIDTH 12 0
BBX 10 10 1 -2
BITMAP
3000
1800
1B80
3FC0
2600
4600
8C00
0800
1000
2000
ENDCHAR
STARTCHAR U+30B2
ENCODING 12466
SWIDTH 836 0
DWIDTH 12 0
BBX 12 11 0 -2
BITMAP
0020
3050
1830
1BA0
3FC0
2600
4600
8C00
0800
1000
2000
ENDCHAR
STARTCHAR U+30B3
ENCODING 12467
SWIDTH 836 0
DWIDTH 12 0
BBX 8 7 2 0
BITMAP
06
FF
63
06
06
FE
66
ENDCHAR
STARTCHAR U+30B4
ENCODING 12468
SWIDTH 836 0
DWIDTH 12 0
BBX 10 9 2 0
BITMAP
0080
0140
0FC0
FE80
6600
0C00
0C00
FC00
6C00
ENDCHAR
STARTCHAR U+30B5
ENCODING 12469
SWIDTH 836 0
DWIDTH 12 0
BBX 12 12 0 -2
BITMAP
0300
31C0
1D80
19E0
1FF0
F980
D980
1980
0300
0300
0200
0C00
ENDCHAR
STARTCHAR U+30B6
ENCODING 12470
SWIDTH 836 0
DWIDTH 12 0
BBX 12 12 0 -2
BITMAP
0320
31D0
1DB0
19A0
1FF0
F980
D980
1980
0300
0300
0200
0C00
ENDCHAR
STARTCHAR U+30B7
ENCODING 12471
SWIDTH 836 0
DWIDTH 12 0
BBX 10 10 1 -1
BITMAP
4000
3800
9800
7040
3080
0100
0600
9C00
7800
6000
ENDCHAR
STARTCHAR U+30B8
ENCODING 12472
SWIDTH 836 0
DWIDTH 12 0
BBX 11 10 1 -1
BITMAP
4040
38A0
9860
7040
3080
0100
0600
9C00
7800
6000
ENDCHAR
STARTCHAR U+30B9
ENCODING 12473
SWIDTH 836 0
DWIDTH 12 0
BBX 9 9 1 -1
BITMAP
0F00
7E00
6600
0C00
0C00
1A00
1300
2180
C180
ENDCHAR
STARTCHAR U+30BA
ENCODING 12474
SWIDTH 836 0
DWIDTH 12 0
BBX 11 11 1 -1
BITMAP
0040
00A0
0FE0
7E40
6600
0C00
0C00
1A00
1300
2180
C180
ENDCHAR
STARTCHAR U+30BB
ENCODING 12475
SWIDTH 836 0
DWIDTH 12 0
BBX 10 11 0 -1
BITMAP
3800
1C00
1800
1980
1FC0
F980
D900
1A00
1800
1FC0
0FC0
ENDCHAR
STARTCHAR U+30BC
ENCODING 12476
SWIDTH 836 0
DWIDTH 12 0
BBX 12 11 0 -1
BITMAP
3820
1C50
1870
19A0
1FC0
F980
D900
1A00
1800
1FC0
0FC0
ENDCHAR
STARTCHAR U+30BD
ENCODING 12477
SWIDTH 836 0
DWIDTH 12 0
BBX 9 11 1 -2
BITMAP
0300
8180
4380
6300
6300
0600
0600
0C00
0800
1000
2000
ENDCHAR
STARTCHAR U+30BE
ENCODING 12478
SWIDTH 836 0
DWIDTH 12 0
BBX 11 12 1 -2
BITMAP
0040
04A0
83E0
4340
6300
6300
0600
0600
0C00
0800
1000
2000
ENDCHAR
STARTCHAR U+30BF
ENCODING 12479
SWIDTH 836 0
DWIDTH 12 0
BBX 8 11 2 -2
BITMAP
30
1B
1F
36
36
5C
8C
18
10
20
40
ENDCHAR
STARTCHAR U+30C0
ENCODING 12480
SWIDTH 836 0
DWIDTH 12 0
BBX 11 12 1 -2
BITMAP
0040
30A0
1BE0
1F40
3600
3600
5C00
8C00
1800
1000
2000
4000
ENDCHAR
STARTCHAR U+30C1
ENCODING 12481
SWIDTH 836 0
DWIDTH 12 0
BBX 10 12 1 -2
BITMAP
0400
0600
1E00
7800
0D80
0FC0
FC00
6C00
0800
1800
1000
6000
ENDCHAR
STARTCHAR U+30C2
ENCODING 12482
SWIDTH 836 0
DWIDTH 12 0
BBX 11 12 1 -2
BITMAP
0400
0640
1EA0
7860
0DC0
0F80
FC00
6C00
0800
1800
1000
6000
ENDCHAR
STARTCHAR U+30C3
ENCODING 12483
SWIDTH 836 0
DWIDTH 12 0
BBX 7 7 2 -2
BITMAP
24
B6
D6
44
0C
08
30
ENDCHAR
STARTCHAR U+30C4
ENCODING 12484
SWIDTH 836 0
DWIDTH 12 0
BBX 10 11 1 -2
BITMAP
2180
18C0
99C0
6180
6180
0300
0300
0600
0400
0800
1000
ENDCHAR
STARTCHAR U+30C5
ENCODING 12485
SWIDTH 836 0
DWIDTH 12 0
BBX 12 12 0 -2
BITMAP
0020
2050
1970
99A0
6180
6180
0300
0300
0600
0400
0800
1000
ENDCHAR
STARTCHAR U+30C6
ENCODING 12486
SWIDTH 836 0
DWIDTH 12 0
BBX 10 11 1 -2
BITMAP
0600
7F00
3000
8F80
FDC0
6C00
0C00
0800
1800
1000
2000
ENDCHAR
STARTCHAR U+30C7
ENCODING 12487
SWIDTH 836 0
DWIDTH 12 0
BBX 11 12 1 -2
BITMAP
0040
06A0
7EE0
3040
8F80
FD80
6C00
0C00
0800
1800
1000
2000
ENDCHAR
STARTCHAR U+30C8
ENCODING 12488
SWIDTH 836 0
DWIDTH 12 0
BBX 7 12 3 -2
BITMAP
C0
70
60
60
78
6E
66
60
60
60
60
60
ENDCHAR
STARTCHAR U+30C9
ENCODING 12489
SWIDTH 836 0
DWIDTH 12 0
BBX 8 12 3 -2
BITMAP
C0
72
65
67
7A
6E
66
60
60
60
60
60
ENDCHAR
STARTCHAR U+30CA
ENCODING 12490
SWIDTH 836 0
DWIDTH 12 0
BBX 10 12 1 -2
BITMAP
1800
0E00
0C00
0C00
0FC0
FCC0
6C00
0C00
0800
1800
1000
2000
ENDCHAR
STARTCHAR U+30CB
ENCODING 12491
SWIDTH 836 0
DWIDTH 12 0
BBX 10 7 1 0
BITMAP
0600
7F00
7000
0000
0380
FFC0
E000
ENDCHAR
STARTCHAR U+30CC
ENCODING 12492
SWIDTH 836 0
DWIDTH 12 0
BBX 8 9 2 -1
BITMAP
0E
F7
E6
2C
18
1E
33
23
C0
ENDCHAR
STARTCHAR U+30CD
ENCODING 12493
SWIDTH 836 0
DWIDTH 12 0
BBX 9 12 1 -2
BITMAP
1800
0E00
0400
5F00
7600
2C00
1B00
3D80
CD80
0C00
0C00
0C00
ENDCHAR
STARTCHAR U+30CE
ENCODING 12494
SWIDTH 836 0
DWIDTH 12 0
BBX 8 10 2 -1
BITMAP
04
07
06
06
0C
0C
18
10
20
C0
ENDCHAR
STARTCHAR U+30CF
ENCODING 12495
SWIDTH 836 0
DWIDTH 12 0
BBX 10 7 1 0
BITMAP
3200
3100
3180
20C0
60C0
40C0
8000
ENDCHAR
STARTCHAR U+30D0
ENCODING 12496
SWIDTH 836 0
DWIDTH 12 0
BBX 11 9 1 0
BITMAP
0040
00A0
3240
3140
3180
20C0
60C0
40C0
8000
ENDCHAR
STARTCHAR U+30D1
ENCODING 12497
SWIDTH 836 0
DWIDTH 12 0
BBX 11 9 1 0
BITMAP
00E0
00A0
32E0
3100
3180
20C0
60C0
40C0
8000
ENDCHAR
STARTCHAR U+30D2
ENCODING 12498
SWIDTH 836 0
DWIDTH 12 0
BBX 8 10 2 -1
BITMAP
C0
70
60
66
7E
60
60
60
7F
3F
ENDCHAR
STARTCHAR U+30D3
ENCODING 12499
SWIDTH 836 0
DWIDTH 12 0
BBX 10 10 2 -1
BITMAP
C080
7140
61C0
6680
7E00
6000
6000
6000
7F00
3F00
ENDCHAR
STARTCHAR U+30D4
ENCODING 12500
SWIDTH 836 0
DWIDTH 12 0
BBX 10 10 2 -1
BITMAP
C1C0
7140
61C0
6600
7E00
6000
6000
6000
7F00
3F00
ENDCHAR
STARTCHAR U+30D5
ENCODING 12501
SWIDTH 836 0
DWIDTH 12 0
BBX 9 9 1 -1
BITMAP
0F80
FB00
E300
0600
0600
0C00
0800
1000
2000
ENDCHAR
STARTCHAR U+30D6
ENCODING 12502
SWIDTH 836 0
DWIDTH 12 0
BBX 11 11 1 -1
BITMAP
0040
00A0
0FE0
FB40
E300
0600
0600
0C00
0800
1000
2000
ENDCHAR
STARTCHAR U+30D7
ENCODING 12503
SWIDTH 836 0
DWIDTH 12 0
BBX 11 11 1 -1
BITMAP
00E0
00A0
0FE0
FB00
E300
0600
0600
0C00
0800
1000
2000
ENDCHAR
STARTCHAR U+30D8
ENCODING 12504
SWIDTH 836 0
DWIDTH 12 0
BBX 10 6 1 1
BITMAP
3800
2400
6600
E300
41C0
00C0
ENDCHAR
STARTCHAR U+30D9
ENCODING 12505
SWIDTH 836 0
DWIDTH 12 0
BBX 10 8 1 1
BITMAP
0100
0280
3B80
2500
6600
E300
41C0
00C0
ENDCHAR
STARTCHAR U+30DA
ENCODING 12506
SWIDTH 836 0
DWIDTH 12 0
BBX 10 8 1 1
BITMAP
0380
0280
3B80
2400
6600
E300
41C0
00C0
ENDCHAR
STARTCHAR U+30DB
ENCODING 12507
SWIDTH 836 0
DWIDTH 12 0
BBX 10 11 1 -2
BITMAP
1800
0E00
0C00
8FC0
FCC0
6E00
4D80
CCC0
ECC0
1C00
0800
ENDCHAR
STARTCHAR U+30DC
ENCODING 12508
SWIDTH 836 0
DWIDTH 12 0
BBX 11 12 1 -2
BITMAP
0040
18A0
0EE0
0C40
8FC0
FCC0
6E00
4D80
CCC0
ECC0
1C00
0800
ENDCHAR
STARTCHAR U+30DD
ENCODING 12509
SWIDTH 836 0
DWIDTH 12 0
BBX 11 12 1 -2
BITMAP
00E0
18A0
0EE0
0C00
8FC0
FCC0
6E00
4D80
CCC0
ECC0
1C00
0800
ENDCHAR
STARTCHAR U+30DE
ENCODING 12510
SWIDTH 836 0
DWIDTH 12 0
BBX 9 7 1 0
BITMAP
8F80
FB80
E200
1C00
0C00
0600
0600
ENDCHAR
STARTCHAR U+30DF
ENCODING 12511
SWIDTH 836 0
DWIDTH 12 0
BBX 7 10 2 -1
BITMAP
78
0E
06
70
1C
0C
F0
1C
0E
06
ENDCHAR
STARTCHAR U+30E0
ENCODING 12512
SWIDTH 836 0
DWIDTH 12 0
BBX 10 10 1 -1
BITMAP
1800
0C00
0C00
1800
1A00
1100
1180
2780
F8C0
E0C0
ENDCHAR
STARTCHAR U+30E1
ENCODING 12513
SWIDTH 836 0
DWIDTH 12 0
BBX 9 10 1 -1
BITMAP
0300
0380
0300
3600
0E00
0C00
1B00
1180
2180
C000
ENDCHAR
STARTCHAR U+30E2
ENCODING 12514
SWIDTH 836 0
DWIDTH 12 0
BBX 10 9 1 -1
BITMAP
0F00
7B00
7800
1FC0
FCC0
D800
1800
1F80
0F80
ENDCHAR
STARTCHAR U+30E3
ENCODING 12515
SWIDTH 836 0
DWIDTH 12 0
BBX 8 7 2 -2
BITMAP
60
2F
3A
F4
98
08
0C
ENDCHAR
STARTCHAR U+30E4
ENCODING 12516
SWIDTH 836 0
DWIDTH 12 0
BBX 11 11 0 -2
BITMAP
3000
1800
1BC0
0EE0
1C80
F500
6600
0200
0300
0180
0180
ENDCHAR
STARTCHAR U+30E5
ENCODING 12517
SWIDTH 836 0
DWIDTH 12 0
BBX 8 6 2 -1
BITMAP
0C
74
28
0A
FF
40
ENDCHAR
STARTCHAR U+30E6
ENCODING 12518
SWIDTH 836 0
DWIDTH 12 0
BBX 10 7 1 0
BITMAP
0F00
7600
6600
0400
0D80
FFC0
6000
ENDCHAR
STARTCHAR U+30E7
ENCODING 12519
SWIDTH 836 0
DWIDTH 12 0
BBX 6 7 3 -2
BITMAP
1C
EC
1C
E8
18
B8
D8
ENDCHAR
STARTCHAR U+30E8
ENCODING 12520
SWIDTH 836 0
DWIDTH 12 0
BBX 8 8 2 0
BITMAP
0F
F3
C3
1E
76
06
DE
E6
ENDCHAR
STARTCHAR U+30E9
ENCODING 12521
SWIDTH 836 0
DWIDTH 12 0
BBX 8 11 2 -2
BITMAP
0E
7E
60
1F
F6
C6
0C
0C
18
10
20
ENDCHAR
STARTCHAR U+30EA
ENCODING 12522
SWIDTH 836 0
DWIDTH 12 0
BBX 8 12 2 -2
BITMAP
0C
C7
76
66
66
66
66
66
04
0C
08
30
ENDCHAR
STARTCHAR U+30EB
ENCODING 12523
SWIDTH 836 0
DWIDTH 12 0
BBX 12 10 0 -1
BITMAP
0600
3380
1B00
1B00
1B10
1320
3340
2380
4300
8600
ENDCHAR
STARTCHAR U+30EC
ENCODING 12524
SWIDTH 836 0
DWIDTH 12 0
BBX 9 10 2 -1
BITMAP
C000
7000
6000
6000
6080
6100
6600
7C00
7000
4000
ENDCHAR
STARTCHAR U+30ED
ENCODING 12525
SWIDTH 836 0
DWIDTH 12 0
BBX 8 8 1 0
BITMAP
CF
73
63
66
66
66
7F
60
ENDCHAR
STARTCHAR U+30EE
ENCODING 12526
SWIDTH 836 0
DWIDTH 12 0
BBX 7 7 3 -2
BITMAP
9E
EC
CC
C8
18
10
20
ENDCHAR
STARTCHAR U+30EF
ENCODING 12527
SWIDTH 836 0
DWIDTH 12 0
BBX 9 10 1 -2
BITMAP
CF00
7980
6380
6300
6300
0600
0600
0400
0800
3000
ENDCHAR
STARTCHAR U+30F0
ENCODING 12528
SWIDTH 836 0
DWIDTH 12 0
BBX 10 12 1 -2
BITMAP
0C00
0700
0600
0780
7F80
3600
3780
FFC0
6600
0600
0600
0600
ENDCHAR
STARTCHAR U+30F1
ENCODING 12529
SWIDTH 836 0
DWIDTH 12 0
BBX 10 9 1 -1
BITMAP
0700
7B80
6600
1C00
0C00
0C00
0D80
FFC0
6000
ENDCHAR
STARTCHAR U+30F2
ENCODING 12530
SWIDTH 836 0
DWIDTH 12 0
BBX 8 10 2 -2
BITMAP
0E
FB
E3
1E
F6
CC
0C
18
10
60
ENDCHAR
STARTCHAR U+30F3
ENCODING 12531
SWIDTH 836 0
DWIDTH 12 0
BBX 10 9 1 -1
BITMAP
8000
7000
3040
0080
0100
0600
9C00
7800
6000
ENDCHAR
STARTCHAR U+30F4
ENCODING 12532
SWIDTH 836 0
DWIDTH 12 0
BBX 11 12 1 -2
BITMAP
3040
1CA0
19E0
DF40
7300
6300
6300
6600
0600
0C00
0800
1000
ENDCHAR
STARTCHAR U+30F5
ENCODING 12533
SWIDTH 836 0
DWIDTH 12 0
BBX 7 7 2 -2
BITMAP
30
BE
F6
36
66
5C
98
ENDCHAR
STARTCHAR U+30F6
ENCODING 12534
SWIDTH 836 0
DWIDTH 12 0
BBX 8 8 2 -2
BITMAP
30
36
7F
6C
8C
18
10
20
ENDCHAR
STARTCHAR U+30F7
ENCODING 12535
SWIDTH 836 0
DWIDTH 12 0
BBX 11 12 1 -2
BITMAP
0040
00A0
CFE0
7B40
6300
6300
6300
0600
0600
0400
0800
3000
ENDCHAR
STARTCHAR U+30F8
ENCODING 12536
SWIDTH 836 0
DWIDTH 12 0
BBX 11 12 1 -2
BITMAP
0C40
07A0
06E0
0740
7F80
3600
3780
FFC0
6600
0600
0600
0600
ENDCHAR
STARTCHAR U+30F9
ENCODING 12537
SWIDTH 836 0
DWIDTH 12 0
BBX 11 11 1 -1
BITMAP
0040
00A0
07E0
7B40
6600
1C00
0C00
0C00
0D80
FFC0
6000
ENDCHAR
STARTCHAR U+30FA
ENCODING 12538
SWIDTH 836 0
DWIDTH 12 0
BBX 10 12 2 -2
BITMAP
0080
0140
0FC0
FE80
E600
1E00
F600
CC00
0C00
1800
1000
6000
ENDCHAR
STARTCHAR U+30FB
ENCODING 12539
SWIDTH 836 0
DWIDTH 12 0
BBX 2 2 5 3
BITMAP
C0
C0
ENDCHAR
STARTCHAR U+30FC
ENCODING 12540
SWIDTH 836 0
DWIDTH 12 0
BBX 12 4 0 2
BITMAP
8000
FFE0
7FF0
2000
ENDCHAR
STARTCHAR U+30FD
ENCODING 12541
SWIDTH 836 0
DWIDTH 12 0
BBX 5 5 3 2
BITMAP
80
60
30
18
18
ENDCHAR
STARTCHAR U+30FE
ENCODING 12542
SWIDTH 836 0
DWIDTH 12 0
BBX 8 7 2 2
BITMAP
04
0A
87
64
30
18
18
ENDCHAR
STARTCHAR U+3105
ENCODING 12549
SWIDTH 836 0
DWIDTH 12 0
BBX 9 12 2 -2
BITMAP
2000
3800
3000
6300
FF80
C300
0700
0600
4C00
3C00
1800
1000
ENDCHAR
STARTCHAR U+3106
ENCODING 12550
SWIDTH 836 0
DWIDTH 12 0
BBX 11 12 0 -2
BITMAP
0400
0600
0EC0
0FE0
30C0
0980
0700
0780
0D80
18C0
60C0
8000
ENDCHAR
STARTCHAR U+3107
ENCODING 12551
SWIDTH 836 0
DWIDTH 12 0
BBX 9 11 2 -1
BITMAP
0300
DF80
7D80
3180
3180
3180
3180
6180
6180
6180
C100
ENDCHAR
STARTCHAR U+3108
ENCODING 12552
SWIDTH 836 0
DWIDTH 12 0
BBX 10 10 1 -1
BITMAP
87C0
FF00
6000
6000
6000
6000
6000
7000
3F80
1F80
ENDCHAR
STARTCHAR U+3109
ENCODING 12553
SWIDTH 836 0
DWIDTH 12 0
BBX 10 12 1 -2
BITMAP
1000
1800
3180
3FC0
7D80
6D80
1980
1B80
3300
6700
8E00
0400
ENDCHAR
STARTCHAR U+310A
ENCODING 12554
SWIDTH 836 0
DWIDTH 12 0
BBX 11 12 0 -2
BITMAP
0C00
0700
06C0
07E0
FE00
6C00
1C00
1800
3080
7FC0
3CE0
2040
ENDCHAR
STARTCHAR U+310B
ENCODING 12555
SWIDTH 836 0
DWIDTH 12 0
BBX 10 12 1 -2
BITMAP
0300
8780
7F80
3300
0680
0FC0
0CC0
0180
1380
0F00
0600
0600
ENDCHAR
STARTCHAR U+310C
ENCODING 12556
SWIDTH 836 0
DWIDTH 12 0
BBX 11 12 0 -2
BITMAP
0700
3B80
1B00
1B40
13E0
3EC0
36C0
0CC0
18C0
67C0
8380
0100
ENDCHAR
STARTCHAR U+310D
ENCODING 12557
SWIDTH 836 0
DWIDTH 12 0
BBX 10 12 0 -2
BITMAP
1100
1980
1980
3300
6200
C600
6200
3300
1980
19C0
0CC0
0880
ENDCHAR
STARTCHAR U+310E
ENCODING 12558
SWIDTH 836 0
DWIDTH 12 0
BBX 11 12 0 -2
BITMAP
00C0
9FE0
FC00
0C00
1980
1FC0
0980
0180
1B80
0F00
0600
0400
ENDCHAR
STARTCHAR U+310F
ENCODING 12559
SWIDTH 836 0
DWIDTH 12 0
BBX 12 12 0 -2
BITMAP
0060
23F0
3F00
1C00
1800
1800
1800
3000
3000
6000
4000
8000
ENDCHAR
STARTCHAR U+3110
ENCODING 12560
SWIDTH 836 0
DWIDTH 12 0
BBX 8 12 2 -2
BITMAP
0C
07
E6
66
66
7E
76
E6
C6
06
06
04
ENDCHAR
STARTCHAR U+3111
ENCODING 12561
SWIDTH 836 0
DWIDTH 12 0
BBX 7 12 2 -2
BITMAP
08
0C
0C
18
30
60
E0
30
18
0C
06
06
ENDCHAR
STARTCHAR U+3112
ENCODING 12562
SWIDTH 836 0
DWIDTH 12 0
BBX 10 12 1 -2
BITMAP
0180
8FC0
FC00
0C00
0C00
0C00
0C00
0C00
0C00
0C00
0C00
0800
ENDCHAR
STARTCHAR U+3113
ENCODING 12563
SWIDTH 836 0
DWIDTH 12 0
BBX 12 12 0 -2
BITMAP
0E00
4780
36E0
36C0
36C0
36C0
3FC0
3600
0600
8660
FFF0
4000
ENDCHAR
STARTCHAR U+3114
ENCODING 12564
SWIDTH 836 0
DWIDTH 12 0
BBX 10 12 1 -2
BITMAP
0400
0700
0680
0CC0
1980
6300
0600
1E00
E600
0600
0600
0400
ENDCHAR
STARTCHAR U+3115
ENCODING 12565
SWIDTH 836 0
DWIDTH 12 0
BBX 11 12 0 -2
BITMAP
00C0
8FE0
7CC0
00C0
67C0
3CC0
3000
3000
3000
6000
4000
8000
ENDCHAR
STARTCHAR U+3116
ENCODING 12566
SWIDTH 836 0
DWIDTH 12 0
BBX 10 12 1 -2
BITMAP
0380
CFC0
7180
6180
7180
6D80
6580
6180
6780
7D80
6100
4000
ENDCHAR
STARTCHAR U+3117
ENCODING 12567
SWIDTH 836 0
DWIDTH 12 0
BBX 10 12 1 -2
BITMAP
8180
FFC0
59C0
1980
1980
1980
1F80
1B00
1A00
1800
1800
1000
ENDCHAR
STARTCHAR U+3118
ENCODING 12568
SWIDTH 836 0
DWIDTH 12 0
BBX 10 12 1 -2
BITMAP
1000
1800
1B00
9FC0
7800
1000
3300
7F80
2300
0600
0400
0800
ENDCHAR
STARTCHAR U+3119
ENCODING 12569
SWIDTH 836 0
DWIDTH 12 0
BBX 12 12 0 -2
BITMAP
0800
0400
0600
0600
0C00
0C00
1880
1040
33E0
3E30
F030
6000
ENDCHAR
STARTCHAR U+311A
ENCODING 12570
SWIDTH 836 0
DWIDTH 12 0
BBX 10 12 1 -2
BITMAP
8100
41C0
6180
3300
1E00
0400
0C00
0C00
0C00
0C00
0C00
0400
ENDCHAR
STARTCHAR U+311B
ENCODING 12571
SWIDTH 836 0
DWIDTH 12 0
BBX 11 12 0 -2
BITMAP
00C0
87E0
7E00
0600
0600
1E00
3200
6000
6040
6080
3300
1E00
ENDCHAR
STARTCHAR U+311C
ENCODING 12572
SWIDTH 836 0
DWIDTH 12 0
BBX 11 12 0 -2
BITMAP
0C00
0600
06C0
87E0
7E00
0600
1E00
3200
3000
3040
1980
0F00
ENDCHAR
STARTCHAR U+311D
ENCODING 12573
SWIDTH 836 0
DWIDTH 12 0
BBX 12 12 0 -2
BITMAP
2300
3980
1980
1BF0
FFE0
7980
1980
1900
1A00
1860
1FF0
0FE0
ENDCHAR
STARTCHAR U+311E
ENCODING 12574
SWIDTH 836 0
DWIDTH 12 0
BBX 12 12 0 -2
BITMAP
80E0
7FF0
3300
1B00
1B40
3FE0
36C0
0CC0
0DC0
1980
3100
4200
ENDCHAR
STARTCHAR U+311F
ENCODING 12575
SWIDTH 836 0
DWIDTH 12 0
BBX 12 12 0 -2
BITMAP
0C00
CE00
7A00
0200
0200
0300
0300
0100
0180
00C0
00E0
0070
ENDCHAR
STARTCHAR U+3120
ENCODING 12576
SWIDTH 836 0
DWIDTH 12 0
BBX 12 12 0 -2
BITMAP
0400
0600
0C00
0D00
19C0
7F80
3300
0680
0C40
19E0
FE70
3830
ENDCHAR
STARTCHAR U+3121
ENCODING 12577
SWIDTH 836 0
DWIDTH 12 0
BBX 11 12 0 -2
BITMAP
01C0
47E0
3CC0
00C0
1980
0700
0380
06C0
0CC0
1860
3060
C000
ENDCHAR
STARTCHAR U+3122
ENCODING 12578
SWIDTH 836 0
DWIDTH 12 0
BBX 10 12 1 -2
BITMAP
8300
7F80
3300
3700
6680
6FC0
F980
C380
0300
0600
0400
0800
ENDCHAR
STARTCHAR U+3123
ENCODING 12579
SWIDTH 836 0
DWIDTH 12 0
BBX 10 12 1 -2
BITMAP
2000
3800
3000
3080
67C0
7D80
F180
C180
0300
0200
0200
0400
ENDCHAR
STARTCHAR U+3124
ENCODING 12580
SWIDTH 836 0
DWIDTH 12 0
BBX 12 12 0 -2
BITMAP
1800
0E00
0C00
0CC0
BFE0
CE00
1B80
1B00
3300
2300
43F0
81F0
ENDCHAR
STARTCHAR U+3125
ENCODING 12581
SWIDTH 836 0
DWIDTH 12 0
BBX 12 12 0 -2
BITMAP
0400
0300
0300
0300
0600
0600
0C00
0800
1060
27F0
FC00
6000
ENDCHAR
STARTCHAR U+3126
ENCODING 12582
SWIDTH 836 0
DWIDTH 12 0
BBX 12 12 0 -2
BITMAP
0200
3380
1B00
1B00
1B00
1B00
1B00
1B00
3B00
3330
63F0
81E0
ENDCHAR
STARTCHAR U+3127
ENCODING 12583
SWIDTH 836 0
DWIDTH 12 0
BBX 12 3 0 3
BITMAP
00E0
8FF0
F800
ENDCHAR
STARTCHAR U+3128
ENCODING 12584
SWIDTH 836 0
DWIDTH 12 0
BBX 11 12 0 -2
BITMAP
0180
00E0
60C0
18C0
0580
0380
0300
0380
06C0
0C60
1860
E000
ENDCHAR
STARTCHAR U+3129
ENCODING 12585
SWIDTH 836 0
DWIDTH 12 0
BBX 11 12 0 -2
BITMAP
6180
38E0
30C0
30C0
30C0
30C0
30C0
30C0
30C0
37C0
FCC0
6080
ENDCHAR
STARTCHAR U+312A
ENCODING 12586
SWIDTH 836 0
DWIDTH 12 0
BBX 12 12 0 -2
BITMAP
00E0
47F0
7E00
0600
0640
0FE0
0CC0
18C0
18C0
35C0
6380
8300
ENDCHAR
STARTCHAR U+312B
ENCODING 12587
SWIDTH 836 0
DWIDTH 12 0
BBX 12 12 0 -2
BITMAP
00C0
87E0
7F00
1B00
1B00
1B00
1B00
1B00
3B00
3300
63F0
81F0
ENDCHAR
STARTCHAR U+312C
ENCODING 12588
SWIDTH 836 0
DWIDTH 12 0
BBX 11 12 1 -2
BITMAP
0C00
06C0
C7E0
7C00
3000
3000
3000
3000
6000
6000
4000
8000
ENDCHAR
STARTCHAR U+312D
ENCODING 12589
SWIDTH 836 0
DWIDTH 12 0
BBX 12 12 0 -2
BITMAP
0060
87F0
7E00
06C0
27E0
3EC0
36C0
36C0
36C0
36C0
2680
0600
ENDCHAR
STARTCHAR U+312E
ENCODING 12590
SWIDTH 836 0
DWIDTH 12 0
BBX 11 12 0 -2
BITMAP
0600
0600
00C0
87E0
7E00
0600
1E00
3200
3000
3040
1980
0F00
ENDCHAR
STARTCHAR U+312F
ENCODING 12591
SWIDTH 836 0
DWIDTH 12 0
BBX 10 12 1 -2
BITMAP
0180
8FC0
F980
4300
0680
0FC0
3EC0
3CC0
0CC0
0F80
0D80
0D00
ENDCHAR
STARTCHAR U+3190
ENCODING 12688
SWIDTH 836 0
DWIDTH 12 0
BBX 3 8 5 2
BITMAP
E0
C0
C0
C0
C0
C0
C0
C0
ENDCHAR
STARTCHAR U+3191
ENCODING 12689
SWIDTH 836 0
DWIDTH 12 0
BBX 7 8 3 2
BITMAP
38
30
30
30
30
36
F8
60
ENDCHAR
STARTCHAR U+3192
ENCODING 12690
SWIDTH 836 0
DWIDTH 12 0
BBX 8 3 2 5
BITMAP
04
0E
FF
ENDCHAR
STARTCHAR U+3193
ENCODING 12691
SWIDTH 836 0
DWIDTH 12 0
BBX 8 6 2 3
BITMAP
0C
7E
00
00
06
FF
ENDCHAR
STARTCHAR U+3194
ENCODING 12692
SWIDTH 836 0
DWIDTH 12 0
BBX 8 7 2 3
BITMAP
0C
7E
08
3C
00
06
FF
ENDCHAR
STARTCHAR U+3195
ENCODING 12693
SWIDTH 836 0
DWIDTH 12 0
BBX 8 8 2 2
BITMAP
86
FF
D6
D6
DE
E6
FE
C6
ENDCHAR
STARTCHAR U+3196
ENCODING 12694
SWIDTH 836 0
DWIDTH 12 0
BBX 8 7 2 3
BITMAP
38
34
3E
30
30
36
FF
ENDCHAR
STARTCHAR U+3197
ENCODING 12695
SWIDTH 836 0
DWIDTH 12 0
BBX 8 8 2 2
BITMAP
38
B6
FF
B6
FE
B6
30
30
ENDCHAR
STARTCHAR U+3198
ENCODING 12696
SWIDTH 836 0
DWIDTH 12 0
BBX 8 8 2 2
BITMAP
06
FF
30
3C
36
36
30
30
ENDCHAR
STARTCHAR U+3199
ENCODING 12697
SWIDTH 836 0
DWIDTH 12 0
BBX 8 8 2 2
BITMAP
86
FF
B6
FE
B6
FE
B6
30
ENDCHAR
STARTCHAR U+319A
ENCODING 12698
SWIDTH 836 0
DWIDTH 12 0
BBX 8 8 2 2
BITMAP
0C
FE
0C
18
32
62
FF
7F
ENDCHAR
STARTCHAR U+319B
ENCODING 12699
SWIDTH 836 0
DWIDTH 12 0
BBX 8 8 2 2
BITMAP
06
FF
30
FF
B6
AE
DE
8C
ENDCHAR
STARTCHAR U+319C
ENCODING 12700
SWIDTH 836 0
DWIDTH 12 0
BBX 8 8 2 2
BITMAP
06
FF
18
18
18
18
78
30
ENDCHAR
STARTCHAR U+319D
ENCODING 12701
SWIDTH 836 0
DWIDTH 12 0
BBX 8 8 2 2
BITMAP
04
7E
1A
FF
18
37
26
C2
ENDCHAR
STARTCHAR U+319E
ENCODING 12702
SWIDTH 836 0
DWIDTH 12 0
BBX 8 8 2 2
BITMAP
6C
7A
EF
7A
6E
E9
BF
1F
ENDCHAR
STARTCHAR U+319F
ENCODING 12703
SWIDTH 836 0
DWIDTH 12 0
BBX 8 7 2 3
BITMAP
1C
18
18
18
34
27
C2
ENDCHAR
STARTCHAR U+3220
ENCODING 12832
SWIDTH 836 0
DWIDTH 12 0
BBX 12 12 0 -2
BITMAP
1080
2040
6060
4020
C330
DFB0
C030
C030
4020
6060
2040
1080
ENDCHAR
STARTCHAR U+3221
ENCODING 12833
SWIDTH 836 0
DWIDTH 12 0
BBX 12 12 0 -2
BITMAP
1080
2040
6060
4320
DFB0
C030
C1B0
FFF0
4020
6060
2040
1080
ENDCHAR
STARTCHAR U+3222
ENCODING 12834
SWIDTH 836 0
DWIDTH 12 0
BBX 12 12 0 -2
BITMAP
1080
2040
61E0
7FE0
C330
DFB0
C030
C130
7FE0
6060
2040
1080
ENDCHAR
STARTCHAR U+3223
ENCODING 12835
SWIDTH 836 0
DWIDTH 12 0
BBX 12 12 0 -2
BITMAP
1080
2040
71E0
5FE0
D5B0
D5B0
D7B0
D9B0
5FA0
71E0
2040
1080
ENDCHAR
STARTCHAR U+3224
ENCODING 12836
SWIDTH 836 0
DWIDTH 12 0
BBX 12 12 0 -2
BITMAP
1080
2040
6160
7FE0
C630
DFB0
CD30
CD30
7FE0
6060
2040
1080
ENDCHAR
STARTCHAR U+3225
ENCODING 12837
SWIDTH 836 0
DWIDTH 12 0
BBX 12 12 0 -2
BITMAP
1080
2040
6C60
4620
C4B0
FFF0
CA30
CDB0
59A0
7160
2040
1080
ENDCHAR
STARTCHAR U+3226
ENCODING 12838
SWIDTH 836 0
DWIDTH 12 0
BBX 12 12 0 -2
BITMAP
1080
2040
6E60
4DA0
CFF0
FC30
CD30
CD30
4FA0
67E0
2040
1080
ENDCHAR
STARTCHAR U+3227
ENCODING 12839
SWIDTH 836 0
DWIDTH 12 0
BBX 12 12 0 -2
BITMAP
1080
2040
6A60
4A20
CB30
D9B0
D9F0
D0F0
60A0
6060
2040
1080
ENDCHAR
STARTCHAR U+3228
ENCODING 12840
SWIDTH 836 0
DWIDTH 12 0
BBX 12 12 0 -2
BITMAP
1080
2040
7C60
5B20
FFB0
DB30
DB30
DB70
53E0
71E0
2040
1080
ENDCHAR
STARTCHAR U+3229
ENCODING 12841
SWIDTH 836 0
DWIDTH 12 0
BBX 12 12 0 -2
BITMAP
1080
2040
6760
4620
C6B0
FFF0
C630
C630
4620
6660
2040
1080
ENDCHAR
STARTCHAR U+3231
ENCODING 12849
SWIDTH 836 0
DWIDTH 12 0
BBX 11 12 0 -2
BITMAP
2080
5F40
5B40
FFE0
BB20
BFE0
FBA0
DFE0
DFE0
5B40
5B40
2080
ENDCHAR
STARTCHAR U+3232
ENCODING 12850
SWIDTH 836 0
DWIDTH 12 0
BBX 11 12 0 -2
BITMAP
2080
4D40
7FC0
CC60
9F20
9B20
BF20
DB20
DF60
5B40
5B40
2080
ENDCHAR
STARTCHAR U+3239
ENCODING 12857
SWIDTH 836 0
DWIDTH 12 0
BBX 11 12 0 -2
BITMAP
2080
4FC0
4B40
DBE0
BF20
9B20
9B20
9B20
DBE0
5940
59C0
2080
ENDCHAR
STARTCHAR U+32A4
ENCODING 12964
SWIDTH 836 0
DWIDTH 12 0
BBX 11 11 0 -1
BITMAP
1F00
6EC0
4C40
8D20
8FA0
8C20
8C20
8DA0
7FC0
60C0
1F00
ENDCHAR
STARTCHAR U+32A5
ENCODING 12965
SWIDTH 836 0
DWIDTH 12 0
BBX 11 11 0 -1
BITMAP
1F00
6EC0
6DC0
BFE0
ADA0
ADA0
BFA0
ADA0
4CC0
6CC0
1F00
ENDCHAR
STARTCHAR U+32A6
ENCODING 12966
SWIDTH 836 0
DWIDTH 12 0
BBX 11 11 0 -1
BITMAP
1F00
62C0
7FC0
8C20
8F20
8DA0
8DA0
8C20
4C40
60C0
1F00
ENDCHAR
STARTCHAR U+32A7
ENCODING 12967
SWIDTH 836 0
DWIDTH 12 0
BBX 11 11 0 -1
BITMAP
1F00
6EC0
4D40
BFA0
9920
9FA0
A620
C6A0
5FC0
60C0
1F00
ENDCHAR
STARTCHAR U+32A8
ENCODING 12968
SWIDTH 836 0
DWIDTH 12 0
BBX 11 11 0 -1
BITMAP
1F00
6EC0
4D40
BFA0
8C20
9FA0
9B20
EB20
4F40
6BC0
1F00
ENDCHAR
STARTCHAR U+32FF
ENCODING 13055
SWIDTH 836 0
DWIDTH 12 0
BBX 11 10 0 0
BITMAP
2200
7300
5EE0
EAA0
B7A0
0AA0
FFA0
37E0
EAA0
3200
ENDCHAR
STARTCHAR U+3303
ENCODING 13059
SWIDTH 836 0
DWIDTH 12 0
BBX 11 12 0 -2
BITMAP
FC00
0800
2A00
23E0
2000
4000
5400
1400
1480
1500
1600
2400
ENDCHAR
STARTCHAR U+330D
ENCODING 13069
SWIDTH 836 0
DWIDTH 12 0
BBX 11 12 0 -2
BITMAP
2000
F9E0
2920
4920
4920
99E0
0000
4800
4BE0
4800
1000
6000
ENDCHAR
STARTCHAR U+3314
ENCODING 13076
SWIDTH 836 0
DWIDTH 12 0
BBX 11 11 0 -1
BITMAP
2000
2000
3800
E000
2000
39E0
D120
1120
1120
01E0
0120
ENDCHAR
STARTCHAR U+3318
ENCODING 13080
SWIDTH 836 0
DWIDTH 12 0
BBX 11 12 0 -2
BITMAP
4AE0
7A00
51E0
9020
1020
2040
C580
0400
0900
0900
3E80
1080
ENDCHAR
STARTCHAR U+3322
ENCODING 13090
SWIDTH 836 0
DWIDTH 12 0
BBX 11 12 0 -2
BITMAP
4200
7900
C820
4040
7B80
0000
0300
1C00
0400
3F80
0400
1800
ENDCHAR
STARTCHAR U+3323
ENCODING 13091
SWIDTH 836 0
DWIDTH 12 0
BBX 11 12 0 -2
BITMAP
4200
7900
C820
4040
7B80
0000
0800
0800
0E00
0980
0800
0800
ENDCHAR
STARTCHAR U+3326
ENCODING 13094
SWIDTH 836 0
DWIDTH 12 0
BBX 10 12 1 -2
BITMAP
9400
9400
8000
E000
9000
8200
8A00
8A00
0A40
0A80
1300
1200
ENDCHAR
STARTCHAR U+3327
ENCODING 13095
SWIDTH 836 0
DWIDTH 12 0
BBX 9 10 2 0
BITMAP
8000
8000
C000
A000
9400
8200
8000
8080
0100
0E00
ENDCHAR
STARTCHAR U+332B
ENCODING 13099
SWIDTH 836 0
DWIDTH 12 0
BBX 11 11 0 -1
BITMAP
5400
4A00
4C00
4BE0
8800
0000
4880
7480
D0C0
42A0
6C80
ENDCHAR
STARTCHAR U+3336
ENCODING 13110
SWIDTH 836 0
DWIDTH 12 0
BBX 11 12 0 -2
BITMAP
2100
51E0
8A20
0840
0580
0000
4040
6140
AD40
6140
4160
8240
ENDCHAR
STARTCHAR U+333B
ENCODING 13115
SWIDTH 836 0
DWIDTH 12 0
BBX 10 12 1 -2
BITMAP
2800
5400
5800
93C0
0800
0800
0000
3280
0280
6000
0400
7800
ENDCHAR
STARTCHAR U+3349
ENCODING 13129
SWIDTH 836 0
DWIDTH 12 0
BBX 11 12 0 -2
BITMAP
6000
1000
0800
6120
1120
0920
C120
3120
0820
0040
0040
0180
ENDCHAR
STARTCHAR U+334A
ENCODING 13130
SWIDTH 836 0
DWIDTH 12 0
BBX 11 12 0 -2
BITMAP
1940
2140
1940
6040
1880
0000
1540
5540
2140
AD40
A160
A240
ENDCHAR
STARTCHAR U+334D
ENCODING 13133
SWIDTH 836 0
DWIDTH 12 0
BBX 11 12 0 -2
BITMAP
1000
5000
2200
51E0
8000
0280
4280
4280
72A0
4AC0
4480
4800
ENDCHAR
STARTCHAR U+3351
ENCODING 13137
SWIDTH 836 0
DWIDTH 12 0
BBX 10 12 1 -2
BITMAP
9000
9000
9540
9540
2040
2080
4100
4500
6500
5540
4580
4900
ENDCHAR
STARTCHAR U+3357
ENCODING 13143
SWIDTH 836 0
DWIDTH 12 0
BBX 10 12 1 -2
BITMAP
F000
9000
9540
2540
2040
4080
1100
1000
1C00
1200
1000
1000
ENDCHAR
STARTCHAR U+337B
ENCODING 13179
SWIDTH 836 0
DWIDTH 12 0
BBX 11 10 0 0
BITMAP
19C0
FDA0
33E0
BB80
FAE0
33C0
FF60
3540
34E0
35A0
ENDCHAR
STARTCHAR U+337C
ENCODING 13180
SWIDTH 836 0
DWIDTH 12 0
BBX 11 10 0 0
BITMAP
0500
3D80
1700
F560
AFE0
E160
BFE0
EF60
AD60
3D00
ENDCHAR
STARTCHAR U+337D
ENCODING 13181
SWIDTH 836 0
DWIDTH 12 0
BBX 11 10 0 0
BITMAP
7020
67E0
68C0
FBC0
62C0
62E0
72C0
52C0
5AC0
97E0
ENDCHAR
STARTCHAR U+337E
ENCODING 13182
SWIDTH 836 0
DWIDTH 12 0
BBX 11 10 0 0
BITMAP
2E40
BFC0
EDA0
BEE0
EFA0
BD00
EFE0
AF60
5FE0
9560
ENDCHAR
STARTCHAR U+337F
ENCODING 13183
SWIDTH 836 0
DWIDTH 12 0
BBX 12 12 0 -2
BITMAP
68D0
FDF0
68C0
FFE0
DCB0
6BD0
3120
4BA0
B5F0
FF20
69A0
F570
ENDCHAR
STARTCHAR U+338E
ENCODING 13198
SWIDTH 836 0
DWIDTH 12 0
BBX 10 8 1 -1
BITMAP
D140
AA80
AA80
A900
AA00
A980
AA40
0180
ENDCHAR
STARTCHAR U+338F
ENCODING 13199
SWIDTH 836 0
DWIDTH 12 0
BBX 10 11 1 -1
BITMAP
E000
4000
4000
5940
5280
6280
4100
6200
5180
DA40
0180
ENDCHAR
STARTCHAR U+339C
ENCODING 13212
SWIDTH 836 0
DWIDTH 12 0
BBX 11 7 0 0
BITMAP
D340
AAA0
AAA0
AAA0
AAA0
AAA0
AAA0
ENDCHAR
STARTCHAR U+339D
ENCODING 13213
SWIDTH 836 0
DWIDTH 12 0
BBX 10 7 1 0
BITMAP
5680
B540
9540
8540
8540
9540
7540
ENDCHAR
STARTCHAR U+339E
ENCODING 13214
SWIDTH 836 0
DWIDTH 12 0
BBX 11 10 0 0
BITMAP
E000
4000
4000
5B40
52A0
62A0
42A0
62A0
52A0
DAA0
ENDCHAR
STARTCHAR U+33A1
ENCODING 13217
SWIDTH 836 0
DWIDTH 12 0
BBX 10 10 1 0
BITMAP
0180
0240
0080
AD00
D3C0
9200
9200
9200
9200
9200
ENDCHAR
STARTCHAR U+33C4
ENCODING 13252
SWIDTH 836 0
DWIDTH 12 0
BBX 9 7 1 0
BITMAP
5280
B580
9480
8400
8400
9480
7380
ENDCHAR
STARTCHAR U+33CD
ENCODING 13261
SWIDTH 836 0
DWIDTH 12 0
BBX 11 10 0 0
BITMAP
EF60
4A40
5280
5280
6300
6300
5280
5280
4A40
EF60
ENDCHAR
STARTCHAR U+3403
ENCODING 13315
SWIDTH 836 0
DWIDTH 12 0
BBX 12 12 0 -2
BITMAP
0600
0F00
1980
30C0
6060
FFF0
0600
0600
0600
0600
0600
0600
ENDCHAR
STARTCHAR U+3691
ENCODING 13969
SWIDTH 836 0
DWIDTH 12 0
BBX 12 12 0 -2
BITMAP
00C0
3FE0
00C0
FFF0
00C0
3FC0
0620
FFF0
0D00
18F0
3060
C020
ENDCHAR
STARTCHAR U+3692
ENCODING 13970
SWIDTH 836 0
DWIDTH 12 0
BBX 12 12 0 -2
BITMAP
0700
0660
FFF0
2640
F7E0
66C0
5EB0
9D20
0D80
18F0
3060
C020
ENDCHAR
STARTCHAR U+37A2
ENCODING 14242
SWIDTH 836 0
DWIDTH 12 0
BBX 12 11 0 -1
BITMAP
0700
7670
6660
6660
6660
6660
7FE0
6660
0600
0660
FFF0
ENDCHAR
STARTCHAR uni3918
ENCODING 14616
SWIDTH 836 0
DWIDTH 12 0
BBX 12 12 0 -2
BITMAP
3B40
33E0
76C0
79A0
FFF0
B060
3060
37E0
3060
3060
3FE0
3060
ENDCHAR
STARTCHAR uni396E
ENCODING 14702
SWIDTH 836 0
DWIDTH 12 0
BBX 12 12 0 -2
BITMAP
3B20
33F0
76A0
7BE0
F160
B6C0
33F0
36A0
33E0
3160
32C0
3480
ENDCHAR
STARTCHAR U+39D0
ENCODING 14800
SWIDTH 836 0
DWIDTH 12 0
BBX 12 12 0 -2
BITMAP
7260
6FF0
F360
6B60
6560
76C0
E7C0
EDC0
6960
7370
E620
D820
ENDCHAR
STARTCHAR uni39DF
ENCODING 14815
SWIDTH 836 0
DWIDTH 12 0
BBX 12 12 0 -2
BITMAP
7920
65F0
F780
6980
6F80
7380
E580
ED80
6980
7DA0
EDF0
CD80
ENDCHAR
STARTCHAR U+3BA3
ENCODING 15267
SWIDTH 836 0
DWIDTH 12 0
BBX 12 12 0 -2
BITMAP
4860
7FF0
68C0
7AC0
6BF0
7D80
69D0
F6F0
FFF0
1F00
36F0
C660
ENDCHAR
STARTCHAR U+4264
ENCODING 16996
SWIDTH 836 0
DWIDTH 12 0
BBX 12 12 0 -2
BITMAP
3B80
3360
7FF0
B580
7B60
FFF0
7AC0
B6C0
FF80
5970
3260
CC20
ENDCHAR
STARTCHAR U+42AA
ENCODING 17066
SWIDTH 836 0
DWIDTH 12 0
BBX 12 12 0 -2
BITMAP
3AC0
B7F0
FAC0
37E0
FD60
37E0
7D60
7FE0
B120
37F0
35E0
3760
ENDCHAR
STARTCHAR U+4337
ENCODING 17207
SWIDTH 836 0
DWIDTH 12 0
BBX 12 12 0 -2
BITMAP
71C0
6180
55A0
FFF0
B5A0
65A0
FFE0
C5A0
3DA0
F5A0
C7E0
0420
ENDCHAR
STARTCHAR U+43D3
ENCODING 17363
SWIDTH 836 0
DWIDTH 12 0
BBX 12 12 0 -2
BITMAP
48C0
7FE0
5800
7860
7FF0
5AC0
7AC0
7AC0
5AD0
5AD0
7EF0
B470
ENDCHAR
STARTCHAR uni43DD
ENCODING 17373
SWIDTH 836 0
DWIDTH 12 0
BBX 12 12 0 -2
BITMAP
49C0
7980
5FE0
59A0
7FF0
5B00
5FE0
78C0
5D80
5B00
7980
B180
ENDCHAR
STARTCHAR U+4491
ENCODING 17553
SWIDTH 836 0
DWIDTH 12 0
BBX 12 5 0 3
BITMAP
2080
18C0
1980
0160
FFF0
ENDCHAR
STARTCHAR U+4723
ENCODING 18211
SWIDTH 836 0
DWIDTH 12 0
BBX 12 12 0 -2
BITMAP
60C0
35E0
3700
0660
37F0
FEC0
36C0
36C0
36C0
3CC0
74C0
28C0
ENDCHAR
STARTCHAR U+4729
ENCODING 18217
SWIDTH 836 0
DWIDTH 12 0
BBX 12 12 0 -2
BITMAP
66C0
3FF0
36C0
07C0
3460
FFF0
36E0
3FF0
36B0
3D40
77E0
2AB0
ENDCHAR
STARTCHAR U+4951
ENCODING 18769
SWIDTH 836 0
DWIDTH 12 0
BBX 12 12 0 -2
BITMAP
21C0
31A0
5FF0
FDA0
37B0
FBD0
B5B0
FBE0
72C0
3DE0
F360
CC00
ENDCHAR
STARTCHAR uni497D
ENCODING 18813
SWIDTH 836 0
DWIDTH 12 0
BBX 12 12 0 -2
BITMAP
39C0
35A0
7DB0
67F0
FB20
B3F0
FB60
36C0
3580
3970
7260
2420
ENDCHAR
STARTCHAR U+4CA1
ENCODING 19617
SWIDTH 836 0
DWIDTH 12 0
BBX 12 12 0 -2
BITMAP
5660
72C0
AFF0
FA80
AFF0
FAE0
AAE0
FC60
8FE0
3860
EFE0
C860
ENDCHAR
STARTCHAR U+4D09
ENCODING 19721
SWIDTH 836 0
DWIDTH 12 0
BBX 12 12 0 -2
BITMAP
84C0
FFE0
D5A0
FDE0
05A0
FFF0
6980
7DF0
F6B0
6B70
FEF0
CC60
ENDCHAR
STARTCHAR U+4E00
ENCODING 19968
SWIDTH 836 0
DWIDTH 12 0
BBX 12 3 0 4
BITMAP
0040
00E0
FFF0
ENDCHAR
STARTCHAR U+4E01
ENCODING 19969
SWIDTH 836 0
DWIDTH 12 0
BBX 12 12 0 -2
BITMAP
0060
FFF0
0600
0600
0600
0600
0600
0600
0600
0600
1E00
0C00
ENDCHAR
STARTCHAR U+4E02
ENCODING 19970
SWIDTH 836 0
DWIDTH 12 0
BBX 12 12 0 -2
BITMAP
0060
FFF0
1800
18C0
3FE0
30C0
00C0
00C0
0180
0180
1F80
0600
ENDCHAR
STARTCHAR U+4E03
ENCODING 19971
SWIDTH 836 0
DWIDTH 12 0
BBX 12 12 0 -2
BITMAP
1C00
1800
1800
1820
19F0
1F00
F800
1800
1840
1840
1FE0
0FE0
ENDCHAR
STARTCHAR U+4E04
ENCODING 19972
SWIDTH 836 0
DWIDTH 12 0
BBX 12 12 0 -2
BITMAP
0700
0600
0600
0600
0600
0600
0600
0600
0600
0600
0660
FFF0
ENDCHAR
STARTCHAR U+4E05
ENCODING 19973
SWIDTH 836 0
DWIDTH 12 0
BBX 12 12 0 -2
BITMAP
0060
FFF0
0600
0600
0600
0600
0600
0600
0600
0600
0600
0600
ENDCHAR
STARTCHAR U+4E06
ENCODING 19974
SWIDTH 836 0
DWIDTH 12 0
BBX 12 12 0 -2
BITMAP
0060
FFF0
0C00
0C00
0C00
0C00
0C00
0C00
1800
1800
3000
C000
ENDCHAR
STARTCHAR U+4E07
ENCODING 19975
SWIDTH 836 0
DWIDTH 12 0
BBX 12 12 0 -2
BITMAP
0060
FFF0
1800
18C0
1FE0
18C0
18C0
18C0
10C0
3180
2780
C300
ENDCHAR
STARTCHAR U+4E08
ENCODING 19976
SWIDTH 836 0
DWIDTH 12 0
BBX 12 12 0 -2
BITMAP
0700
0600
0660
FFF0
0600
1600
1600
0E00
0600
0DF0
38E0
C020
ENDCHAR
STARTCHAR U+4E09
ENCODING 19977
SWIDTH 836 0
DWIDTH 12 0
BBX 12 11 0 -1
BITMAP
00C0
7FE0
0000
0000
0180
3FC0
0000
0000
0000
0060
FFF0
ENDCHAR
STARTCHAR U+4E0A
ENCODING 19978
SWIDTH 836 0
DWIDTH 12 0
BBX 12 11 0 -1
BITMAP
0700
0600
0600
0640
07E0
0600
0600
0600
0600
0660
FFF0
ENDCHAR
STARTCHAR U+4E0B
ENCODING 19979
SWIDTH 836 0
DWIDTH 12 0
BBX 12 12 0 -2
BITMAP
0060
FFF0
0600
0600
07C0
0660
0660
0600
0600
0600
0600
0600
ENDCHAR
STARTCHAR U+4E0C
ENCODING 19980
SWIDTH 836 0
DWIDTH 12 0
BBX 12 12 0 -2
BITMAP
0060
FFF0
1980
1980
1980
1980
1980
1980
3180
3180
2180
C180
ENDCHAR
STARTCHAR U+4E0D
ENCODING 19981
SWIDTH 836 0
DWIDTH 12 0
BBX 12 12 0 -2
BITMAP
0060
FFF0
0300
0600
0F80
1E60
3630
C630
0600
0600
0600
0600
ENDCHAR
STARTCHAR U+4E0E
ENCODING 19982
SWIDTH 836 0
DWIDTH 12 0
BBX 12 12 0 -2
BITMAP
1C00
18C0
1FE0
1820
3FF0
3060
0360
FFE0
00C0
01C0
0F80
0300
ENDCHAR
STARTCHAR U+4E0F
ENCODING 19983
SWIDTH 836 0
DWIDTH 12 0
BBX 12 12 0 -2
BITMAP
0060
FFF0
0640
37E0
36C0
36C0
7FC0
60C0
00C0
0180
0780
0300
ENDCHAR
STARTCHAR U+4E10
ENCODING 19984
SWIDTH 836 0
DWIDTH 12 0
BBX 12 12 0 -2
BITMAP
0060
FFF0
0600
37C0
3600
36C0
7FE0
60C0
00C0
0180
0780
0300
ENDCHAR
STARTCHAR U+4E11
ENCODING 19985
SWIDTH 836 0
DWIDTH 12 0
BBX 12 11 0 -1
BITMAP
0180
7FC0
0D80
0D80
0D80
7F80
1980
1980
1980
19A0
FFF0
ENDCHAR
STARTCHAR U+4E12
ENCODING 19986
SWIDTH 836 0
DWIDTH 12 0
BBX 12 11 0 -1
BITMAP
0060
FFF0
0C60
3C60
0F60
0D60
18E0
33C0
C180
0020
FFF0
ENDCHAR
STARTCHAR U+4E13
ENCODING 19987
SWIDTH 836 0
DWIDTH 12 0
BBX 12 12 0 -2
BITMAP
0E00
0CC0
7FE0
0C20
FFF0
18C0
3FE0
3180
0300
1E00
0780
0380
ENDCHAR
STARTCHAR U+4E14
ENCODING 19988
SWIDTH 836 0
DWIDTH 12 0
BBX 12 11 0 -1
BITMAP
1180
1FC0
1980
1980
1F80
1980
1980
1F80
1980
19A0
FFF0
ENDCHAR
STARTCHAR U+4E15
ENCODING 19989
SWIDTH 836 0
DWIDTH 12 0
BBX 12 11 0 -1
BITMAP
0060
FFF0
0600
0F00
1EE0
2670
C630
0600
0600
0060
FFF0
ENDCHAR
STARTCHAR U+4E16
ENCODING 19990
SWIDTH 836 0
DWIDTH 12 0
BBX 12 12 0 -2
BITMAP
3FE0
36C0
36C0
36C0
FFF0
36C0
36C0
37C0
36C0
3060
3FF0
3000
ENDCHAR
STARTCHAR U+4E17
ENCODING 19991
SWIDTH 836 0
DWIDTH 12 0
BBX 12 12 0 -2
BITMAP
3FE0
36C0
36C0
36E0
FFF0
36C0
36C0
36C0
36C0
36C0
3FC0
30C0
ENDCHAR
STARTCHAR U+4E18
ENCODING 19992
SWIDTH 836 0
DWIDTH 12 0
BBX 12 11 0 -1
BITMAP
0180
13C0
1E00
1800
18C0
1FE0
1980
1980
1980
19A0
FFF0
ENDCHAR
STARTCHAR U+4E19
ENCODING 19993
SWIDTH 836 0
DWIDTH 12 0
BBX 12 12 0 -2
BITMAP
0060
FFF0
0600
26C0
3FE0
36C0
37C0
35C0
38C0
30C0
33C0
3180
ENDCHAR
STARTCHAR U+4E1A
ENCODING 19994
SWIDTH 836 0
DWIDTH 12 0
BBX 12 11 0 -1
BITMAP
0FC0
0D80
0DA0
4DB0
2DB0
3DA0
3DC0
2DC0
0D80
0DA0
FFF0
ENDCHAR
STARTCHAR U+4E1B
ENCODING 19995
SWIDTH 836 0
DWIDTH 12 0
BBX 12 11 0 -1
BITMAP
3B80
3300
3300
3300
3300
3B00
2E80
6EF0
4460
8860
FFF0
ENDCHAR
STARTCHAR U+4E1C
ENCODING 19996
SWIDTH 836 0
DWIDTH 12 0
BBX 12 12 0 -2
BITMAP
0E00
0C60
FFF0
1800
3700
36C0
7FE0
2700
3680
66C0
5E60
8C60
ENDCHAR
STARTCHAR U+4E1D
ENCODING 19997
SWIDTH 836 0
DWIDTH 12 0
BBX 12 11 0 -1
BITMAP
38E0
30C0
6DB0
DB60
FBE0
30C0
6180
FBF0
C300
0060
FFF0
ENDCHAR
STARTCHAR U+4E1E
ENCODING 19998
SWIDTH 836 0
DWIDTH 12 0
BBX 12 11 0 -1
BITMAP
0180
3FC0
0300
16C0
FFC0
3700
66F0
4660
9E20
0CC0
7FE0
ENDCHAR
STARTCHAR U+4E1F
ENCODING 19999
SWIDTH 836 0
DWIDTH 12 0
BBX 12 12 0 -2
BITMAP
00C0
7FE0
0680
3FC0
0600
0640
FFF0
0C00
1880
17C0
7C60
3060
ENDCHAR
STARTCHAR U+4E20
ENCODING 20000
SWIDTH 836 0
DWIDTH 12 0
BBX 12 11 0 -1
BITMAP
1F80
1B60
FB60
1BC0
3B20
FB20
DBF0
19F0
1800
0060
FFF0
ENDCHAR
STARTCHAR U+4E21
ENCODING 20001
SWIDTH 836 0
DWIDTH 12 0
BBX 12 12 0 -2
BITMAP
0060
FFF0
0600
4660
7FF0
6660
76E0
76E0
7FE0
6060
61E0
60C0
ENDCHAR
STARTCHAR U+4E22
ENCODING 20002
SWIDTH 836 0
DWIDTH 12 0
BBX 12 12 0 -2
BITMAP
0180
07C0
3E00
0680
3FC0
0660
FFF0
0C00
1880
17C0
7C60
3060
ENDCHAR
STARTCHAR U+4E23
ENCODING 20003
SWIDTH 836 0
DWIDTH 12 0
BBX 12 12 0 -2
BITMAP
0060
FFF0
1B00
9B60
FBF0
DB60
DB60
FBE0
DB60
1B00
3300
C300
ENDCHAR
STARTCHAR U+4E24
ENCODING 20004
SWIDTH 836 0
DWIDTH 12 0
BBX 12 12 0 -2
BITMAP
0060
FFF0
1B00
9B60
FFF0
DB60
DFE0
D6E0
E460
C060
C1E0
C0C0
ENDCHAR
STARTCHAR U+4E25
ENCODING 20005
SWIDTH 836 0
DWIDTH 12 0
BBX 12 12 0 -2
BITMAP
0060
FFF0
4DA0
3DB0
6DC0
7FF0
6000
6000
6000
6000
4000
8000
ENDCHAR
STARTCHAR U+4E26
ENCODING 20006
SWIDTH 836 0
DWIDTH 12 0
BBX 12 11 0 -1
BITMAP
2180
1980
1A40
7FE0
9B00
5B60
5B60
7B40
5B80
1B60
FFF0
ENDCHAR
STARTCHAR U+4E27
ENCODING 20007
SWIDTH 836 0
DWIDTH 12 0
BBX 12 12 0 -2
BITMAP
0700
06C0
7FE0
2640
36C0
1680
FFF0
34C0
3280
3380
FCF0
6060
ENDCHAR
STARTCHAR U+4E28
ENCODING 20008
SWIDTH 836 0
DWIDTH 12 0
BBX 3 12 5 -2
BITMAP
E0
C0
C0
C0
C0
C0
C0
C0
C0
C0
C0
C0
ENDCHAR
STARTCHAR U+4E29
ENCODING 20009
SWIDTH 836 0
DWIDTH 12 0
BBX 10 12 1 -2
BITMAP
01C0
3980
3180
3180
3180
3180
3180
3F80
F980
6180
0180
0180
ENDCHAR
STARTCHAR U+4E2A
ENCODING 20010
SWIDTH 836 0
DWIDTH 12 0
BBX 12 12 0 -2
BITMAP
0600
0600
0D00
1980
36F0
C660
0600
0600
0600
0600
0600
0600
ENDCHAR
STARTCHAR U+4E2B
ENCODING 20011
SWIDTH 836 0
DWIDTH 12 0
BBX 10 12 1 -2
BITMAP
81C0
6180
3300
3600
0C00
0C00
0C00
0C00
0C00
0C00
0C00
0C00
ENDCHAR
STARTCHAR U+4E2C
ENCODING 20012
SWIDTH 836 0
DWIDTH 12 0
BBX 8 12 2 -2
BITMAP
07
46
26
36
36
06
0E
36
E6
46
06
06
ENDCHAR
STARTCHAR U+4E2D
ENCODING 20013
SWIDTH 836 0
DWIDTH 12 0
BBX 11 12 1 -2
BITMAP
0E00
0C00
8CC0
FFE0
CCC0
CCC0
CCC0
FFC0
CCC0
0C00
0C00
0C00
ENDCHAR
STARTCHAR U+4E2E
ENCODING 20014
SWIDTH 836 0
DWIDTH 12 0
BBX 12 12 0 -2
BITMAP
00C0
FFE0
18C0
18C0
7EC0
18C0
18C0
FFC0
18D0
1860
1870
1830
ENDCHAR
STARTCHAR U+4E2F
ENCODING 20015
SWIDTH 836 0
DWIDTH 12 0
BBX 12 12 0 -2
BITMAP
0740
06E0
7FC0
0640
06E0
3FC0
0660
06F0
FFC0
0600
0600
0600
ENDCHAR
STARTCHAR U+4E30
ENCODING 20016
SWIDTH 836 0
DWIDTH 12 0
BBX 12 12 0 -2
BITMAP
0700
06C0
7FE0
0600
06C0
3FE0
0600
0660
FFF0
0600
0600
0600
ENDCHAR
STARTCHAR U+4E31
ENCODING 20017
SWIDTH 836 0
DWIDTH 12 0
BBX 12 12 0 -2
BITMAP
1F80
1B00
FB70
DB60
DB60
DB60
DB60
FBE0
DB60
3300
2300
C300
ENDCHAR
STARTCHAR U+4E32
ENCODING 20018
SWIDTH 836 0
DWIDTH 12 0
BBX 11 12 1 -2
BITMAP
0E00
4D80
7FC0
6D80
7F80
8CC0
FFE0
CCC0
FFC0
CCC0
0C00
0C00
ENDCHAR
STARTCHAR U+4E33
ENCODING 20019
SWIDTH 836 0
DWIDTH 12 0
BBX 12 12 0 -2
BITMAP
1B80
5B40
7FE0
5B40
7FC0
9B60
FFF0
DB60
FFE0
DB60
3300
C300
ENDCHAR
STARTCHAR U+4E34
ENCODING 20020
SWIDTH 836 0
DWIDTH 12 0
BBX 12 12 0 -2
BITMAP
3B80
F360
B7F0
B600
BD80
B8E0
B460
B7F0
B560
B560
B7E0
3460
ENDCHAR
STARTCHAR U+4E35
ENCODING 20021
SWIDTH 836 0
DWIDTH 12 0
BBX 12 12 0 -2
BITMAP
1F80
5B40
3BA0
FFF0
1180
1900
3FC0
0620
FFF0
0600
0600
0600
ENDCHAR
STARTCHAR U+4E36
ENCODING 20022
SWIDTH 836 0
DWIDTH 12 0
BBX 6 7 3 1
BITMAP
80
40
20
30
18
0C
0C
ENDCHAR
STARTCHAR U+4E37
ENCODING 20023
SWIDTH 836 0
DWIDTH 12 0
BBX 12 8 0 1
BITMAP
0040
8070
40E0
60C0
3180
3100
0200
0400
ENDCHAR
STARTCHAR U+4E38
ENCODING 20024
SWIDTH 836 0
DWIDTH 12 0
BBX 12 12 0 -2
BITMAP
1C00
1800
1980
FFC0
1980
D980
3980
1D80
15A0
37A0
21F0
C0F0
ENDCHAR
STARTCHAR U+4E39
ENCODING 20025
SWIDTH 836 0
DWIDTH 12 0
BBX 12 12 0 -2
BITMAP
20C0
3FE0
34C0
36C0
32C0
FFF0
30C0
30C0
30C0
30C0
23C0
C180
ENDCHAR
STARTCHAR U+4E3A
ENCODING 20026
SWIDTH 836 0
DWIDTH 12 0
BBX 12 12 0 -2
BITMAP
4700
3600
3660
FFF0
0660
0F60
0DE0
09E0
1960
10C0
23C0
C180
ENDCHAR
STARTCHAR U+4E3B
ENCODING 20027
SWIDTH 836 0
DWIDTH 12 0
BBX 12 11 0 -1
BITMAP
0800
0700
06C0
7FE0
0600
0680
3FC0
0600
0600
0660
FFF0
ENDCHAR
STARTCHAR U+4E3C
ENCODING 20028
SWIDTH 836 0
DWIDTH 12 0
BBX 12 12 0 -2
BITMAP
1DC0
1980
19A0
7FE0
1D80
1F80
19A0
FFF0
1980
3180
2180
C180
ENDCHAR
STARTCHAR U+4E3D
ENCODING 20029
SWIDTH 836 0
DWIDTH 12 0
BBX 12 12 0 -2
BITMAP
0060
FFF0
0000
9A60
FFF0
DB60
FBE0
FBE0
DB60
DB60
FBE0
D340
ENDCHAR
STARTCHAR U+4E3E
ENCODING 20030
SWIDTH 836 0
DWIDTH 12 0
BBX 12 12 0 -2
BITMAP
36C0
12A0
FFF0
1980
36F0
6660
9FA0
0640
7FE0
0600
0600
0600
ENDCHAR
STARTCHAR U+4E3F
ENCODING 20031
SWIDTH 836 0
DWIDTH 12 0
BBX 7 12 1 -2
BITMAP
0E
0C
0C
0C
0C
0C
0C
0C
08
18
30
C0
ENDCHAR
STARTCHAR U+4E40
ENCODING 20032
SWIDTH 836 0
DWIDTH 12 0
BBX 12 12 0 -2
BITMAP
1000
3800
F000
D000
5000
0800
0800
0400
0300
01F0
00E0
0020
ENDCHAR
STARTCHAR U+4E41
ENCODING 20033
SWIDTH 836 0
DWIDTH 12 0
BBX 12 12 0 -2
BITMAP
0600
FF00
0200
0200
0200
0300
0300
0180
01C0
00F0
0060
0020
ENDCHAR
STARTCHAR U+4E42
ENCODING 20034
SWIDTH 836 0
DWIDTH 12 0
BBX 12 12 0 -2
BITMAP
21C0
2180
2180
1300
1300
0A00
0E00
0400
0B00
11F0
20E0
C020
ENDCHAR
STARTCHAR U+4E43
ENCODING 20035
SWIDTH 836 0
DWIDTH 12 0
BBX 12 12 0 -2
BITMAP
0180
7FC0
1980
1980
1B60
1BF0
1B60
1860
1060
30C0
23C0
C180
ENDCHAR
STARTCHAR U+4E44
ENCODING 20036
SWIDTH 836 0
DWIDTH 12 0
BBX 10 12 1 -2
BITMAP
01C0
0180
1180
0B00
0F00
0600
0700
0D80
4D80
5800
F000
E000
ENDCHAR
STARTCHAR U+4E45
ENCODING 20037
SWIDTH 836 0
DWIDTH 12 0
BBX 12 12 0 -2
BITMAP
0E00
0D80
0FC0
1980
1180
2300
4300
0680
0CC0
1870
3060
C020
ENDCHAR
STARTCHAR U+4E46
ENCODING 20038
SWIDTH 836 0
DWIDTH 12 0
BBX 12 12 0 -2
BITMAP
01C0
3980
3180
3300
6300
7E00
6600
0500
0980
10F0
2060
C020
ENDCHAR
STARTCHAR U+4E47
ENCODING 20039
SWIDTH 836 0
DWIDTH 12 0
BBX 12 12 0 -2
BITMAP
00C0
07E0
7F00
0600
0660
07F0
FE00
0600
0620
0620
07F0
03F0
ENDCHAR
STARTCHAR U+4E48
ENCODING 20040
SWIDTH 836 0
DWIDTH 12 0
BBX 12 12 0 -2
BITMAP
0600
0600
0D80
0D80
1B00
3200
6600
8480
0840
13E0
7E30
3830
ENDCHAR
STARTCHAR U+4E49
ENCODING 20041
SWIDTH 836 0
DWIDTH 12 0
BBX 12 12 0 -2
BITMAP
0880
2CC0
26C0
3580
1180
1B00
0E00
0600
0F00
19F0
30E0
C020
ENDCHAR
STARTCHAR U+4E4A
ENCODING 20042
SWIDTH 836 0
DWIDTH 12 0
BBX 10 9 1 1
BITMAP
0180
0FC0
FC00
0080
80C0
60C0
3180
3100
0200
ENDCHAR
STARTCHAR U+4E4B
ENCODING 20043
SWIDTH 836 0
DWIDTH 12 0
BBX 12 12 0 -2
BITMAP
0800
0600
04C0
7FE0
0180
0100
0200
0400
0800
7000
DFF0
4FF0
ENDCHAR
STARTCHAR U+4E4C
ENCODING 20044
SWIDTH 836 0
DWIDTH 12 0
BBX 12 12 0 -2
BITMAP
0E00
2D80
3FC0
3180
3380
3060
3FF0
0260
FF60
00E0
07C0
0180
ENDCHAR
STARTCHAR U+4E4D
ENCODING 20045
SWIDTH 836 0
DWIDTH 12 0
BBX 12 12 0 -2
BITMAP
1C00
1860
3FF0
2600
4680
87C0
0600
06C0
07E0
0600
0600
0600
ENDCHAR
STARTCHAR U+4E4E
ENCODING 20046
SWIDTH 836 0
DWIDTH 12 0
BBX 12 12 0 -2
BITMAP
0180
0FC0
7EC0
3680
1760
FFF0
0600
0600
0600
0600
1E00
0C00
ENDCHAR
STARTCHAR U+4E4F
ENCODING 20047
SWIDTH 836 0
DWIDTH 12 0
BBX 12 12 0 -2
BITMAP
0180
07C0
7C00
0680
FFC0
0180
0300
0200
0400
6800
DFF0
4FF0
ENDCHAR
STARTCHAR U+4E50
ENCODING 20048
SWIDTH 836 0
DWIDTH 12 0
BBX 12 12 0 -2
BITMAP
0180
27C0
3C00
3700
3600
66C0
7FE0
2700
36C0
6660
5E30
8C30
ENDCHAR
STARTCHAR U+4E51
ENCODING 20049
SWIDTH 836 0
DWIDTH 12 0
BBX 12 12 0 -2
BITMAP
00C0
03E0
7F00
0600
1760
1F40
3680
CEC0
1EF0
3660
C620
0600
ENDCHAR
STARTCHAR U+4E52
ENCODING 20050
SWIDTH 836 0
DWIDTH 12 0
BBX 12 12 0 -2
BITMAP
0180
13C0
1E00
18C0
1FE0
1980
19A0
FFF0
0400
0E00
1800
6000
ENDCHAR
STARTCHAR U+4E53
ENCODING 20051
SWIDTH 836 0
DWIDTH 12 0
BBX 12 12 0 -2
BITMAP
0180
13C0
1E00
18C0
1FE0
1980
19A0
FFF0
0600
0180
00E0
0060
ENDCHAR
STARTCHAR U+4E54
ENCODING 20052
SWIDTH 836 0
DWIDTH 12 0
BBX 12 12 0 -2
BITMAP
01C0
3F80
0660
FFF0
0D00
1980
3DF0
D9A0
19A0
1980
1180
2180
ENDCHAR
STARTCHAR U+4E55
ENCODING 20053
SWIDTH 836 0
DWIDTH 12 0
BBX 12 12 0 -2
BITMAP
20E0
3FC0
3320
3FF0
3320
3FF0
3300
3FE0
7B60
5B60
9BE0
0300
ENDCHAR
STARTCHAR U+4E56
ENCODING 20054
SWIDTH 836 0
DWIDTH 12 0
BBX 12 12 0 -2
BITMAP
01C0
7F80
0660
FFF0
0600
36D0
F6F0
36E0
36D0
F6F0
B670
0600
ENDCHAR
STARTCHAR U+4E57
ENCODING 20055
SWIDTH 836 0
DWIDTH 12 0
BBX 12 12 0 -2
BITMAP
0380
3F00
06C0
7FE0
36C0
FFF0
36C0
7FE0
1F00
36F0
2660
C620
ENDCHAR
STARTCHAR U+4E58
ENCODING 20056
SWIDTH 836 0
DWIDTH 12 0
BBX 12 12 0 -2
BITMAP
01C0
7F80
0660
FFF0
36D0
F6E0
36F0
FF70
9E80
36F0
2660
C620
ENDCHAR
STARTCHAR U+4E59
ENCODING 20057
SWIDTH 836 0
DWIDTH 12 0
BBX 12 12 0 -2
BITMAP
0180
FFC0
0300
0600
0C00
1800
3000
2020
6020
4030
7FF0
3FE0
ENDCHAR
STARTCHAR U+4E5A
ENCODING 20058
SWIDTH 836 0
DWIDTH 12 0
BBX 10 12 1 -2
BITMAP
E000
C000
C000
C000
C000
C000
C000
C080
C080
C0C0
FFC0
7F80
ENDCHAR
STARTCHAR U+4E5B
ENCODING 20059
SWIDTH 836 0
DWIDTH 12 0
BBX 12 5 0 5
BITMAP
0060
FFF0
00C0
0180
0200
ENDCHAR
STARTCHAR U+4E5C
ENCODING 20060
SWIDTH 836 0
DWIDTH 12 0
BBX 12 12 0 -2
BITMAP
3800
30C0
33E0
3EC0
30C0
F0C0
33C0
3180
3020
3020
3FF0
1FF0
ENDCHAR
STARTCHAR U+4E5D
ENCODING 20061
SWIDTH 836 0
DWIDTH 12 0
BBX 12 12 0 -2
BITMAP
1C00
1800
1980
FFC0
1980
1980
1980
1980
11A0
31A0
21F0
C0F0
ENDCHAR
STARTCHAR U+4E5E
ENCODING 20062
SWIDTH 836 0
DWIDTH 12 0
BBX 12 12 0 -2
BITMAP
1C00
1860
3FF0
3000
6300
BF80
0600
0C00
1820
3020
3FF0
1FF0
ENDCHAR
STARTCHAR U+4E5F
ENCODING 20063
SWIDTH 836 0
DWIDTH 12 0
BBX 12 12 0 -2
BITMAP
0700
3E00
36C0
37E0
3EC0
36C0
F7C0
36C0
3620
3020
3FF0
1FF0
ENDCHAR
STARTCHAR U+4E60
ENCODING 20064
SWIDTH 836 0
DWIDTH 12 0
BBX 11 12 0 -2
BITMAP
00C0
7FE0
00C0
30C0
18C0
18C0
00C0
0EC0
F8C0
6180
0780
0300
ENDCHAR
STARTCHAR U+4E61
ENCODING 20065
SWIDTH 836 0
DWIDTH 12 0
BBX 10 12 1 -2
BITMAP
0C00
0E00
1900
7F80
2600
1980
FFC0
6300
0600
0C00
3000
E000
ENDCHAR
STARTCHAR U+4E62
ENCODING 20066
SWIDTH 836 0
DWIDTH 12 0
BBX 12 12 0 -2
BITMAP
39C0
3180
B780
B580
B580
B580
B580
B580
FDA0
85A0
01F0
00F0
ENDCHAR
STARTCHAR U+4E63
ENCODING 20067
SWIDTH 836 0
DWIDTH 12 0
BBX 12 12 0 -2
BITMAP
19C0
1980
1580
2F80
7D80
6980
1980
1580
25A0
FFA0
73F0
40F0
ENDCHAR
STARTCHAR U+4E66
ENCODING 20070
SWIDTH 836 0
DWIDTH 12 0
BBX 12 12 0 -2
BITMAP
0E00
0D80
0CE0
7FE0
0CC0
0CC0
FFF0
0C60
0C60
0DE0
0CC0
0C00
ENDCHAR
STARTCHAR U+4E69
ENCODING 20073
SWIDTH 836 0
DWIDTH 12 0
BBX 12 12 0 -2
BITMAP
39C0
3180
3580
3F80
3180
B580
FD80
CD80
CDA0
FDA0
CDF0
00F0
ENDCHAR
STARTCHAR U+4E70
ENCODING 20080
SWIDTH 836 0
DWIDTH 12 0
BBX 12 12 0 -2
BITMAP
0060
FFF0
2260
1B40
5B00
2300
3660
FFF0
0600
0D80
18E0
E060
ENDCHAR
STARTCHAR U+4E71
ENCODING 20081
SWIDTH 836 0
DWIDTH 12 0
BBX 12 12 0 -2
BITMAP
0DC0
1F80
F980
1B80
FF80
1980
5980
7D80
6DA0
6DA0
7DF0
6CF0
ENDCHAR
STARTCHAR U+4E73
ENCODING 20083
SWIDTH 836 0
DWIDTH 12 0
BBX 12 12 0 -2
BITMAP
0DC0
FF80
A580
5D80
6980
FF80
0D80
1F80
F9A0
D9A0
39F0
30F0
ENDCHAR
STARTCHAR U+4E7E
ENCODING 20094
SWIDTH 836 0
DWIDTH 12 0
BBX 12 12 0 -2
BITMAP
3380
FF60
33F0
FA00
DCC0
FFE0
D980
FB00
3620
FE20
37F0
33F0
ENDCHAR
STARTCHAR U+4E80
ENCODING 20096
SWIDTH 836 0
DWIDTH 12 0
BBX 12 12 0 -2
BITMAP
0F00
1A80
3FC0
D680
1F80
36E0
3FC0
36C0
3FE0
3620
07F0
03F0
ENDCHAR
STARTCHAR U+4E82
ENCODING 20098
SWIDTH 836 0
DWIDTH 12 0
BBX 12 12 0 -2
BITMAP
0CE0
FEC0
54C0
FEC0
2CC0
FEC0
D6C0
FEC0
EED0
D6D0
EEF0
CE70
ENDCHAR
STARTCHAR U+4E85
ENCODING 20101
SWIDTH 836 0
DWIDTH 12 0
BBX 5 12 3 -2
BITMAP
38
30
30
30
30
30
30
30
30
30
F0
60
ENDCHAR
STARTCHAR U+4E86
ENCODING 20102
SWIDTH 836 0
DWIDTH 12 0
BBX 12 12 0 -2
BITMAP
0060
FFF0
00C0
0580
0600
0600
0600
0600
0600
0600
1E00
0C00
ENDCHAR
STARTCHAR U+4E87
ENCODING 20103
SWIDTH 836 0
DWIDTH 12 0
BBX 12 12 0 -2
BITMAP
1C00
1860
3FF0
6060
4740
8600
0600
0600
0600
0600
1E00
0C00
ENDCHAR
STARTCHAR U+4E88
ENCODING 20104
SWIDTH 836 0
DWIDTH 12 0
BBX 12 12 0 -2
BITMAP
0180
3FC0
0B00
0660
FFF0
0640
0680
0600
0600
0600
1E00
0C00
ENDCHAR
STARTCHAR U+4E89
ENCODING 20105
SWIDTH 836 0
DWIDTH 12 0
BBX 12 12 0 -2
BITMAP
1B00
1F00
32C0
3FE0
46D0
FFF0
06C0
3FC0
06C0
0600
1E00
0C00
ENDCHAR
STARTCHAR U+4E8A
ENCODING 20106
SWIDTH 836 0
DWIDTH 12 0
BBX 12 12 0 -2
BITMAP
0660
FFF0
16C0
1E80
3FE0
06C0
FFF0
06C0
3FC0
06C0
1E00
0C00
ENDCHAR
STARTCHAR U+4E8B
ENCODING 20107
SWIDTH 836 0
DWIDTH 12 0
BBX 12 12 0 -2
BITMAP
0660
FFF0
36C0
3FC0
06C0
7FE0
0660
FFF0
0660
7FE0
0660
0E00
ENDCHAR
STARTCHAR U+4E8C
ENCODING 20108
SWIDTH 836 0
DWIDTH 12 0
BBX 12 9 0 0
BITMAP
0180
3FC0
0000
0000
0000
0000
0000
0060
FFF0
ENDCHAR
STARTCHAR U+4E8D
ENCODING 20109
SWIDTH 836 0
DWIDTH 12 0
BBX 12 12 0 -2
BITMAP
00C0
7FE0
0000
0060
FFF0
0600
0600
0600
0600
0600
1E00
0C00
ENDCHAR
STARTCHAR U+4E8E
ENCODING 20110
SWIDTH 836 0
DWIDTH 12 0
BBX 12 12 0 -2
BITMAP
00C0
7FE0
0600
0600
0660
FFF0
0600
0600
0600
0600
1E00
0C00
ENDCHAR
STARTCHAR U+4E8F
ENCODING 20111
SWIDTH 836 0
DWIDTH 12 0
BBX 12 12 0 -2
BITMAP
00C0
7FE0
0000
0060
FFF0
0C00
1980
3FC0
3180
0380
1F00
0600
ENDCHAR
STARTCHAR U+4E90
ENCODING 20112
SWIDTH 836 0
DWIDTH 12 0
BBX 12 12 0 -2
BITMAP
00C0
7FE0
0C00
0C60
FFF0
1800
1980
3FC0
0180
0380
1F00
0600
ENDCHAR
STARTCHAR U+4E91
ENCODING 20113
SWIDTH 836 0
DWIDTH 12 0
BBX 12 12 0 -2
BITMAP
0180
3FC0
0000
0060
FFF0
0C00
0C00
1900
1080
37C0
FC60
6060
ENDCHAR
STARTCHAR U+4E92
ENCODING 20114
SWIDTH 836 0
DWIDTH 12 0
BBX 12 11 0 -1
BITMAP
00C0
7FE0
0C00
0D80
0FC0
1980
1980
1F80
1B00
0360
FFF0
ENDCHAR
STARTCHAR U+4E93
ENCODING 20115
SWIDTH 836 0
DWIDTH 12 0
BBX 12 12 0 -2
BITMAP
0180
3FC0
0000
0060
FFF0
1980
1980
1980
1180
3180
2180
C180
ENDCHAR
STARTCHAR U+4E94
ENCODING 20116
SWIDTH 836 0
DWIDTH 12 0
BBX 12 11 0 -1
BITMAP
00C0
7FE0
0C00
0C00
1980
7FC0
1980
1980
3180
31A0
FFF0
ENDCHAR
STARTCHAR U+4E95
ENCODING 20117
SWIDTH 836 0
DWIDTH 12 0
BBX 12 12 0 -2
BITMAP
1DC0
1980
19A0
7FE0
1980
19A0
FFF0
1980
1980
3180
2180
C180
ENDCHAR
STARTCHAR U+4E96
ENCODING 20118
SWIDTH 836 0
DWIDTH 12 0
BBX 12 11 0 -1
BITMAP
00C0
7FE0
0000
0060
FFF0
0000
00C0
7FE0
0000
0060
FFF0
ENDCHAR
STARTCHAR U+4E98
ENCODING 20120
SWIDTH 836 0
DWIDTH 12 0
BBX 12 11 0 -1
BITMAP
00C0
7FE0
0000
1FC0
1980
1F80
1980
1980
1F80
0060
FFF0
ENDCHAR
STARTCHAR U+4E99
ENCODING 20121
SWIDTH 836 0
DWIDTH 12 0
BBX 12 11 0 -1
BITMAP
00C0
7FE0
1880
1FC0
1980
1F80
3380
3F00
3700
0360
FFF0
ENDCHAR
STARTCHAR U+4E9A
ENCODING 20122
SWIDTH 836 0
DWIDTH 12 0
BBX 12 11 0 -1
BITMAP
00C0
FFE0
1B00
9B20
5B30
7B60
7B40
5B80
1B00
1B60
FFF0
ENDCHAR
STARTCHAR U+4E9B
ENCODING 20123
SWIDTH 836 0
DWIDTH 12 0
BBX 12 11 0 -1
BITMAP
1FA0
FB60
DFE0
DB20
DFF0
F9F0
C180
3FC0
0000
0060
FFF0
ENDCHAR
STARTCHAR U+4E9C
ENCODING 20124
SWIDTH 836 0
DWIDTH 12 0
BBX 12 11 0 -1
BITMAP
0060
FFF0
1B00
5B40
7FE0
5B40
5B40
7FC0
5B40
1B60
FFF0
ENDCHAR
STARTCHAR U+4E9E
ENCODING 20126
SWIDTH 836 0
DWIDTH 12 0
BBX 12 11 0 -1
BITMAP
00C0
7FE0
1B00
5B40
7BE0
6AC0
60C0
7BC0
5B40
1B60
FFF0
ENDCHAR
STARTCHAR U+4E9F
ENCODING 20127
SWIDTH 836 0
DWIDTH 12 0
BBX 12 11 0 -1
BITMAP
00C0
7FE0
0180
0340
9FE0
F6C0
D780
F6C0
9F70
0C60
FFF0
ENDCHAR
STARTCHAR U+4EA0
ENCODING 20128
SWIDTH 836 0
DWIDTH 12 0
BBX 12 4 0 6
BITMAP
0C00
0600
0660
FFF0
ENDCHAR
STARTCHAR U+4EA1
ENCODING 20129
SWIDTH 836 0
DWIDTH 12 0
BBX 12 12 0 -2
BITMAP
0C00
0600
0660
FFF0
3000
3000
3000
3000
3000
30C0
3FE0
3000
ENDCHAR
STARTCHAR U+4EA2
ENCODING 20130
SWIDTH 836 0
DWIDTH 12 0
BBX 12 12 0 -2
BITMAP
0C00
0760
FFF0
0000
1F80
1B00
1B00
1B00
1B20
3320
23F0
C1F0
ENDCHAR
STARTCHAR U+4EA3
ENCODING 20131
SWIDTH 836 0
DWIDTH 12 0
BBX 12 12 0 -2
BITMAP
0C00
0600
0660
FFF0
1980
1980
1980
1980
1980
3180
2180
C180
ENDCHAR
STARTCHAR U+4EA4
ENCODING 20132
SWIDTH 836 0
DWIDTH 12 0
BBX 12 12 0 -2
BITMAP
0C00
0760
FFF0
1880
3160
29F0
CB00
0700
0600
0DF0
30E0
C020
ENDCHAR
STARTCHAR U+4EA5
ENCODING 20133
SWIDTH 836 0
DWIDTH 12 0
BBX 12 12 0 -2
BITMAP
0C00
0760
FFF0
0D00
1300
7EC0
2CC0
1980
6300
06C0
1860
6060
ENDCHAR
STARTCHAR U+4EA6
ENCODING 20134
SWIDTH 836 0
DWIDTH 12 0
BBX 12 12 0 -2
BITMAP
0C00
0760
FFF0
1980
59C0
79A0
59B0
59B0
9180
3180
2780
4300
ENDCHAR
STARTCHAR U+4EA7
ENCODING 20135
SWIDTH 836 0
DWIDTH 12 0
BBX 12 12 0 -2
BITMAP
0C00
0740
7FE0
0980
2D60
3FF0
3000
3000
2000
6000
4000
8000
ENDCHAR
STARTCHAR U+4EA8
ENCODING 20136
SWIDTH 836 0
DWIDTH 12 0
BBX 12 12 0 -2
BITMAP
0620
FFF0
1980
1F80
0040
7FE0
04C0
0700
0600
0600
1E00
0C00
ENDCHAR
STARTCHAR U+4EA9
ENCODING 20137
SWIDTH 836 0
DWIDTH 12 0
BBX 12 12 0 -2
BITMAP
0C00
0660
FFF0
2040
3FE0
36C0
36C0
3FC0
36C0
36C0
3FC0
30C0
ENDCHAR
STARTCHAR U+4EAB
ENCODING 20139
SWIDTH 836 0
DWIDTH 12 0
BBX 12 12 0 -2
BITMAP
0620
FFF0
1980
1F80
0080
3FC0
01A0
FFF0
0600
0600
1E00
0C00
ENDCHAR
STARTCHAR U+4EAC
ENCODING 20140
SWIDTH 836 0
DWIDTH 12 0
BBX 12 12 0 -2
BITMAP
0620
FFF0
0000
3FC0
3180
3180
3F80
2680
7660
6630
9E30
0C00
ENDCHAR
STARTCHAR U+4EAD
ENCODING 20141
SWIDTH 836 0
DWIDTH 12 0
BBX 12 12 0 -2
BITMAP
0640
7FE0
1980
1F80
4060
FFF0
C020
3FC0
0600
0600
1E00
0C00
ENDCHAR
STARTCHAR U+4EAE
ENCODING 20142
SWIDTH 836 0
DWIDTH 12 0
BBX 12 12 0 -2
BITMAP
0620
FFF0
1980
1F80
4020
FFF0
D360
1F80
1B20
1B20
33F0
C1F0
ENDCHAR
STARTCHAR U+4EB0
ENCODING 20144
SWIDTH 836 0
DWIDTH 12 0
BBX 12 12 0 -2
BITMAP
0700
0660
FFF0
1980
1F80
1980
1F80
3700
36C0
6670
9E30
0C00
ENDCHAR
STARTCHAR U+4EB2
ENCODING 20146
SWIDTH 836 0
DWIDTH 12 0
BBX 12 12 0 -2
BITMAP
0C00
06C0
7FE0
31C0
1B20
FFF0
0640
7FE0
2680
3660
6E30
8C30
ENDCHAR
STARTCHAR U+4EB3
ENCODING 20147
SWIDTH 836 0
DWIDTH 12 0
BBX 12 12 0 -2
BITMAP
0C00
06C0
7FE0
1980
7FF0
C3A0
FF00
0CC0
0FE0
7C20
0FF0
07F0
ENDCHAR
STARTCHAR U+4EB5
ENCODING 20149
SWIDTH 836 0
DWIDTH 12 0
BBX 12 12 0 -2
BITMAP
0620
FFF0
3340
FFE0
36C0
FBD0
32E0
FEB0
76C0
3980
DEF0
1820
ENDCHAR
STARTCHAR U+4EB6
ENCODING 20150
SWIDTH 836 0
DWIDTH 12 0
BBX 12 11 0 -1
BITMAP
06C0
7FE0
0000
3FC0
3EC0
36C0
3FC0
1980
1F80
19A0
FFF0
ENDCHAR
STARTCHAR U+4EB8
ENCODING 20152
SWIDTH 836 0
DWIDTH 12 0
BBX 12 12 0 -2
BITMAP
6660
32C0
FFF0
05A0
7FE0
6DA0
FFE0
19A0
FFF0
B180
7180
6180
ENDCHAR
STARTCHAR U+4EBA
ENCODING 20154
SWIDTH 836 0
DWIDTH 12 0
BBX 12 12 0 -2
BITMAP
0700
0600
0600
0600
0600
0700
0D00
0D80
0C80
18F0
3060
C020
ENDCHAR
STARTCHAR U+4EBB
ENCODING 20155
SWIDTH 836 0
DWIDTH 12 0
BBX 5 12 4 -2
BITMAP
38
30
30
70
60
60
E0
60
60
60
60
60
ENDCHAR
STARTCHAR U+4EBC
ENCODING 20156
SWIDTH 836 0
DWIDTH 12 0
BBX 12 11 0 -1
BITMAP
0700
0600
0600
0600
0D00
0D80
18F0
3060
C020
0060
FFF0
ENDCHAR
STARTCHAR U+4EBE
ENCODING 20158
SWIDTH 836 0
DWIDTH 12 0
BBX 11 12 1 -2
BITMAP
0700
E600
C600
C600
CD00
CD00
D980
D0E0
E0C0
C040
FFE0
C000
ENDCHAR
STARTCHAR U+4EBF
ENCODING 20159
SWIDTH 836 0
DWIDTH 12 0
BBX 12 12 0 -2
BITMAP
1840
1FE0
18C0
3980
3180
7300
B300
3600
3620
3620
37F0
33F0
ENDCHAR
STARTCHAR U+4EC0
ENCODING 20160
SWIDTH 836 0
DWIDTH 12 0
BBX 12 12 0 -2
BITMAP
3B80
3300
3300
6360
7FF0
E300
6300
6300
6300
6300
6300
6300
ENDCHAR
STARTCHAR U+4EC1
ENCODING 20161
SWIDTH 836 0
DWIDTH 12 0
BBX 12 12 0 -2
BITMAP
3800
30C0
37E0
6000
6000
E000
6000
6000
6000
6060
6FF0
6000
ENDCHAR
STARTCHAR U+4EC2
ENCODING 20162
SWIDTH 836 0
DWIDTH 12 0
BBX 12 12 0 -2
BITMAP
3F00
3600
3660
7FF0
6660
6660
E660
6660
6460
6CC0
6BC0
7180
ENDCHAR
STARTCHAR U+4EC3
ENCODING 20163
SWIDTH 836 0
DWIDTH 12 0
BBX 12 12 0 -2
BITMAP
3800
3060
3FF0
6180
6180
6180
E180
6180
6180
6180
6F80
6300
ENDCHAR
STARTCHAR U+4EC4
ENCODING 20164
SWIDTH 836 0
DWIDTH 12 0
BBX 12 12 0 -2
BITMAP
20C0
3FE0
3000
3380
3300
3300
3300
2680
6680
4CF0
9860
6020
ENDCHAR
STARTCHAR U+4EC5
ENCODING 20165
SWIDTH 836 0
DWIDTH 12 0
BBX 12 12 0 -2
BITMAP
38C0
3FE0
34C0
64C0
66C0
6280
E380
6100
6300
66F0
6C60
7020
ENDCHAR
STARTCHAR U+4EC6
ENCODING 20166
SWIDTH 836 0
DWIDTH 12 0
BBX 12 12 0 -2
BITMAP
1F80
1B00
1B00
3300
3380
7360
B330
3330
3300
3300
3300
3300
ENDCHAR
STARTCHAR U+4EC7
ENCODING 20167
SWIDTH 836 0
DWIDTH 12 0
BBX 12 12 0 -2
BITMAP
3F00
3600
36C0
7FE0
66C0
66C0
E6C0
66C0
66C0
64D0
6CF0
7070
ENDCHAR
STARTCHAR U+4EC9
ENCODING 20169
SWIDTH 836 0
DWIDTH 12 0
BBX 12 12 0 -2
BITMAP
3CC0
37E0
36C0
66C0
66C0
66C0
E6C0
66C0
66D0
6CD0
6CF0
7070
ENDCHAR
STARTCHAR U+4ECA
ENCODING 20170
SWIDTH 836 0
DWIDTH 12 0
BBX 12 12 0 -2
BITMAP
0600
0600
0900
1D80
36F0
C660
00A0
3FC0
0180
0300
0300
0600
ENDCHAR
STARTCHAR U+4ECB
ENCODING 20171
SWIDTH 836 0
DWIDTH 12 0
BBX 12 12 0 -2
BITMAP
0600
0E00
0D00
19F0
30E0
DDA0
1980
1980
1980
3180
3180
C180
ENDCHAR
STARTCHAR U+4ECD
ENCODING 20173
SWIDTH 836 0
DWIDTH 12 0
BBX 12 12 0 -2
BITMAP
3180
3FC0
3D80
2D80
6DA0
6DF0
ED60
6C60
6C60
68C0
6BC0
7180
ENDCHAR
STARTCHAR U+4ECE
ENCODING 20174
SWIDTH 836 0
DWIDTH 12 0
BBX 12 12 0 -2
BITMAP
3B80
3300
3300
3300
3300
3300
3680
3E80
26C0
6C70
4860
B020
ENDCHAR
STARTCHAR U+4ECF
ENCODING 20175
SWIDTH 836 0
DWIDTH 12 0
BBX 12 12 0 -2
BITMAP
3A00
3380
3300
6300
6300
E300
6280
6640
6460
65E0
7F30
6C30
ENDCHAR
STARTCHAR U+4ED1
ENCODING 20177
SWIDTH 836 0
DWIDTH 12 0
BBX 12 12 0 -2
BITMAP
0600
0600
0D00
1980
3CF0
D960
1B80
1E00
1840
1840
1FE0
0FE0
ENDCHAR
STARTCHAR U+4ED3
ENCODING 20179
SWIDTH 836 0
DWIDTH 12 0
BBX 12 12 0 -2
BITMAP
0600
0600
0D00
1980
3FF0
D9E0
19A0
1F80
1B40
1840
1FE0
0FE0
ENDCHAR
STARTCHAR U+4ED4
ENCODING 20180
SWIDTH 836 0
DWIDTH 12 0
BBX 12 12 0 -2
BITMAP
30C0
3FE0
32C0
6380
6360
FFF0
6300
6300
6300
6300
6F00
6600
ENDCHAR
STARTCHAR U+4ED5
ENCODING 20181
SWIDTH 836 0
DWIDTH 12 0
BBX 12 12 0 -2
BITMAP
3B80
3300
3300
6360
7FF0
E300
6300
6300
6300
6340
6FE0
6000
ENDCHAR
STARTCHAR U+4ED6
ENCODING 20182
SWIDTH 836 0
DWIDTH 12 0
BBX 12 12 0 -2
BITMAP
3180
3F00
2D60
6DF0
6F60
ED60
7D60
6DE0
6D60
6C10
6FF0
67F0
ENDCHAR
STARTCHAR U+4ED7
ENCODING 20183
SWIDTH 836 0
DWIDTH 12 0
BBX 12 12 0 -2
BITMAP
3B80
3300
3360
7FF0
6B00
6B00
E700
6600
6700
65F0
68E0
7020
ENDCHAR
STARTCHAR U+4ED8
ENCODING 20184
SWIDTH 836 0
DWIDTH 12 0
BBX 12 12 0 -2
BITMAP
38E0
30C0
30D0
7FF0
60C0
ECC0
66C0
66C0
60C0
60C0
63C0
6180
ENDCHAR
STARTCHAR U+4ED9
ENCODING 20185
SWIDTH 836 0
DWIDTH 12 0
BBX 12 12 0 -2
BITMAP
3B80
3300
3300
6F70
6B60
EB60
6B60
6B60
6B60
6B60
6FE0
6860
ENDCHAR
STARTCHAR U+4EDA
ENCODING 20186
SWIDTH 836 0
DWIDTH 12 0
BBX 12 12 0 -2
BITMAP
0600
0600
0D00
18F0
3760
C620
36E0
36C0
36C0
36C0
3FC0
30C0
ENDCHAR
STARTCHAR U+4EDD
ENCODING 20189
SWIDTH 836 0
DWIDTH 12 0
BBX 12 11 0 -1
BITMAP
0600
0600
0D00
0980
10F0
2160
DFA0
0600
0600
0660
FFF0
ENDCHAR
STARTCHAR U+4EDE
ENCODING 20190
SWIDTH 836 0
DWIDTH 12 0
BBX 12 12 0 -2
BITMAP
3800
3060
3FF0
6660
6E60
6E60
FE60
7660
64E0
6CC0
6BC0
7180
ENDCHAR
STARTCHAR U+4EDF
ENCODING 20191
SWIDTH 836 0
DWIDTH 12 0
BBX 12 12 0 -2
BITMAP
38C0
33E0
3F00
6300
6360
7FF0
E300
6300
6300
6300
6300
6300
ENDCHAR
STARTCHAR U+4EE1
ENCODING 20193
SWIDTH 836 0
DWIDTH 12 0
BBX 12 12 0 -2
BITMAP
3700
3660
3FF0
6800
7180
6FC0
E300
6600
6C20
6C20
6FF0
67F0
ENDCHAR
STARTCHAR U+4EE3
ENCODING 20195
SWIDTH 836 0
DWIDTH 12 0
BBX 12 12 0 -2
BITMAP
1D80
19E0
19A0
3FF0
3180
7180
B180
30C0
30D0
3060
3070
3030
ENDCHAR
STARTCHAR U+4EE4
ENCODING 20196
SWIDTH 836 0
DWIDTH 12 0
BBX 12 12 0 -2
BITMAP
0400
0E00
0900
1C80
3770
C260
3FC0
0180
1B00
0600
0380
0180
ENDCHAR
STARTCHAR U+4EE5
ENCODING 20197
SWIDTH 836 0
DWIDTH 12 0
BBX 12 12 0 -2
BITMAP
70E0
60C0
6CC0
66C0
66C0
60C0
60C0
66C0
78C0
F1A0
C330
0C30
ENDCHAR
STARTCHAR U+4EE8
ENCODING 20200
SWIDTH 836 0
DWIDTH 12 0
BBX 12 12 0 -2
BITMAP
3800
3060
37F0
6000
6000
E0C0
67E0
6000
6000
6060
6FF0
6000
ENDCHAR
STARTCHAR U+4EEA
ENCODING 20202
SWIDTH 836 0
DWIDTH 12 0
BBX 12 12 0 -2
BITMAP
3A40
3170
35E0
6560
6640
62C0
E380
6180
6380
66F0
6C60
7020
ENDCHAR
STARTCHAR U+4EEB
ENCODING 20203
SWIDTH 836 0
DWIDTH 12 0
BBX 12 12 0 -2
BITMAP
3980
3180
3100
62C0
66C0
6C80
F180
6140
6220
67F0
6F30
6400
ENDCHAR
STARTCHAR U+4EEC
ENCODING 20204
SWIDTH 836 0
DWIDTH 12 0
BBX 12 12 0 -2
BITMAP
3C60
37F0
2660
6060
6C60
6C60
EC60
6C60
6C60
6C60
6DE0
6CC0
ENDCHAR
STARTCHAR U+4EED
ENCODING 20205
SWIDTH 836 0
DWIDTH 12 0
BBX 12 12 0 -2
BITMAP
3800
3060
3FF0
6360
6B60
6B60
E660
67E0
66F0
64F0
6BC0
7180
ENDCHAR
STARTCHAR U+4EEE
ENCODING 20206
SWIDTH 836 0
DWIDTH 12 0
BBX 12 12 0 -2
BITMAP
3460
3FF0
3600
36C0
67E0
66C0
E7C0
6580
6DC0
6B70
7260
6C20
ENDCHAR
STARTCHAR U+4EF0
ENCODING 20208
SWIDTH 836 0
DWIDTH 12 0
BBX 12 12 0 -2
BITMAP
3A00
3760
3FF0
6B60
6B60
EB60
6B60
6B60
7FE0
7B60
6300
6300
ENDCHAR
STARTCHAR U+4EF2
ENCODING 20210
SWIDTH 836 0
DWIDTH 12 0
BBX 12 12 0 -2
BITMAP
3B80
3300
3B60
6FF0
6B60
EB60
6B60
6FE0
6B60
6300
6300
6300
ENDCHAR
STARTCHAR U+4EF3
ENCODING 20211
SWIDTH 836 0
DWIDTH 12 0
BBX 12 12 0 -2
BITMAP
2FC0
3D80
3DA0
6DB0
6DE0
6FC0
ED80
6D80
6DA0
6FA0
7DF0
68F0
ENDCHAR
STARTCHAR U+4EF5
ENCODING 20213
SWIDTH 836 0
DWIDTH 12 0
BBX 12 12 0 -2
BITMAP
3B80
3360
37F0
6780
6580
69A0
FFF0
6180
6180
6180
6180
6180
ENDCHAR
STARTCHAR U+4EF6
ENCODING 20214
SWIDTH 836 0
DWIDTH 12 0
BBX 12 12 0 -2
BITMAP
3DC0
3780
35A0
6FE0
6980
F1A0
7FF0
6180
6180
6180
6180
6180
ENDCHAR
STARTCHAR U+4EF7
ENCODING 20215
SWIDTH 836 0
DWIDTH 12 0
BBX 12 12 0 -2
BITMAP
3B00
3300
3680
64F0
6C60
76E0
E6C0
66C0
66C0
64C0
6CC0
70C0
ENDCHAR
STARTCHAR U+4EFA
ENCODING 20218
SWIDTH 836 0
DWIDTH 12 0
BBX 12 12 0 -2
BITMAP
0600
0600
0D00
0980
1FF0
38E0
D920
1F80
1800
18C0
1FE0
1800
ENDCHAR
STARTCHAR U+4EFB
ENCODING 20219
SWIDTH 836 0
DWIDTH 12 0
BBX 12 12 0 -2
BITMAP
38C0
33E0
3F00
6300
6360
FFF0
6300
6300
6300
6340
6FE0
6000
ENDCHAR
STARTCHAR U+4EFC
ENCODING 20220
SWIDTH 836 0
DWIDTH 12 0
BBX 12 12 0 -2
BITMAP
3060
3FF0
3300
6300
6340
EFE0
6300
6300
6300
6360
7FF0
6000
ENDCHAR
STARTCHAR U+4EFD
ENCODING 20221
SWIDTH 836 0
DWIDTH 12 0
BBX 12 12 0 -2
BITMAP
3480
3780
3680
64C0
6870
FFE0
66C0
66C0
66C0
6CC0
6B80
7300
ENDCHAR
STARTCHAR U+4EFF
ENCODING 20223
SWIDTH 836 0
DWIDTH 12 0
BBX 12 12 0 -2
BITMAP
3B00
31A0
3FF0
6600
6660
E7F0
6660
6660
6460
6CE0
6BC0
7180
ENDCHAR
STARTCHAR U+4F00
ENCODING 20224
SWIDTH 836 0
DWIDTH 12 0
BBX 12 12 0 -2
BITMAP
3A80
3380
3680
66C0
6470
EB60
7320
6280
6240
6460
7FE0
6C60
ENDCHAR
STARTCHAR U+4F01
ENCODING 20225
SWIDTH 836 0
DWIDTH 12 0
BBX 12 11 0 -1
BITMAP
0600
0E00
0980
1EF0
2660
F6A0
37C0
3600
3600
3660
FFF0
ENDCHAR
STARTCHAR U+4F03
ENCODING 20227
SWIDTH 836 0
DWIDTH 12 0
BBX 12 12 0 -2
BITMAP
38C0
37E0
32C0
61A0
6FF0
61A0
E1C0
6180
6180
6180
6780
6300
ENDCHAR
STARTCHAR U+4F09
ENCODING 20233
SWIDTH 836 0
DWIDTH 12 0
BBX 12 12 0 -2
BITMAP
3B00
3160
3FF0
6000
64C0
67E0
E6C0
66C0
66D0
64D0
6CF0
7070
ENDCHAR
STARTCHAR U+4F0A
ENCODING 20234
SWIDTH 836 0
DWIDTH 12 0
BBX 12 12 0 -2
BITMAP
3060
3FF0
3360
3FF0
6360
6360
FFE0
6360
6300
6600
6400
7800
ENDCHAR
STARTCHAR U+4F0B
ENCODING 20235
SWIDTH 836 0
DWIDTH 12 0
BBX 12 12 0 -2
BITMAP
30C0
3FE0
36C0
6680
67F0
6660
E740
66C0
6D80
69F0
7360
6C20
ENDCHAR
STARTCHAR U+4F0D
ENCODING 20237
SWIDTH 836 0
DWIDTH 12 0
BBX 12 12 0 -2
BITMAP
30C0
3FE0
3300
6300
6340
FFE0
66C0
66C0
66C0
66C0
7FF0
6000
ENDCHAR
STARTCHAR U+4F0E
ENCODING 20238
SWIDTH 836 0
DWIDTH 12 0
BBX 12 12 0 -2
BITMAP
39C0
31A0
3FF0
6180
6180
EFE0
64C0
64C0
6380
63F0
6660
7820
ENDCHAR
STARTCHAR U+4F0F
ENCODING 20239
SWIDTH 836 0
DWIDTH 12 0
BBX 12 12 0 -2
BITMAP
3B80
3360
3360
7FF0
6300
E300
6680
6680
64C0
6470
6860
7020
ENDCHAR
STARTCHAR U+4F10
ENCODING 20240
SWIDTH 836 0
DWIDTH 12 0
BBX 12 12 0 -2
BITMAP
3B80
3340
3360
63F0
7F00
E360
6160
61C0
61D0
6360
6C70
6030
ENDCHAR
STARTCHAR U+4F11
ENCODING 20241
SWIDTH 836 0
DWIDTH 12 0
BBX 12 12 0 -2
BITMAP
3B80
3300
3360
7FF0
6380
6780
E740
6F70
6B60
7320
6300
6300
ENDCHAR
STARTCHAR U+4F15
ENCODING 20245
SWIDTH 836 0
DWIDTH 12 0
BBX 12 12 0 -2
BITMAP
3B80
3340
3FE0
7300
6360
7FF0
E300
6680
66C0
6470
6860
7020
ENDCHAR
STARTCHAR U+4F17
ENCODING 20247
SWIDTH 836 0
DWIDTH 12 0
BBX 12 12 0 -2
BITMAP
0600
0600
0D00
0980
10F0
3DE0
D9A0
1980
33C0
2B70
4E60
8420
ENDCHAR
STARTCHAR U+4F18
ENCODING 20248
SWIDTH 836 0
DWIDTH 12 0
BBX 12 12 0 -2
BITMAP
3B40
3360
3320
7FF0
6300
E780
6780
6580
65A0
6DA0
69F0
70F0
ENDCHAR
STARTCHAR U+4F19
ENCODING 20249
SWIDTH 836 0
DWIDTH 12 0
BBX 12 12 0 -2
BITMAP
39C0
3180
35A0
65B0
65E0
6D80
ED80
6340
6340
6270
6460
7820
ENDCHAR
STARTCHAR U+4F1A
ENCODING 20250
SWIDTH 836 0
DWIDTH 12 0
BBX 12 12 0 -2
BITMAP
0600
0E00
0D00
18C0
3FF0
C160
3FC0
0C00
0900
10C0
7FE0
3060
ENDCHAR
STARTCHAR U+4F1B
ENCODING 20251
SWIDTH 836 0
DWIDTH 12 0
BBX 11 12 0 -2
BITMAP
28C0
3FE0
3C80
6EC0
6F80
6D00
ED80
6DC0
6EC0
6C40
6FE0
6C00
ENDCHAR
STARTCHAR U+4F1C
ENCODING 20252
SWIDTH 836 0
DWIDTH 12 0
BBX 12 12 0 -2
BITMAP
3F00
36C0
3FE0
66C0
64F0
7870
E380
6360
7FF0
6300
6300
6300
ENDCHAR
STARTCHAR U+4F1D
ENCODING 20253
SWIDTH 836 0
DWIDTH 12 0
BBX 12 12 0 -2
BITMAP
38C0
37E0
3000
6060
7FF0
E300
6300
6280
6640
64E0
7F30
6C30
ENDCHAR
STARTCHAR U+4F1E
ENCODING 20254
SWIDTH 836 0
DWIDTH 12 0
BBX 12 12 0 -2
BITMAP
0200
0600
0F00
36F0
E660
36C0
3EC0
1720
FFF0
0600
0600
0600
ENDCHAR
STARTCHAR U+4F1F
ENCODING 20255
SWIDTH 836 0
DWIDTH 12 0
BBX 12 12 0 -2
BITMAP
3B80
3360
3FF0
6300
6FE0
E300
7FF0
6360
6360
63E0
6340
6300
ENDCHAR
STARTCHAR U+4F20
ENCODING 20256
SWIDTH 836 0
DWIDTH 12 0
BBX 12 12 0 -2
BITMAP
3B80
3360
3FF0
6320
7FF0
E640
6FE0
60C0
6580
6300
6180
6180
ENDCHAR
STARTCHAR U+4F22
ENCODING 20258
SWIDTH 836 0
DWIDTH 12 0
BBX 12 12 0 -2
BITMAP
3060
3FF0
30C0
66C0
66E0
6FF0
EDC0
63C0
66C0
6CC0
73C0
6180
ENDCHAR
STARTCHAR U+4F24
ENCODING 20260
SWIDTH 836 0
DWIDTH 12 0
BBX 12 12 0 -2
BITMAP
3F00
3660
37F0
6700
6B60
EFF0
7360
6360
6360
6660
6DC0
7180
ENDCHAR
STARTCHAR U+4F25
ENCODING 20261
SWIDTH 836 0
DWIDTH 12 0
BBX 12 12 0 -2
BITMAP
3760
3660
36C0
6680
6760
7FF0
E700
6680
66C0
6770
6E60
6C20
ENDCHAR
STARTCHAR U+4F26
ENCODING 20262
SWIDTH 836 0
DWIDTH 12 0
BBX 12 12 0 -2
BITMAP
3B00
3300
3780
6EF0
6C60
F6A0
66C0
6700
6640
6640
67E0
63E0
ENDCHAR
STARTCHAR U+4F27
ENCODING 20263
SWIDTH 836 0
DWIDTH 12 0
BBX 12 12 0 -2
BITMAP
3B00
3300
3780
66C0
6FF0
6EE0
F6C0
67C0
6680
6640
67E0
63E0
ENDCHAR
STARTCHAR U+4F2A
ENCODING 20266
SWIDTH 836 0
DWIDTH 12 0
BBX 12 12 0 -2
BITMAP
3380
3F00
3760
7FF0
6660
E760
67E0
65E0
6D60
68E0
73C0
6180
ENDCHAR
STARTCHAR U+4F2B
ENCODING 20267
SWIDTH 836 0
DWIDTH 12 0
BBX 12 12 0 -2
BITMAP
3A00
3180
39A0
6FF0
7860
7840
E000
6000
6000
6060
7FF0
6000
ENDCHAR
STARTCHAR U+4F2F
ENCODING 20271
SWIDTH 836 0
DWIDTH 12 0
BBX 12 12 0 -2
BITMAP
3B80
3300
3A60
6FF0
6C60
EC60
6FE0
6C60
6C60
6C60
6FE0
6C60
ENDCHAR
STARTCHAR U+4F30
ENCODING 20272
SWIDTH 836 0
DWIDTH 12 0
BBX 12 12 0 -2
BITMAP
3B80
3300
3360
7FF0
6300
6B40
EFE0
6CC0
6CC0
6CC0
6FC0
6CC0
ENDCHAR
STARTCHAR U+4F31
ENCODING 20273
SWIDTH 836 0
DWIDTH 12 0
BBX 12 12 0 -2
BITMAP
3B00
3300
3780
6EF0
6C60
73A0
EB00
6FC0
7B60
7330
6F30
6600
ENDCHAR
STARTCHAR U+4F32
ENCODING 20274
SWIDTH 836 0
DWIDTH 12 0
BBX 12 12 0 -2
BITMAP
28C0
3FE0
3CC0
6FC0
6CC0
6F60
EB60
6BC0
6B20
7B20
73F0
61F0
ENDCHAR
STARTCHAR U+4F34
ENCODING 20276
SWIDTH 836 0
DWIDTH 12 0
BBX 12 12 0 -2
BITMAP
3380
3B60
3740
67A0
7FE0
E300
6360
7FF0
6300
6300
6300
6300
ENDCHAR
STARTCHAR U+4F36
ENCODING 20278
SWIDTH 836 0
DWIDTH 12 0
BBX 12 12 0 -2
BITMAP
3B00
3300
3680
6770
69E0
F180
6FE0
60C0
6480
6300
6180
6180
ENDCHAR
STARTCHAR U+4F38
ENCODING 20280
SWIDTH 836 0
DWIDTH 12 0
BBX 12 12 0 -2
BITMAP
3B80
3360
3FF0
6B60
6FE0
EB60
6B60
6FE0
6B60
6300
6300
6300
ENDCHAR
STARTCHAR U+4F39
ENCODING 20281
SWIDTH 836 0
DWIDTH 12 0
BBX 12 12 0 -2
BITMAP
3CC0
37E0
36C0
66C0
67C0
E6C0
66C0
67C0
66C0
66C0
7FF0
6000
ENDCHAR
STARTCHAR U+4F3A
ENCODING 20282
SWIDTH 836 0
DWIDTH 12 0
BBX 12 12 0 -2
BITMAP
3060
3FF0
3160
6F60
6060
EF60
6D60
6D60
6F60
6D60
61E0
60C0
ENDCHAR
STARTCHAR U+4F3C
ENCODING 20284
SWIDTH 836 0
DWIDTH 12 0
BBX 12 12 0 -2
BITMAP
2E70
3C60
2E60
6D60
6DE0
ED60
6C60
6D60
6EC0
7CE0
69B0
6630
ENDCHAR
STARTCHAR U+4F3D
ENCODING 20285
SWIDTH 836 0
DWIDTH 12 0
BBX 12 12 0 -2
BITMAP
3700
3600
36B0
7FF0
6AB0
6AB0
EAB0
6AB0
6AB0
6AB0
7EF0
6CB0
ENDCHAR
STARTCHAR U+4F43
ENCODING 20291
SWIDTH 836 0
DWIDTH 12 0
BBX 12 12 0 -2
BITMAP
3060
3FF0
2D60
6D60
6D60
EFE0
6D60
6D60
6D60
6D60
6FE0
6C60
ENDCHAR
STARTCHAR U+4F46
ENCODING 20294
SWIDTH 836 0
DWIDTH 12 0
BBX 12 12 0 -2
BITMAP
3CC0
37E0
36C0
66C0
67C0
E6C0
66C0
67C0
66C0
6060
7FF0
6000
ENDCHAR
STARTCHAR U+4F47
ENCODING 20295
SWIDTH 836 0
DWIDTH 12 0
BBX 12 12 0 -2
BITMAP
39C0
35A0
37F0
6C60
6C40
7FF0
E180
6180
6180
6180
6780
6300
ENDCHAR
STARTCHAR U+4F48
ENCODING 20296
SWIDTH 836 0
DWIDTH 12 0
BBX 12 12 0 -2
BITMAP
3B80
3360
3FF0
7780
6DA0
EFF0
75A0
65A0
65E0
65A0
6180
6180
ENDCHAR
STARTCHAR U+4F4D
ENCODING 20301
SWIDTH 836 0
DWIDTH 12 0
BBX 12 12 0 -2
BITMAP
3200
3380
3160
7FE0
6880
64C0
E6C0
6680
6780
6160
7FF0
6000
ENDCHAR
STARTCHAR U+4F4E
ENCODING 20302
SWIDTH 836 0
DWIDTH 12 0
BBX 12 12 0 -2
BITMAP
30C0
39E0
2F80
6DA0
6FF0
ED80
6D80
6DC0
6ED0
7C60
6B70
6330
ENDCHAR
STARTCHAR U+4F4F
ENCODING 20303
SWIDTH 836 0
DWIDTH 12 0
BBX 12 12 0 -2
BITMAP
3A00
3380
3140
7FE0
6300
E340
6FE0
6300
6300
6320
7FF0
6000
ENDCHAR
STARTCHAR U+4F50
ENCODING 20304
SWIDTH 836 0
DWIDTH 12 0
BBX 12 12 0 -2
BITMAP
3B80
3300
3360
7FF0
6600
E6C0
6FE0
6B00
7300
6360
7FF0
6000
ENDCHAR
STARTCHAR U+4F51
ENCODING 20305
SWIDTH 836 0
DWIDTH 12 0
BBX 12 12 0 -2
BITMAP
3B80
3360
3FF0
6300
6600
E660
6FF0
7660
6660
6660
67E0
6660
ENDCHAR
STARTCHAR U+4F53
ENCODING 20307
SWIDTH 836 0
DWIDTH 12 0
BBX 12 12 0 -2
BITMAP
3B80
3300
3360
7FF0
6700
E780
6FC0
6B70
7FE0
6320
6300
6300
ENDCHAR
STARTCHAR U+4F54
ENCODING 20308
SWIDTH 836 0
DWIDTH 12 0
BBX 12 12 0 -2
BITMAP
3B80
3300
3360
73F0
6300
EB40
6FE0
6CC0
6CC0
6CC0
6FC0
6CC0
ENDCHAR
STARTCHAR U+4F55
ENCODING 20309
SWIDTH 836 0
DWIDTH 12 0
BBX 12 12 0 -2
BITMAP
3060
3FF0
3060
6B60
6F60
6B60
EB60
6F60
6B60
6060
61E0
60C0
ENDCHAR
STARTCHAR U+4F56
ENCODING 20310
SWIDTH 836 0
DWIDTH 12 0
BBX 12 12 0 -2
BITMAP
3980
30C0
31B0
75B0
65E0
E5C0
6DB0
6FB0
6B90
65A0
69E0
60E0
ENDCHAR
STARTCHAR U+4F57
ENCODING 20311
SWIDTH 836 0
DWIDTH 12 0
BBX 12 12 0 -2
BITMAP
3B00
3160
3FF0
6840
7F00
6660
E6E0
6780
6620
6620
67F0
63F0
ENDCHAR
STARTCHAR U+4F58
ENCODING 20312
SWIDTH 836 0
DWIDTH 12 0
BBX 12 12 0 -2
BITMAP
0400
0E00
0900
10C0
3FF0
C020
7FE0
2600
36C0
6660
9E60
0C00
ENDCHAR
STARTCHAR U+4F59
ENCODING 20313
SWIDTH 836 0
DWIDTH 12 0
BBX 12 12 0 -2
BITMAP
0400
0E00
0900
10C0
3FF0
C620
7FE0
2600
36C0
6660
9E60
0C00
ENDCHAR
STARTCHAR U+4F5A
ENCODING 20314
SWIDTH 836 0
DWIDTH 12 0
BBX 12 12 0 -2
BITMAP
3380
3F40
3FE0
6B00
7360
7FF0
E300
6380
6680
66F0
6460
7820
ENDCHAR
STARTCHAR U+4F5B
ENCODING 20315
SWIDTH 836 0
DWIDTH 12 0
BBX 12 12 0 -2
BITMAP
2DC0
3DA0
3FF0
6DA0
7FE0
6D80
FFF0
6DA0
6DE0
6DA0
6980
7180
ENDCHAR
STARTCHAR U+4F5C
ENCODING 20316
SWIDTH 836 0
DWIDTH 12 0
BBX 12 12 0 -2
BITMAP
3B80
3360
37F0
6700
6B40
F3E0
6300
6360
63F0
6300
6300
6300
ENDCHAR
STARTCHAR U+4F5D
ENCODING 20317
SWIDTH 836 0
DWIDTH 12 0
BBX 12 12 0 -2
BITMAP
3700
3660
3FF0
6C60
7F60
6D60
ED60
6F60
6D60
60C0
63C0
6180
ENDCHAR
STARTCHAR U+4F5E
ENCODING 20318
SWIDTH 836 0
DWIDTH 12 0
BBX 12 12 0 -2
BITMAP
38C0
37E0
3060
7FF0
6300
6360
FFF0
66C0
6D80
6380
66E0
7C60
ENDCHAR
STARTCHAR U+4F5F
ENCODING 20319
SWIDTH 836 0
DWIDTH 12 0
BBX 12 12 0 -2
BITMAP
3380
3340
33E0
76C0
6580
6BC0
F470
6BA0
6080
6700
61C0
60C0
ENDCHAR
STARTCHAR U+4F60
ENCODING 20320
SWIDTH 836 0
DWIDTH 12 0
BBX 12 12 0 -2
BITMAP
3F00
3660
37F0
6DA0
6DC0
77C0
E7A0
6DB0
69B0
7180
6780
6300
ENDCHAR
STARTCHAR U+4F62
ENCODING 20322
SWIDTH 836 0
DWIDTH 12 0
BBX 12 12 0 -2
BITMAP
28C0
3FE0
3C00
6CC0
6FE0
ECC0
6CC0
6FC0
6CC0
6C60
6FF0
6C00
ENDCHAR
STARTCHAR U+4F63
ENCODING 20323
SWIDTH 836 0
DWIDTH 12 0
BBX 12 12 0 -2
BITMAP
2860
3FF0
3D60
6D60
6FE0
ED60
6FE0
6D60
6D60
6D60
69E0
70C0
ENDCHAR
ENDFONT
